<svg xmlns="http://www.w3.org/2000/svg" width="900" height="700" viewBox="0 0 900 700">
<rect x="0" y="0" width="100%" height="100%" fill="white"/>
<rect x="40.0" y="40.0" width="820.0" height="620.0" fill="none" stroke="#cccccc" stroke-width="1"/>
<polyline points="108.333,386.667 791.667,386.667 803.532,387.705 815.038,390.788 825.833,395.822 835.590,402.654 844.013,411.076 850.845,420.833 855.879,431.629 858.961,443.134 860.000,455.000 860.000,591.667 858.961,603.533 855.879,615.038 850.845,625.833 844.013,635.591 835.590,644.013 825.833,650.845 815.038,655.879 803.532,658.962 791.667,660.000 108.333,660.000 96.468,658.962 84.962,655.879 74.167,650.845 64.410,644.013 55.987,635.591 49.155,625.833 44.121,615.038 41.039,603.533 40.000,591.667 40.000,455.000 41.039,443.134 44.121,431.629 49.155,420.833 55.987,411.076 64.410,402.654 74.167,395.822 84.962,390.788 96.468,387.705 108.333,386.667" fill="none" stroke="#1f77b4" stroke-width="2"/>
<circle cx="108.333" cy="386.667" r="2.5" fill="#1f77b4"/>
<text x="112.333" y="382.667" font-size="10" fill="#333333">0</text>
<circle cx="791.667" cy="386.667" r="2.5" fill="#1f77b4"/>
<text x="795.667" y="382.667" font-size="10" fill="#333333">1</text>
<circle cx="803.532" cy="387.705" r="2.5" fill="#1f77b4"/>
<text x="807.532" y="383.705" font-size="10" fill="#333333">2</text>
<circle cx="815.038" cy="390.788" r="2.5" fill="#1f77b4"/>
<text x="819.038" y="386.788" font-size="10" fill="#333333">3</text>
<circle cx="825.833" cy="395.822" r="2.5" fill="#1f77b4"/>
<text x="829.833" y="391.822" font-size="10" fill="#333333">4</text>
<circle cx="835.590" cy="402.654" r="2.5" fill="#1f77b4"/>
<text x="839.590" y="398.654" font-size="10" fill="#333333">5</text>
<circle cx="844.013" cy="411.076" r="2.5" fill="#1f77b4"/>
<text x="848.013" y="407.076" font-size="10" fill="#333333">6</text>
<circle cx="850.845" cy="420.833" r="2.5" fill="#1f77b4"/>
<text x="854.845" y="416.833" font-size="10" fill="#333333">7</text>
<circle cx="855.879" cy="431.629" r="2.5" fill="#1f77b4"/>
<text x="859.879" y="427.629" font-size="10" fill="#333333">8</text>
<circle cx="858.961" cy="443.134" r="2.5" fill="#1f77b4"/>
<text x="862.961" y="439.134" font-size="10" fill="#333333">9</text>
<circle cx="860.000" cy="455.000" r="2.5" fill="#1f77b4"/>
<text x="864.000" y="451.000" font-size="10" fill="#333333">10</text>
<circle cx="860.000" cy="591.667" r="2.5" fill="#1f77b4"/>
<text x="864.000" y="587.667" font-size="10" fill="#333333">11</text>
<circle cx="858.961" cy="603.533" r="2.5" fill="#1f77b4"/>
<text x="862.961" y="599.533" font-size="10" fill="#333333">12</text>
<circle cx="855.879" cy="615.038" r="2.5" fill="#1f77b4"/>
<text x="859.879" y="611.038" font-size="10" fill="#333333">13</text>
<circle cx="850.845" cy="625.833" r="2.5" fill="#1f77b4"/>
<text x="854.845" y="621.833" font-size="10" fill="#333333">14</text>
<circle cx="844.013" cy="635.591" r="2.5" fill="#1f77b4"/>
<text x="848.013" y="631.591" font-size="10" fill="#333333">15</text>
<circle cx="835.590" cy="644.013" r="2.5" fill="#1f77b4"/>
<text x="839.590" y="640.013" font-size="10" fill="#333333">16</text>
<circle cx="825.833" cy="650.845" r="2.5" fill="#1f77b4"/>
<text x="829.833" y="646.845" font-size="10" fill="#333333">17</text>
<circle cx="815.038" cy="655.879" r="2.5" fill="#1f77b4"/>
<text x="819.038" y="651.879" font-size="10" fill="#333333">18</text>
<circle cx="803.532" cy="658.962" r="2.5" fill="#1f77b4"/>
<text x="807.532" y="654.962" font-size="10" fill="#333333">19</text>
<circle cx="791.667" cy="660.000" r="2.5" fill="#1f77b4"/>
<text x="795.667" y="656.000" font-size="10" fill="#333333">20</text>
<circle cx="108.333" cy="660.000" r="2.5" fill="#1f77b4"/>
<text x="112.333" y="656.000" font-size="10" fill="#333333">21</text>
<circle cx="96.468" cy="658.962" r="2.5" fill="#1f77b4"/>
<text x="100.468" y="654.962" font-size="10" fill="#333333">22</text>
<circle cx="84.962" cy="655.879" r="2.5" fill="#1f77b4"/>
<text x="88.962" y="651.879" font-size="10" fill="#333333">23</text>
<circle cx="74.167" cy="650.845" r="2.5" fill="#1f77b4"/>
<text x="78.167" y="646.845" font-size="10" fill="#333333">24</text>
<circle cx="64.410" cy="644.013" r="2.5" fill="#1f77b4"/>
<text x="68.410" y="640.013" font-size="10" fill="#333333">25</text>
<circle cx="55.987" cy="635.591" r="2.5" fill="#1f77b4"/>
<text x="59.987" y="631.591" font-size="10" fill="#333333">26</text>
<circle cx="49.155" cy="625.833" r="2.5" fill="#1f77b4"/>
<text x="53.155" y="621.833" font-size="10" fill="#333333">27</text>
<circle cx="44.121" cy="615.038" r="2.5" fill="#1f77b4"/>
<text x="48.121" y="611.038" font-size="10" fill="#333333">28</text>
<circle cx="41.039" cy="603.533" r="2.5" fill="#1f77b4"/>
<text x="45.039" y="599.533" font-size="10" fill="#333333">29</text>
<circle cx="40.000" cy="591.667" r="2.5" fill="#1f77b4"/>
<text x="44.000" y="587.667" font-size="10" fill="#333333">30</text>
<circle cx="40.000" cy="455.000" r="2.5" fill="#1f77b4"/>
<text x="44.000" y="451.000" font-size="10" fill="#333333">31</text>
<circle cx="41.039" cy="443.134" r="2.5" fill="#1f77b4"/>
<text x="45.039" y="439.134" font-size="10" fill="#333333">32</text>
<circle cx="44.121" cy="431.629" r="2.5" fill="#1f77b4"/>
<text x="48.121" y="427.629" font-size="10" fill="#333333">33</text>
<circle cx="49.155" cy="420.833" r="2.5" fill="#1f77b4"/>
<text x="53.155" y="416.833" font-size="10" fill="#333333">34</text>
<circle cx="55.987" cy="411.076" r="2.5" fill="#1f77b4"/>
<text x="59.987" y="407.076" font-size="10" fill="#333333">35</text>
<circle cx="64.410" cy="402.654" r="2.5" fill="#1f77b4"/>
<text x="68.410" y="398.654" font-size="10" fill="#333333">36</text>
<circle cx="74.167" cy="395.822" r="2.5" fill="#1f77b4"/>
<text x="78.167" y="391.822" font-size="10" fill="#333333">37</text>
<circle cx="84.962" cy="390.788" r="2.5" fill="#1f77b4"/>
<text x="88.962" y="386.788" font-size="10" fill="#333333">38</text>
<circle cx="96.468" cy="387.705" r="2.5" fill="#1f77b4"/>
<text x="100.468" y="383.705" font-size="10" fill="#333333">39</text>
<circle cx="108.333" cy="386.667" r="2.5" fill="#1f77b4"/>
<text x="112.333" y="382.667" font-size="10" fill="#333333">40</text>
<text x="114.333" y="400.667" font-size="11" fill="#1f77b4">path2d_planar_uv_1.csv</text>
<text x="40.0" y="690" font-size="11" fill="#666666">u: [-30.000, 30.000]</text>
<text x="220.0" y="690" font-size="11" fill="#666666">v: [-10.000, 10.000]</text>
</svg>