solid 
 facet normal -1.000000e+00  0.000000e+00  0.000000e+00
   outer loop
     vertex  0.000000e+00  0.000000e+00  2.000000e+01
     vertex  0.000000e+00  8.000000e+01  0.000000e+00
     vertex  0.000000e+00  0.000000e+00  0.000000e+00
   endloop
 endfacet
 facet normal -1.000000e+00  0.000000e+00  0.000000e+00
   outer loop
     vertex  0.000000e+00  0.000000e+00  2.000000e+01
     vertex  0.000000e+00  8.000000e+01  2.000000e+01
     vertex  0.000000e+00  8.000000e+01  0.000000e+00
   endloop
 endfacet
 facet normal  0.000000e+00 -1.000000e+00 -0.000000e+00
   outer loop
     vertex  1.000000e+02  0.000000e+00  2.000000e+01
     vertex  0.000000e+00  0.000000e+00  0.000000e+00
     vertex  1.000000e+02  0.000000e+00  0.000000e+00
   endloop
 endfacet
 facet normal -0.000000e+00 -1.000000e+00  0.000000e+00
   outer loop
     vertex  1.000000e+02  0.000000e+00  2.000000e+01
     vertex  0.000000e+00  0.000000e+00  2.000000e+01
     vertex  0.000000e+00  0.000000e+00  0.000000e+00
   endloop
 endfacet
 facet normal  0.000000e+00  0.000000e+00  1.000000e+00
   outer loop
     vertex  4.387164e+01  3.485770e+01  2.000000e+01
     vertex  0.000000e+00  0.000000e+00  2.000000e+01
     vertex  4.485770e+01  3.387164e+01  2.000000e+01
   endloop
 endfacet
 facet normal  0.000000e+00  0.000000e+00  1.000000e+00
   outer loop
     vertex  4.600000e+01  3.307180e+01  2.000000e+01
     vertex  4.485770e+01  3.387164e+01  2.000000e+01
     vertex  0.000000e+00  0.000000e+00  2.000000e+01
   endloop
 endfacet
 facet normal  0.000000e+00  0.000000e+00  1.000000e+00
   outer loop
     vertex  4.307180e+01  3.600000e+01  2.000000e+01
     vertex  0.000000e+00  0.000000e+00  2.000000e+01
     vertex  4.387164e+01  3.485770e+01  2.000000e+01
   endloop
 endfacet
 facet normal  0.000000e+00  0.000000e+00  1.000000e+00
   outer loop
     vertex  4.726384e+01  3.248246e+01  2.000000e+01
     vertex  4.600000e+01  3.307180e+01  2.000000e+01
     vertex  0.000000e+00  0.000000e+00  2.000000e+01
   endloop
 endfacet
 facet normal  0.000000e+00  0.000000e+00  1.000000e+00
   outer loop
     vertex  4.248246e+01  3.726384e+01  2.000000e+01
     vertex  0.000000e+00  0.000000e+00  2.000000e+01
     vertex  4.307180e+01  3.600000e+01  2.000000e+01
   endloop
 endfacet
 facet normal  0.000000e+00  0.000000e+00  1.000000e+00
   outer loop
     vertex  4.861081e+01  3.212154e+01  2.000000e+01
     vertex  4.726384e+01  3.248246e+01  2.000000e+01
     vertex  0.000000e+00  0.000000e+00  2.000000e+01
   endloop
 endfacet
 facet normal  0.000000e+00  0.000000e+00  1.000000e+00
   outer loop
     vertex  4.212154e+01  3.861081e+01  2.000000e+01
     vertex  0.000000e+00  0.000000e+00  2.000000e+01
     vertex  4.248246e+01  3.726384e+01  2.000000e+01
   endloop
 endfacet
 facet normal  0.000000e+00  0.000000e+00  1.000000e+00
   outer loop
     vertex  5.000000e+01  3.200000e+01  2.000000e+01
     vertex  4.861081e+01  3.212154e+01  2.000000e+01
     vertex  0.000000e+00  0.000000e+00  2.000000e+01
   endloop
 endfacet
 facet normal  0.000000e+00  0.000000e+00  1.000000e+00
   outer loop
     vertex  4.200000e+01  4.000000e+01  2.000000e+01
     vertex  0.000000e+00  8.000000e+01  2.000000e+01
     vertex  0.000000e+00  0.000000e+00  2.000000e+01
   endloop
 endfacet
 facet normal  0.000000e+00  0.000000e+00  1.000000e+00
   outer loop
     vertex  4.200000e+01  4.000000e+01  2.000000e+01
     vertex  0.000000e+00  0.000000e+00  2.000000e+01
     vertex  4.212154e+01  3.861081e+01  2.000000e+01
   endloop
 endfacet
 facet normal  0.000000e+00  0.000000e+00  1.000000e+00
   outer loop
     vertex  4.212154e+01  4.138919e+01  2.000000e+01
     vertex  0.000000e+00  8.000000e+01  2.000000e+01
     vertex  4.200000e+01  4.000000e+01  2.000000e+01
   endloop
 endfacet
 facet normal  0.000000e+00  0.000000e+00  1.000000e+00
   outer loop
     vertex  4.248246e+01  4.273616e+01  2.000000e+01
     vertex  0.000000e+00  8.000000e+01  2.000000e+01
     vertex  4.212154e+01  4.138919e+01  2.000000e+01
   endloop
 endfacet
 facet normal  0.000000e+00  0.000000e+00  1.000000e+00
   outer loop
     vertex  4.307180e+01  4.400000e+01  2.000000e+01
     vertex  0.000000e+00  8.000000e+01  2.000000e+01
     vertex  4.248246e+01  4.273616e+01  2.000000e+01
   endloop
 endfacet
 facet normal  0.000000e+00  0.000000e+00  1.000000e+00
   outer loop
     vertex  4.387164e+01  4.514230e+01  2.000000e+01
     vertex  0.000000e+00  8.000000e+01  2.000000e+01
     vertex  4.307180e+01  4.400000e+01  2.000000e+01
   endloop
 endfacet
 facet normal  0.000000e+00  0.000000e+00  1.000000e+00
   outer loop
     vertex  4.485770e+01  4.612836e+01  2.000000e+01
     vertex  0.000000e+00  8.000000e+01  2.000000e+01
     vertex  4.387164e+01  4.514230e+01  2.000000e+01
   endloop
 endfacet
 facet normal  0.000000e+00  0.000000e+00  1.000000e+00
   outer loop
     vertex  4.600000e+01  4.692820e+01  2.000000e+01
     vertex  0.000000e+00  8.000000e+01  2.000000e+01
     vertex  4.485770e+01  4.612836e+01  2.000000e+01
   endloop
 endfacet
 facet normal  0.000000e+00  0.000000e+00  1.000000e+00
   outer loop
     vertex  4.726384e+01  4.751754e+01  2.000000e+01
     vertex  0.000000e+00  8.000000e+01  2.000000e+01
     vertex  4.600000e+01  4.692820e+01  2.000000e+01
   endloop
 endfacet
 facet normal  0.000000e+00  0.000000e+00  1.000000e+00
   outer loop
     vertex  4.861081e+01  4.787846e+01  2.000000e+01
     vertex  0.000000e+00  8.000000e+01  2.000000e+01
     vertex  4.726384e+01  4.751754e+01  2.000000e+01
   endloop
 endfacet
 facet normal  0.000000e+00  0.000000e+00  1.000000e+00
   outer loop
     vertex  5.000000e+01  4.800000e+01  2.000000e+01
     vertex  0.000000e+00  8.000000e+01  2.000000e+01
     vertex  4.861081e+01  4.787846e+01  2.000000e+01
   endloop
 endfacet
 facet normal  0.000000e+00  0.000000e+00  1.000000e+00
   outer loop
     vertex  1.000000e+02  0.000000e+00  2.000000e+01
     vertex  5.800000e+01  4.000000e+01  2.000000e+01
     vertex  5.787846e+01  3.861081e+01  2.000000e+01
   endloop
 endfacet
 facet normal  0.000000e+00  0.000000e+00  1.000000e+00
   outer loop
     vertex  1.000000e+02  0.000000e+00  2.000000e+01
     vertex  5.787846e+01  3.861081e+01  2.000000e+01
     vertex  5.751754e+01  3.726384e+01  2.000000e+01
   endloop
 endfacet
 facet normal  0.000000e+00  0.000000e+00  1.000000e+00
   outer loop
     vertex  1.000000e+02  0.000000e+00  2.000000e+01
     vertex  5.751754e+01  3.726384e+01  2.000000e+01
     vertex  5.692820e+01  3.600000e+01  2.000000e+01
   endloop
 endfacet
 facet normal  0.000000e+00  0.000000e+00  1.000000e+00
   outer loop
     vertex  1.000000e+02  0.000000e+00  2.000000e+01
     vertex  5.692820e+01  3.600000e+01  2.000000e+01
     vertex  5.612836e+01  3.485770e+01  2.000000e+01
   endloop
 endfacet
 facet normal  0.000000e+00  0.000000e+00  1.000000e+00
   outer loop
     vertex  1.000000e+02  0.000000e+00  2.000000e+01
     vertex  5.612836e+01  3.485770e+01  2.000000e+01
     vertex  5.514230e+01  3.387164e+01  2.000000e+01
   endloop
 endfacet
 facet normal  0.000000e+00  0.000000e+00  1.000000e+00
   outer loop
     vertex  1.000000e+02  0.000000e+00  2.000000e+01
     vertex  5.514230e+01  3.387164e+01  2.000000e+01
     vertex  5.400000e+01  3.307180e+01  2.000000e+01
   endloop
 endfacet
 facet normal  0.000000e+00  0.000000e+00  1.000000e+00
   outer loop
     vertex  1.000000e+02  0.000000e+00  2.000000e+01
     vertex  5.400000e+01  3.307180e+01  2.000000e+01
     vertex  5.273616e+01  3.248246e+01  2.000000e+01
   endloop
 endfacet
 facet normal  0.000000e+00  0.000000e+00  1.000000e+00
   outer loop
     vertex  1.000000e+02  0.000000e+00  2.000000e+01
     vertex  5.273616e+01  3.248246e+01  2.000000e+01
     vertex  5.138919e+01  3.212154e+01  2.000000e+01
   endloop
 endfacet
 facet normal  0.000000e+00  0.000000e+00  1.000000e+00
   outer loop
     vertex  1.000000e+02  0.000000e+00  2.000000e+01
     vertex  5.138919e+01  3.212154e+01  2.000000e+01
     vertex  5.000000e+01  3.200000e+01  2.000000e+01
   endloop
 endfacet
 facet normal  0.000000e+00  0.000000e+00  1.000000e+00
   outer loop
     vertex  1.000000e+02  0.000000e+00  2.000000e+01
     vertex  5.000000e+01  3.200000e+01  2.000000e+01
     vertex  0.000000e+00  0.000000e+00  2.000000e+01
   endloop
 endfacet
 facet normal  0.000000e+00  0.000000e+00  1.000000e+00
   outer loop
     vertex  1.000000e+02  8.000000e+01  2.000000e+01
     vertex  5.787846e+01  4.138919e+01  2.000000e+01
     vertex  5.800000e+01  4.000000e+01  2.000000e+01
   endloop
 endfacet
 facet normal  0.000000e+00  0.000000e+00  1.000000e+00
   outer loop
     vertex  1.000000e+02  8.000000e+01  2.000000e+01
     vertex  5.000000e+01  4.800000e+01  2.000000e+01
     vertex  5.138919e+01  4.787846e+01  2.000000e+01
   endloop
 endfacet
 facet normal  0.000000e+00  0.000000e+00  1.000000e+00
   outer loop
     vertex  1.000000e+02  8.000000e+01  2.000000e+01
     vertex  5.138919e+01  4.787846e+01  2.000000e+01
     vertex  5.273616e+01  4.751754e+01  2.000000e+01
   endloop
 endfacet
 facet normal  0.000000e+00  0.000000e+00  1.000000e+00
   outer loop
     vertex  1.000000e+02  8.000000e+01  2.000000e+01
     vertex  5.273616e+01  4.751754e+01  2.000000e+01
     vertex  5.400000e+01  4.692820e+01  2.000000e+01
   endloop
 endfacet
 facet normal  0.000000e+00  0.000000e+00  1.000000e+00
   outer loop
     vertex  1.000000e+02  8.000000e+01  2.000000e+01
     vertex  5.400000e+01  4.692820e+01  2.000000e+01
     vertex  5.514230e+01  4.612836e+01  2.000000e+01
   endloop
 endfacet
 facet normal  0.000000e+00  0.000000e+00  1.000000e+00
   outer loop
     vertex  1.000000e+02  8.000000e+01  2.000000e+01
     vertex  5.514230e+01  4.612836e+01  2.000000e+01
     vertex  5.612836e+01  4.514230e+01  2.000000e+01
   endloop
 endfacet
 facet normal  0.000000e+00  0.000000e+00  1.000000e+00
   outer loop
     vertex  1.000000e+02  8.000000e+01  2.000000e+01
     vertex  5.612836e+01  4.514230e+01  2.000000e+01
     vertex  5.692820e+01  4.400000e+01  2.000000e+01
   endloop
 endfacet
 facet normal  0.000000e+00  0.000000e+00  1.000000e+00
   outer loop
     vertex  1.000000e+02  8.000000e+01  2.000000e+01
     vertex  5.692820e+01  4.400000e+01  2.000000e+01
     vertex  5.751754e+01  4.273616e+01  2.000000e+01
   endloop
 endfacet
 facet normal  0.000000e+00  0.000000e+00  1.000000e+00
   outer loop
     vertex  1.000000e+02  8.000000e+01  2.000000e+01
     vertex  5.751754e+01  4.273616e+01  2.000000e+01
     vertex  5.787846e+01  4.138919e+01  2.000000e+01
   endloop
 endfacet
 facet normal  0.000000e+00  0.000000e+00  1.000000e+00
   outer loop
     vertex  1.000000e+02  8.000000e+01  2.000000e+01
     vertex  5.800000e+01  4.000000e+01  2.000000e+01
     vertex  1.000000e+02  0.000000e+00  2.000000e+01
   endloop
 endfacet
 facet normal  0.000000e+00  0.000000e+00  1.000000e+00
   outer loop
     vertex  1.000000e+02  8.000000e+01  2.000000e+01
     vertex  0.000000e+00  8.000000e+01  2.000000e+01
     vertex  5.000000e+01  4.800000e+01  2.000000e+01
   endloop
 endfacet
 facet normal  0.000000e+00  1.000000e+00  0.000000e+00
   outer loop
     vertex  1.000000e+02  8.000000e+01  2.000000e+01
     vertex  1.000000e+02  8.000000e+01  0.000000e+00
     vertex  0.000000e+00  8.000000e+01  0.000000e+00
   endloop
 endfacet
 facet normal  0.000000e+00  1.000000e+00  0.000000e+00
   outer loop
     vertex  1.000000e+02  8.000000e+01  2.000000e+01
     vertex  0.000000e+00  8.000000e+01  0.000000e+00
     vertex  0.000000e+00  8.000000e+01  2.000000e+01
   endloop
 endfacet
 facet normal -0.000000e+00  0.000000e+00 -1.000000e+00
   outer loop
     vertex  1.000000e+02  8.000000e+01  0.000000e+00
     vertex  0.000000e+00  0.000000e+00  0.000000e+00
     vertex  0.000000e+00  8.000000e+01  0.000000e+00
   endloop
 endfacet
 facet normal  0.000000e+00 -0.000000e+00 -1.000000e+00
   outer loop
     vertex  1.000000e+02  8.000000e+01  0.000000e+00
     vertex  1.000000e+02  0.000000e+00  0.000000e+00
     vertex  0.000000e+00  0.000000e+00  0.000000e+00
   endloop
 endfacet
 facet normal  1.000000e+00  0.000000e+00  0.000000e+00
   outer loop
     vertex  1.000000e+02  0.000000e+00  2.000000e+01
     vertex  1.000000e+02  0.000000e+00  0.000000e+00
     vertex  1.000000e+02  8.000000e+01  0.000000e+00
   endloop
 endfacet
 facet normal  1.000000e+00 -0.000000e+00  0.000000e+00
   outer loop
     vertex  1.000000e+02  0.000000e+00  2.000000e+01
     vertex  1.000000e+02  8.000000e+01  0.000000e+00
     vertex  1.000000e+02  8.000000e+01  2.000000e+01
   endloop
 endfacet
 facet normal -9.961947e-01 -8.715574e-02  0.000000e+00
   outer loop
     vertex  5.800000e+01  4.000000e+01  2.000000e+01
     vertex  5.787846e+01  4.138919e+01  2.000000e+01
     vertex  5.787846e+01  4.138919e+01  8.000000e+00
   endloop
 endfacet
 facet normal -9.961947e-01 -8.715574e-02 -0.000000e+00
   outer loop
     vertex  5.800000e+01  4.000000e+01  2.000000e+01
     vertex  5.787846e+01  4.138919e+01  8.000000e+00
     vertex  5.800000e+01  4.000000e+01  8.000000e+00
   endloop
 endfacet
 facet normal -9.659258e-01 -2.588190e-01  0.000000e+00
   outer loop
     vertex  5.787846e+01  4.138919e+01  2.000000e+01
     vertex  5.751754e+01  4.273616e+01  2.000000e+01
     vertex  5.751754e+01  4.273616e+01  8.000000e+00
   endloop
 endfacet
 facet normal -9.659258e-01 -2.588190e-01 -0.000000e+00
   outer loop
     vertex  5.787846e+01  4.138919e+01  2.000000e+01
     vertex  5.751754e+01  4.273616e+01  8.000000e+00
     vertex  5.787846e+01  4.138919e+01  8.000000e+00
   endloop
 endfacet
 facet normal -9.063078e-01 -4.226183e-01  0.000000e+00
   outer loop
     vertex  5.751754e+01  4.273616e+01  2.000000e+01
     vertex  5.692820e+01  4.400000e+01  2.000000e+01
     vertex  5.692820e+01  4.400000e+01  8.000000e+00
   endloop
 endfacet
 facet normal -9.063078e-01 -4.226183e-01 -0.000000e+00
   outer loop
     vertex  5.751754e+01  4.273616e+01  2.000000e+01
     vertex  5.692820e+01  4.400000e+01  8.000000e+00
     vertex  5.751754e+01  4.273616e+01  8.000000e+00
   endloop
 endfacet
 facet normal -8.191520e-01 -5.735764e-01  0.000000e+00
   outer loop
     vertex  5.692820e+01  4.400000e+01  2.000000e+01
     vertex  5.612836e+01  4.514230e+01  2.000000e+01
     vertex  5.612836e+01  4.514230e+01  8.000000e+00
   endloop
 endfacet
 facet normal -8.191520e-01 -5.735764e-01 -0.000000e+00
   outer loop
     vertex  5.692820e+01  4.400000e+01  2.000000e+01
     vertex  5.612836e+01  4.514230e+01  8.000000e+00
     vertex  5.692820e+01  4.400000e+01  8.000000e+00
   endloop
 endfacet
 facet normal -7.071068e-01 -7.071068e-01  0.000000e+00
   outer loop
     vertex  5.612836e+01  4.514230e+01  2.000000e+01
     vertex  5.514230e+01  4.612836e+01  2.000000e+01
     vertex  5.514230e+01  4.612836e+01  8.000000e+00
   endloop
 endfacet
 facet normal -7.071068e-01 -7.071068e-01 -0.000000e+00
   outer loop
     vertex  5.612836e+01  4.514230e+01  2.000000e+01
     vertex  5.514230e+01  4.612836e+01  8.000000e+00
     vertex  5.612836e+01  4.514230e+01  8.000000e+00
   endloop
 endfacet
 facet normal -5.735764e-01 -8.191520e-01  0.000000e+00
   outer loop
     vertex  5.514230e+01  4.612836e+01  2.000000e+01
     vertex  5.400000e+01  4.692820e+01  2.000000e+01
     vertex  5.400000e+01  4.692820e+01  8.000000e+00
   endloop
 endfacet
 facet normal -5.735764e-01 -8.191520e-01 -0.000000e+00
   outer loop
     vertex  5.514230e+01  4.612836e+01  2.000000e+01
     vertex  5.400000e+01  4.692820e+01  8.000000e+00
     vertex  5.514230e+01  4.612836e+01  8.000000e+00
   endloop
 endfacet
 facet normal -4.226183e-01 -9.063078e-01  0.000000e+00
   outer loop
     vertex  5.400000e+01  4.692820e+01  2.000000e+01
     vertex  5.273616e+01  4.751754e+01  2.000000e+01
     vertex  5.273616e+01  4.751754e+01  8.000000e+00
   endloop
 endfacet
 facet normal -4.226183e-01 -9.063078e-01 -0.000000e+00
   outer loop
     vertex  5.400000e+01  4.692820e+01  2.000000e+01
     vertex  5.273616e+01  4.751754e+01  8.000000e+00
     vertex  5.400000e+01  4.692820e+01  8.000000e+00
   endloop
 endfacet
 facet normal -2.588190e-01 -9.659258e-01  0.000000e+00
   outer loop
     vertex  5.273616e+01  4.751754e+01  2.000000e+01
     vertex  5.138919e+01  4.787846e+01  2.000000e+01
     vertex  5.138919e+01  4.787846e+01  8.000000e+00
   endloop
 endfacet
 facet normal -2.588190e-01 -9.659258e-01 -0.000000e+00
   outer loop
     vertex  5.273616e+01  4.751754e+01  2.000000e+01
     vertex  5.138919e+01  4.787846e+01  8.000000e+00
     vertex  5.273616e+01  4.751754e+01  8.000000e+00
   endloop
 endfacet
 facet normal -8.715574e-02 -9.961947e-01  0.000000e+00
   outer loop
     vertex  5.138919e+01  4.787846e+01  2.000000e+01
     vertex  5.000000e+01  4.800000e+01  2.000000e+01
     vertex  5.000000e+01  4.800000e+01  8.000000e+00
   endloop
 endfacet
 facet normal -8.715574e-02 -9.961947e-01 -0.000000e+00
   outer loop
     vertex  5.138919e+01  4.787846e+01  2.000000e+01
     vertex  5.000000e+01  4.800000e+01  8.000000e+00
     vertex  5.138919e+01  4.787846e+01  8.000000e+00
   endloop
 endfacet
 facet normal  8.715574e-02 -9.961947e-01  0.000000e+00
   outer loop
     vertex  5.000000e+01  4.800000e+01  2.000000e+01
     vertex  4.861081e+01  4.787846e+01  2.000000e+01
     vertex  4.861081e+01  4.787846e+01  8.000000e+00
   endloop
 endfacet
 facet normal  8.715574e-02 -9.961947e-01  0.000000e+00
   outer loop
     vertex  5.000000e+01  4.800000e+01  2.000000e+01
     vertex  4.861081e+01  4.787846e+01  8.000000e+00
     vertex  5.000000e+01  4.800000e+01  8.000000e+00
   endloop
 endfacet
 facet normal  2.588190e-01 -9.659258e-01  0.000000e+00
   outer loop
     vertex  4.861081e+01  4.787846e+01  2.000000e+01
     vertex  4.726384e+01  4.751754e+01  2.000000e+01
     vertex  4.726384e+01  4.751754e+01  8.000000e+00
   endloop
 endfacet
 facet normal  2.588190e-01 -9.659258e-01  0.000000e+00
   outer loop
     vertex  4.861081e+01  4.787846e+01  2.000000e+01
     vertex  4.726384e+01  4.751754e+01  8.000000e+00
     vertex  4.861081e+01  4.787846e+01  8.000000e+00
   endloop
 endfacet
 facet normal  4.226183e-01 -9.063078e-01  0.000000e+00
   outer loop
     vertex  4.726384e+01  4.751754e+01  2.000000e+01
     vertex  4.600000e+01  4.692820e+01  2.000000e+01
     vertex  4.600000e+01  4.692820e+01  8.000000e+00
   endloop
 endfacet
 facet normal  4.226183e-01 -9.063078e-01  0.000000e+00
   outer loop
     vertex  4.726384e+01  4.751754e+01  2.000000e+01
     vertex  4.600000e+01  4.692820e+01  8.000000e+00
     vertex  4.726384e+01  4.751754e+01  8.000000e+00
   endloop
 endfacet
 facet normal  5.735764e-01 -8.191520e-01  0.000000e+00
   outer loop
     vertex  4.600000e+01  4.692820e+01  2.000000e+01
     vertex  4.485770e+01  4.612836e+01  2.000000e+01
     vertex  4.485770e+01  4.612836e+01  8.000000e+00
   endloop
 endfacet
 facet normal  5.735764e-01 -8.191520e-01  0.000000e+00
   outer loop
     vertex  4.600000e+01  4.692820e+01  2.000000e+01
     vertex  4.485770e+01  4.612836e+01  8.000000e+00
     vertex  4.600000e+01  4.692820e+01  8.000000e+00
   endloop
 endfacet
 facet normal  7.071068e-01 -7.071068e-01  0.000000e+00
   outer loop
     vertex  4.485770e+01  4.612836e+01  2.000000e+01
     vertex  4.387164e+01  4.514230e+01  2.000000e+01
     vertex  4.387164e+01  4.514230e+01  8.000000e+00
   endloop
 endfacet
 facet normal  7.071068e-01 -7.071068e-01  0.000000e+00
   outer loop
     vertex  4.485770e+01  4.612836e+01  2.000000e+01
     vertex  4.387164e+01  4.514230e+01  8.000000e+00
     vertex  4.485770e+01  4.612836e+01  8.000000e+00
   endloop
 endfacet
 facet normal  8.191520e-01 -5.735764e-01  0.000000e+00
   outer loop
     vertex  4.387164e+01  4.514230e+01  2.000000e+01
     vertex  4.307180e+01  4.400000e+01  2.000000e+01
     vertex  4.307180e+01  4.400000e+01  8.000000e+00
   endloop
 endfacet
 facet normal  8.191520e-01 -5.735764e-01  0.000000e+00
   outer loop
     vertex  4.387164e+01  4.514230e+01  2.000000e+01
     vertex  4.307180e+01  4.400000e+01  8.000000e+00
     vertex  4.387164e+01  4.514230e+01  8.000000e+00
   endloop
 endfacet
 facet normal  9.063078e-01 -4.226183e-01  0.000000e+00
   outer loop
     vertex  4.307180e+01  4.400000e+01  2.000000e+01
     vertex  4.248246e+01  4.273616e+01  2.000000e+01
     vertex  4.248246e+01  4.273616e+01  8.000000e+00
   endloop
 endfacet
 facet normal  9.063078e-01 -4.226183e-01  0.000000e+00
   outer loop
     vertex  4.307180e+01  4.400000e+01  2.000000e+01
     vertex  4.248246e+01  4.273616e+01  8.000000e+00
     vertex  4.307180e+01  4.400000e+01  8.000000e+00
   endloop
 endfacet
 facet normal  9.659258e-01 -2.588190e-01  0.000000e+00
   outer loop
     vertex  4.248246e+01  4.273616e+01  2.000000e+01
     vertex  4.212154e+01  4.138919e+01  2.000000e+01
     vertex  4.212154e+01  4.138919e+01  8.000000e+00
   endloop
 endfacet
 facet normal  9.659258e-01 -2.588190e-01  0.000000e+00
   outer loop
     vertex  4.248246e+01  4.273616e+01  2.000000e+01
     vertex  4.212154e+01  4.138919e+01  8.000000e+00
     vertex  4.248246e+01  4.273616e+01  8.000000e+00
   endloop
 endfacet
 facet normal  9.961947e-01 -8.715574e-02  0.000000e+00
   outer loop
     vertex  4.212154e+01  4.138919e+01  2.000000e+01
     vertex  4.200000e+01  4.000000e+01  2.000000e+01
     vertex  4.200000e+01  4.000000e+01  8.000000e+00
   endloop
 endfacet
 facet normal  9.961947e-01 -8.715574e-02  0.000000e+00
   outer loop
     vertex  4.212154e+01  4.138919e+01  2.000000e+01
     vertex  4.200000e+01  4.000000e+01  8.000000e+00
     vertex  4.212154e+01  4.138919e+01  8.000000e+00
   endloop
 endfacet
 facet normal  9.961947e-01  8.715574e-02  0.000000e+00
   outer loop
     vertex  4.200000e+01  4.000000e+01  2.000000e+01
     vertex  4.212154e+01  3.861081e+01  2.000000e+01
     vertex  4.212154e+01  3.861081e+01  8.000000e+00
   endloop
 endfacet
 facet normal  9.961947e-01  8.715574e-02  0.000000e+00
   outer loop
     vertex  4.200000e+01  4.000000e+01  2.000000e+01
     vertex  4.212154e+01  3.861081e+01  8.000000e+00
     vertex  4.200000e+01  4.000000e+01  8.000000e+00
   endloop
 endfacet
 facet normal  9.659258e-01  2.588190e-01  0.000000e+00
   outer loop
     vertex  4.212154e+01  3.861081e+01  2.000000e+01
     vertex  4.248246e+01  3.726384e+01  2.000000e+01
     vertex  4.248246e+01  3.726384e+01  8.000000e+00
   endloop
 endfacet
 facet normal  9.659258e-01  2.588190e-01  0.000000e+00
   outer loop
     vertex  4.212154e+01  3.861081e+01  2.000000e+01
     vertex  4.248246e+01  3.726384e+01  8.000000e+00
     vertex  4.212154e+01  3.861081e+01  8.000000e+00
   endloop
 endfacet
 facet normal  9.063078e-01  4.226183e-01  0.000000e+00
   outer loop
     vertex  4.248246e+01  3.726384e+01  2.000000e+01
     vertex  4.307180e+01  3.600000e+01  2.000000e+01
     vertex  4.307180e+01  3.600000e+01  8.000000e+00
   endloop
 endfacet
 facet normal  9.063078e-01  4.226183e-01  0.000000e+00
   outer loop
     vertex  4.248246e+01  3.726384e+01  2.000000e+01
     vertex  4.307180e+01  3.600000e+01  8.000000e+00
     vertex  4.248246e+01  3.726384e+01  8.000000e+00
   endloop
 endfacet
 facet normal  8.191520e-01  5.735764e-01  0.000000e+00
   outer loop
     vertex  4.307180e+01  3.600000e+01  2.000000e+01
     vertex  4.387164e+01  3.485770e+01  2.000000e+01
     vertex  4.387164e+01  3.485770e+01  8.000000e+00
   endloop
 endfacet
 facet normal  8.191520e-01  5.735764e-01  0.000000e+00
   outer loop
     vertex  4.307180e+01  3.600000e+01  2.000000e+01
     vertex  4.387164e+01  3.485770e+01  8.000000e+00
     vertex  4.307180e+01  3.600000e+01  8.000000e+00
   endloop
 endfacet
 facet normal  7.071068e-01  7.071068e-01  0.000000e+00
   outer loop
     vertex  4.387164e+01  3.485770e+01  2.000000e+01
     vertex  4.485770e+01  3.387164e+01  2.000000e+01
     vertex  4.485770e+01  3.387164e+01  8.000000e+00
   endloop
 endfacet
 facet normal  7.071068e-01  7.071068e-01  0.000000e+00
   outer loop
     vertex  4.387164e+01  3.485770e+01  2.000000e+01
     vertex  4.485770e+01  3.387164e+01  8.000000e+00
     vertex  4.387164e+01  3.485770e+01  8.000000e+00
   endloop
 endfacet
 facet normal  5.735764e-01  8.191520e-01  0.000000e+00
   outer loop
     vertex  4.485770e+01  3.387164e+01  2.000000e+01
     vertex  4.600000e+01  3.307180e+01  2.000000e+01
     vertex  4.600000e+01  3.307180e+01  8.000000e+00
   endloop
 endfacet
 facet normal  5.735764e-01  8.191520e-01  0.000000e+00
   outer loop
     vertex  4.485770e+01  3.387164e+01  2.000000e+01
     vertex  4.600000e+01  3.307180e+01  8.000000e+00
     vertex  4.485770e+01  3.387164e+01  8.000000e+00
   endloop
 endfacet
 facet normal  4.226183e-01  9.063078e-01  0.000000e+00
   outer loop
     vertex  4.600000e+01  3.307180e+01  2.000000e+01
     vertex  4.726384e+01  3.248246e+01  2.000000e+01
     vertex  4.726384e+01  3.248246e+01  8.000000e+00
   endloop
 endfacet
 facet normal  4.226183e-01  9.063078e-01  0.000000e+00
   outer loop
     vertex  4.600000e+01  3.307180e+01  2.000000e+01
     vertex  4.726384e+01  3.248246e+01  8.000000e+00
     vertex  4.600000e+01  3.307180e+01  8.000000e+00
   endloop
 endfacet
 facet normal  2.588190e-01  9.659258e-01  0.000000e+00
   outer loop
     vertex  4.726384e+01  3.248246e+01  2.000000e+01
     vertex  4.861081e+01  3.212154e+01  2.000000e+01
     vertex  4.861081e+01  3.212154e+01  8.000000e+00
   endloop
 endfacet
 facet normal  2.588190e-01  9.659258e-01  0.000000e+00
   outer loop
     vertex  4.726384e+01  3.248246e+01  2.000000e+01
     vertex  4.861081e+01  3.212154e+01  8.000000e+00
     vertex  4.726384e+01  3.248246e+01  8.000000e+00
   endloop
 endfacet
 facet normal  8.715574e-02  9.961947e-01  0.000000e+00
   outer loop
     vertex  4.861081e+01  3.212154e+01  2.000000e+01
     vertex  5.000000e+01  3.200000e+01  2.000000e+01
     vertex  5.000000e+01  3.200000e+01  8.000000e+00
   endloop
 endfacet
 facet normal  8.715574e-02  9.961947e-01  0.000000e+00
   outer loop
     vertex  4.861081e+01  3.212154e+01  2.000000e+01
     vertex  5.000000e+01  3.200000e+01  8.000000e+00
     vertex  4.861081e+01  3.212154e+01  8.000000e+00
   endloop
 endfacet
 facet normal -8.715574e-02  9.961947e-01  0.000000e+00
   outer loop
     vertex  5.000000e+01  3.200000e+01  2.000000e+01
     vertex  5.138919e+01  3.212154e+01  2.000000e+01
     vertex  5.138919e+01  3.212154e+01  8.000000e+00
   endloop
 endfacet
 facet normal -8.715574e-02  9.961947e-01  0.000000e+00
   outer loop
     vertex  5.000000e+01  3.200000e+01  2.000000e+01
     vertex  5.138919e+01  3.212154e+01  8.000000e+00
     vertex  5.000000e+01  3.200000e+01  8.000000e+00
   endloop
 endfacet
 facet normal -2.588190e-01  9.659258e-01  0.000000e+00
   outer loop
     vertex  5.138919e+01  3.212154e+01  2.000000e+01
     vertex  5.273616e+01  3.248246e+01  2.000000e+01
     vertex  5.273616e+01  3.248246e+01  8.000000e+00
   endloop
 endfacet
 facet normal -2.588190e-01  9.659258e-01  0.000000e+00
   outer loop
     vertex  5.138919e+01  3.212154e+01  2.000000e+01
     vertex  5.273616e+01  3.248246e+01  8.000000e+00
     vertex  5.138919e+01  3.212154e+01  8.000000e+00
   endloop
 endfacet
 facet normal -4.226183e-01  9.063078e-01  0.000000e+00
   outer loop
     vertex  5.273616e+01  3.248246e+01  2.000000e+01
     vertex  5.400000e+01  3.307180e+01  2.000000e+01
     vertex  5.400000e+01  3.307180e+01  8.000000e+00
   endloop
 endfacet
 facet normal -4.226183e-01  9.063078e-01  0.000000e+00
   outer loop
     vertex  5.273616e+01  3.248246e+01  2.000000e+01
     vertex  5.400000e+01  3.307180e+01  8.000000e+00
     vertex  5.273616e+01  3.248246e+01  8.000000e+00
   endloop
 endfacet
 facet normal -5.735764e-01  8.191520e-01  0.000000e+00
   outer loop
     vertex  5.400000e+01  3.307180e+01  2.000000e+01
     vertex  5.514230e+01  3.387164e+01  2.000000e+01
     vertex  5.514230e+01  3.387164e+01  8.000000e+00
   endloop
 endfacet
 facet normal -5.735764e-01  8.191520e-01  0.000000e+00
   outer loop
     vertex  5.400000e+01  3.307180e+01  2.000000e+01
     vertex  5.514230e+01  3.387164e+01  8.000000e+00
     vertex  5.400000e+01  3.307180e+01  8.000000e+00
   endloop
 endfacet
 facet normal -7.071068e-01  7.071068e-01  0.000000e+00
   outer loop
     vertex  5.514230e+01  3.387164e+01  2.000000e+01
     vertex  5.612836e+01  3.485770e+01  2.000000e+01
     vertex  5.612836e+01  3.485770e+01  8.000000e+00
   endloop
 endfacet
 facet normal -7.071068e-01  7.071068e-01  0.000000e+00
   outer loop
     vertex  5.514230e+01  3.387164e+01  2.000000e+01
     vertex  5.612836e+01  3.485770e+01  8.000000e+00
     vertex  5.514230e+01  3.387164e+01  8.000000e+00
   endloop
 endfacet
 facet normal -8.191520e-01  5.735764e-01  0.000000e+00
   outer loop
     vertex  5.612836e+01  3.485770e+01  2.000000e+01
     vertex  5.692820e+01  3.600000e+01  2.000000e+01
     vertex  5.692820e+01  3.600000e+01  8.000000e+00
   endloop
 endfacet
 facet normal -8.191520e-01  5.735764e-01  0.000000e+00
   outer loop
     vertex  5.612836e+01  3.485770e+01  2.000000e+01
     vertex  5.692820e+01  3.600000e+01  8.000000e+00
     vertex  5.612836e+01  3.485770e+01  8.000000e+00
   endloop
 endfacet
 facet normal -9.063078e-01  4.226183e-01  0.000000e+00
   outer loop
     vertex  5.692820e+01  3.600000e+01  2.000000e+01
     vertex  5.751754e+01  3.726384e+01  2.000000e+01
     vertex  5.751754e+01  3.726384e+01  8.000000e+00
   endloop
 endfacet
 facet normal -9.063078e-01  4.226183e-01  0.000000e+00
   outer loop
     vertex  5.692820e+01  3.600000e+01  2.000000e+01
     vertex  5.751754e+01  3.726384e+01  8.000000e+00
     vertex  5.692820e+01  3.600000e+01  8.000000e+00
   endloop
 endfacet
 facet normal -9.659258e-01  2.588190e-01  0.000000e+00
   outer loop
     vertex  5.751754e+01  3.726384e+01  2.000000e+01
     vertex  5.787846e+01  3.861081e+01  2.000000e+01
     vertex  5.787846e+01  3.861081e+01  8.000000e+00
   endloop
 endfacet
 facet normal -9.659258e-01  2.588190e-01  0.000000e+00
   outer loop
     vertex  5.751754e+01  3.726384e+01  2.000000e+01
     vertex  5.787846e+01  3.861081e+01  8.000000e+00
     vertex  5.751754e+01  3.726384e+01  8.000000e+00
   endloop
 endfacet
 facet normal -9.961947e-01  8.715574e-02  0.000000e+00
   outer loop
     vertex  5.787846e+01  3.861081e+01  2.000000e+01
     vertex  5.800000e+01  4.000000e+01  2.000000e+01
     vertex  5.800000e+01  4.000000e+01  8.000000e+00
   endloop
 endfacet
 facet normal -9.961947e-01  8.715574e-02  0.000000e+00
   outer loop
     vertex  5.787846e+01  3.861081e+01  2.000000e+01
     vertex  5.800000e+01  4.000000e+01  8.000000e+00
     vertex  5.787846e+01  3.861081e+01  8.000000e+00
   endloop
 endfacet
 facet normal  0.000000e+00  0.000000e+00  1.000000e+00
   outer loop
     vertex  5.692820e+01  3.600000e+01  8.000000e+00
     vertex  5.514230e+01  3.387164e+01  8.000000e+00
     vertex  5.612836e+01  3.485770e+01  8.000000e+00
   endloop
 endfacet
 facet normal  0.000000e+00  0.000000e+00  1.000000e+00
   outer loop
     vertex  5.692820e+01  3.600000e+01  8.000000e+00
     vertex  5.400000e+01  3.307180e+01  8.000000e+00
     vertex  5.514230e+01  3.387164e+01  8.000000e+00
   endloop
 endfacet
 facet normal  0.000000e+00  0.000000e+00  1.000000e+00
   outer loop
     vertex  5.273616e+01  3.248246e+01  8.000000e+00
     vertex  5.400000e+01  3.307180e+01  8.000000e+00
     vertex  5.692820e+01  3.600000e+01  8.000000e+00
   endloop
 endfacet
 facet normal  0.000000e+00  0.000000e+00  1.000000e+00
   outer loop
     vertex  5.787846e+01  3.861081e+01  8.000000e+00
     vertex  5.692820e+01  3.600000e+01  8.000000e+00
     vertex  5.751754e+01  3.726384e+01  8.000000e+00
   endloop
 endfacet
 facet normal  0.000000e+00  0.000000e+00  1.000000e+00
   outer loop
     vertex  5.000000e+01  3.200000e+01  8.000000e+00
     vertex  5.138919e+01  3.212154e+01  8.000000e+00
     vertex  5.273616e+01  3.248246e+01  8.000000e+00
   endloop
 endfacet
 facet normal  0.000000e+00  0.000000e+00  1.000000e+00
   outer loop
     vertex  5.800000e+01  4.000000e+01  8.000000e+00
     vertex  5.692820e+01  3.600000e+01  8.000000e+00
     vertex  5.787846e+01  3.861081e+01  8.000000e+00
   endloop
 endfacet
 facet normal  0.000000e+00  0.000000e+00  1.000000e+00
   outer loop
     vertex  4.600000e+01  3.307180e+01  8.000000e+00
     vertex  4.861081e+01  3.212154e+01  8.000000e+00
     vertex  5.000000e+01  3.200000e+01  8.000000e+00
   endloop
 endfacet
 facet normal  0.000000e+00  0.000000e+00  1.000000e+00
   outer loop
     vertex  4.600000e+01  3.307180e+01  8.000000e+00
     vertex  4.726384e+01  3.248246e+01  8.000000e+00
     vertex  4.861081e+01  3.212154e+01  8.000000e+00
   endloop
 endfacet
 facet normal  0.000000e+00  0.000000e+00  1.000000e+00
   outer loop
     vertex  4.600000e+01  3.307180e+01  8.000000e+00
     vertex  5.000000e+01  3.200000e+01  8.000000e+00
     vertex  5.273616e+01  3.248246e+01  8.000000e+00
   endloop
 endfacet
 facet normal  0.000000e+00  0.000000e+00  1.000000e+00
   outer loop
     vertex  5.514230e+01  4.612836e+01  8.000000e+00
     vertex  5.692820e+01  4.400000e+01  8.000000e+00
     vertex  5.612836e+01  4.514230e+01  8.000000e+00
   endloop
 endfacet
 facet normal  0.000000e+00  0.000000e+00  1.000000e+00
   outer loop
     vertex  5.514230e+01  4.612836e+01  8.000000e+00
     vertex  5.751754e+01  4.273616e+01  8.000000e+00
     vertex  5.692820e+01  4.400000e+01  8.000000e+00
   endloop
 endfacet
 facet normal  0.000000e+00  0.000000e+00  1.000000e+00
   outer loop
     vertex  4.307180e+01  3.600000e+01  8.000000e+00
     vertex  4.485770e+01  3.387164e+01  8.000000e+00
     vertex  4.600000e+01  3.307180e+01  8.000000e+00
   endloop
 endfacet
 facet normal  0.000000e+00  0.000000e+00  1.000000e+00
   outer loop
     vertex  4.307180e+01  3.600000e+01  8.000000e+00
     vertex  4.387164e+01  3.485770e+01  8.000000e+00
     vertex  4.485770e+01  3.387164e+01  8.000000e+00
   endloop
 endfacet
 facet normal  0.000000e+00  0.000000e+00  1.000000e+00
   outer loop
     vertex  4.307180e+01  3.600000e+01  8.000000e+00
     vertex  4.600000e+01  3.307180e+01  8.000000e+00
     vertex  5.273616e+01  3.248246e+01  8.000000e+00
   endloop
 endfacet
 facet normal  0.000000e+00  0.000000e+00  1.000000e+00
   outer loop
     vertex  5.400000e+01  4.692820e+01  8.000000e+00
     vertex  5.787846e+01  4.138919e+01  8.000000e+00
     vertex  5.751754e+01  4.273616e+01  8.000000e+00
   endloop
 endfacet
 facet normal  0.000000e+00  0.000000e+00  1.000000e+00
   outer loop
     vertex  5.400000e+01  4.692820e+01  8.000000e+00
     vertex  5.800000e+01  4.000000e+01  8.000000e+00
     vertex  5.787846e+01  4.138919e+01  8.000000e+00
   endloop
 endfacet
 facet normal  0.000000e+00  0.000000e+00  1.000000e+00
   outer loop
     vertex  5.400000e+01  4.692820e+01  8.000000e+00
     vertex  5.692820e+01  3.600000e+01  8.000000e+00
     vertex  5.800000e+01  4.000000e+01  8.000000e+00
   endloop
 endfacet
 facet normal  0.000000e+00  0.000000e+00  1.000000e+00
   outer loop
     vertex  5.400000e+01  4.692820e+01  8.000000e+00
     vertex  5.751754e+01  4.273616e+01  8.000000e+00
     vertex  5.514230e+01  4.612836e+01  8.000000e+00
   endloop
 endfacet
 facet normal  0.000000e+00  0.000000e+00  1.000000e+00
   outer loop
     vertex  4.248246e+01  3.726384e+01  8.000000e+00
     vertex  4.307180e+01  3.600000e+01  8.000000e+00
     vertex  5.273616e+01  3.248246e+01  8.000000e+00
   endloop
 endfacet
 facet normal  0.000000e+00  0.000000e+00  1.000000e+00
   outer loop
     vertex  5.138919e+01  4.787846e+01  8.000000e+00
     vertex  5.400000e+01  4.692820e+01  8.000000e+00
     vertex  5.273616e+01  4.751754e+01  8.000000e+00
   endloop
 endfacet
 facet normal  0.000000e+00  0.000000e+00  1.000000e+00
   outer loop
     vertex  4.212154e+01  4.138919e+01  8.000000e+00
     vertex  4.212154e+01  3.861081e+01  8.000000e+00
     vertex  4.248246e+01  3.726384e+01  8.000000e+00
   endloop
 endfacet
 facet normal  0.000000e+00  0.000000e+00  1.000000e+00
   outer loop
     vertex  4.212154e+01  4.138919e+01  8.000000e+00
     vertex  4.200000e+01  4.000000e+01  8.000000e+00
     vertex  4.212154e+01  3.861081e+01  8.000000e+00
   endloop
 endfacet
 facet normal  0.000000e+00  0.000000e+00  1.000000e+00
   outer loop
     vertex  4.600000e+01  4.692820e+01  8.000000e+00
     vertex  4.861081e+01  4.787846e+01  8.000000e+00
     vertex  4.726384e+01  4.751754e+01  8.000000e+00
   endloop
 endfacet
 facet normal  0.000000e+00  0.000000e+00  1.000000e+00
   outer loop
     vertex  4.600000e+01  4.692820e+01  8.000000e+00
     vertex  5.000000e+01  4.800000e+01  8.000000e+00
     vertex  4.861081e+01  4.787846e+01  8.000000e+00
   endloop
 endfacet
 facet normal  0.000000e+00  0.000000e+00  1.000000e+00
   outer loop
     vertex  4.600000e+01  4.692820e+01  8.000000e+00
     vertex  5.138919e+01  4.787846e+01  8.000000e+00
     vertex  5.000000e+01  4.800000e+01  8.000000e+00
   endloop
 endfacet
 facet normal  0.000000e+00  0.000000e+00  1.000000e+00
   outer loop
     vertex  4.600000e+01  4.692820e+01  8.000000e+00
     vertex  5.273616e+01  3.248246e+01  8.000000e+00
     vertex  5.692820e+01  3.600000e+01  8.000000e+00
   endloop
 endfacet
 facet normal -0.000000e+00  0.000000e+00  1.000000e+00
   outer loop
     vertex  4.600000e+01  4.692820e+01  8.000000e+00
     vertex  5.692820e+01  3.600000e+01  8.000000e+00
     vertex  5.400000e+01  4.692820e+01  8.000000e+00
   endloop
 endfacet
 facet normal  0.000000e+00  0.000000e+00  1.000000e+00
   outer loop
     vertex  4.600000e+01  4.692820e+01  8.000000e+00
     vertex  4.212154e+01  4.138919e+01  8.000000e+00
     vertex  4.248246e+01  3.726384e+01  8.000000e+00
   endloop
 endfacet
 facet normal  0.000000e+00  0.000000e+00  1.000000e+00
   outer loop
     vertex  4.600000e+01  4.692820e+01  8.000000e+00
     vertex  4.248246e+01  3.726384e+01  8.000000e+00
     vertex  5.273616e+01  3.248246e+01  8.000000e+00
   endloop
 endfacet
 facet normal  0.000000e+00  0.000000e+00  1.000000e+00
   outer loop
     vertex  4.600000e+01  4.692820e+01  8.000000e+00
     vertex  5.400000e+01  4.692820e+01  8.000000e+00
     vertex  5.138919e+01  4.787846e+01  8.000000e+00
   endloop
 endfacet
 facet normal  0.000000e+00  0.000000e+00  1.000000e+00
   outer loop
     vertex  4.387164e+01  4.514230e+01  8.000000e+00
     vertex  4.248246e+01  4.273616e+01  8.000000e+00
     vertex  4.212154e+01  4.138919e+01  8.000000e+00
   endloop
 endfacet
 facet normal  0.000000e+00  0.000000e+00  1.000000e+00
   outer loop
     vertex  4.387164e+01  4.514230e+01  8.000000e+00
     vertex  4.307180e+01  4.400000e+01  8.000000e+00
     vertex  4.248246e+01  4.273616e+01  8.000000e+00
   endloop
 endfacet
 facet normal -0.000000e+00  0.000000e+00  1.000000e+00
   outer loop
     vertex  4.485770e+01  4.612836e+01  8.000000e+00
     vertex  4.212154e+01  4.138919e+01  8.000000e+00
     vertex  4.600000e+01  4.692820e+01  8.000000e+00
   endloop
 endfacet
 facet normal  0.000000e+00  0.000000e+00  1.000000e+00
   outer loop
     vertex  4.485770e+01  4.612836e+01  8.000000e+00
     vertex  4.387164e+01  4.514230e+01  8.000000e+00
     vertex  4.212154e+01  4.138919e+01  8.000000e+00
   endloop
 endfacet
endsolid
