solid 
 facet normal -1.000000e+00  0.000000e+00  0.000000e+00
   outer loop
     vertex  0.000000e+00  0.000000e+00  2.000000e+01
     vertex  0.000000e+00  8.000000e+01  0.000000e+00
     vertex  0.000000e+00  0.000000e+00  0.000000e+00
   endloop
 endfacet
 facet normal -1.000000e+00  0.000000e+00  0.000000e+00
   outer loop
     vertex  0.000000e+00  0.000000e+00  2.000000e+01
     vertex  0.000000e+00  8.000000e+01  2.000000e+01
     vertex  0.000000e+00  8.000000e+01  0.000000e+00
   endloop
 endfacet
 facet normal  0.000000e+00 -1.000000e+00 -0.000000e+00
   outer loop
     vertex  1.000000e+02  0.000000e+00  2.000000e+01
     vertex  0.000000e+00  0.000000e+00  0.000000e+00
     vertex  1.000000e+02  0.000000e+00  0.000000e+00
   endloop
 endfacet
 facet normal -0.000000e+00 -1.000000e+00  0.000000e+00
   outer loop
     vertex  1.000000e+02  0.000000e+00  2.000000e+01
     vertex  0.000000e+00  0.000000e+00  2.000000e+01
     vertex  0.000000e+00  0.000000e+00  0.000000e+00
   endloop
 endfacet
 facet normal  0.000000e+00  0.000000e+00  1.000000e+00
   outer loop
     vertex  2.178606e+01  3.116978e+01  2.000000e+01
     vertex  2.116978e+01  3.178606e+01  2.000000e+01
     vertex  0.000000e+00  0.000000e+00  2.000000e+01
   endloop
 endfacet
 facet normal  0.000000e+00  0.000000e+00  1.000000e+00
   outer loop
     vertex  2.066987e+01  3.250000e+01  2.000000e+01
     vertex  0.000000e+00  0.000000e+00  2.000000e+01
     vertex  2.116978e+01  3.178606e+01  2.000000e+01
   endloop
 endfacet
 facet normal  0.000000e+00  0.000000e+00  1.000000e+00
   outer loop
     vertex  2.250000e+01  3.066987e+01  2.000000e+01
     vertex  2.178606e+01  3.116978e+01  2.000000e+01
     vertex  0.000000e+00  0.000000e+00  2.000000e+01
   endloop
 endfacet
 facet normal  0.000000e+00  0.000000e+00  1.000000e+00
   outer loop
     vertex  2.328990e+01  3.030154e+01  2.000000e+01
     vertex  2.250000e+01  3.066987e+01  2.000000e+01
     vertex  0.000000e+00  0.000000e+00  2.000000e+01
   endloop
 endfacet
 facet normal  0.000000e+00  0.000000e+00  1.000000e+00
   outer loop
     vertex  2.030154e+01  3.328990e+01  2.000000e+01
     vertex  0.000000e+00  0.000000e+00  2.000000e+01
     vertex  2.066987e+01  3.250000e+01  2.000000e+01
   endloop
 endfacet
 facet normal  0.000000e+00  0.000000e+00  1.000000e+00
   outer loop
     vertex  2.007596e+01  3.413176e+01  2.000000e+01
     vertex  0.000000e+00  0.000000e+00  2.000000e+01
     vertex  2.030154e+01  3.328990e+01  2.000000e+01
   endloop
 endfacet
 facet normal  0.000000e+00  0.000000e+00  1.000000e+00
   outer loop
     vertex  2.413176e+01  3.007596e+01  2.000000e+01
     vertex  2.328990e+01  3.030154e+01  2.000000e+01
     vertex  0.000000e+00  0.000000e+00  2.000000e+01
   endloop
 endfacet
 facet normal  0.000000e+00  0.000000e+00  1.000000e+00
   outer loop
     vertex  2.500000e+01  3.000000e+01  2.000000e+01
     vertex  2.413176e+01  3.007596e+01  2.000000e+01
     vertex  0.000000e+00  0.000000e+00  2.000000e+01
   endloop
 endfacet
 facet normal  0.000000e+00  0.000000e+00  1.000000e+00
   outer loop
     vertex  2.000000e+01  3.500000e+01  2.000000e+01
     vertex  0.000000e+00  0.000000e+00  2.000000e+01
     vertex  2.007596e+01  3.413176e+01  2.000000e+01
   endloop
 endfacet
 facet normal  0.000000e+00  0.000000e+00  1.000000e+00
   outer loop
     vertex  2.000000e+01  4.500000e+01  2.000000e+01
     vertex  0.000000e+00  0.000000e+00  2.000000e+01
     vertex  2.000000e+01  3.500000e+01  2.000000e+01
   endloop
 endfacet
 facet normal  0.000000e+00  0.000000e+00  1.000000e+00
   outer loop
     vertex  0.000000e+00  8.000000e+01  2.000000e+01
     vertex  2.000000e+01  4.500000e+01  2.000000e+01
     vertex  2.007596e+01  4.586824e+01  2.000000e+01
   endloop
 endfacet
 facet normal  0.000000e+00  0.000000e+00  1.000000e+00
   outer loop
     vertex  0.000000e+00  8.000000e+01  2.000000e+01
     vertex  2.007596e+01  4.586824e+01  2.000000e+01
     vertex  2.030154e+01  4.671010e+01  2.000000e+01
   endloop
 endfacet
 facet normal  0.000000e+00  0.000000e+00  1.000000e+00
   outer loop
     vertex  0.000000e+00  8.000000e+01  2.000000e+01
     vertex  2.030154e+01  4.671010e+01  2.000000e+01
     vertex  2.066987e+01  4.750000e+01  2.000000e+01
   endloop
 endfacet
 facet normal  0.000000e+00  0.000000e+00  1.000000e+00
   outer loop
     vertex  0.000000e+00  8.000000e+01  2.000000e+01
     vertex  2.066987e+01  4.750000e+01  2.000000e+01
     vertex  2.116978e+01  4.821394e+01  2.000000e+01
   endloop
 endfacet
 facet normal  0.000000e+00  0.000000e+00  1.000000e+00
   outer loop
     vertex  0.000000e+00  8.000000e+01  2.000000e+01
     vertex  2.116978e+01  4.821394e+01  2.000000e+01
     vertex  2.178606e+01  4.883022e+01  2.000000e+01
   endloop
 endfacet
 facet normal  0.000000e+00  0.000000e+00  1.000000e+00
   outer loop
     vertex  0.000000e+00  8.000000e+01  2.000000e+01
     vertex  2.178606e+01  4.883022e+01  2.000000e+01
     vertex  2.250000e+01  4.933013e+01  2.000000e+01
   endloop
 endfacet
 facet normal  0.000000e+00  0.000000e+00  1.000000e+00
   outer loop
     vertex  0.000000e+00  8.000000e+01  2.000000e+01
     vertex  2.250000e+01  4.933013e+01  2.000000e+01
     vertex  2.328990e+01  4.969846e+01  2.000000e+01
   endloop
 endfacet
 facet normal  0.000000e+00  0.000000e+00  1.000000e+00
   outer loop
     vertex  0.000000e+00  8.000000e+01  2.000000e+01
     vertex  2.328990e+01  4.969846e+01  2.000000e+01
     vertex  2.413176e+01  4.992404e+01  2.000000e+01
   endloop
 endfacet
 facet normal  0.000000e+00  0.000000e+00  1.000000e+00
   outer loop
     vertex  0.000000e+00  8.000000e+01  2.000000e+01
     vertex  2.413176e+01  4.992404e+01  2.000000e+01
     vertex  2.500000e+01  5.000000e+01  2.000000e+01
   endloop
 endfacet
 facet normal  0.000000e+00  0.000000e+00  1.000000e+00
   outer loop
     vertex  0.000000e+00  8.000000e+01  2.000000e+01
     vertex  0.000000e+00  0.000000e+00  2.000000e+01
     vertex  2.000000e+01  4.500000e+01  2.000000e+01
   endloop
 endfacet
 facet normal  0.000000e+00  0.000000e+00  1.000000e+00
   outer loop
     vertex  7.500000e+01  3.000000e+01  2.000000e+01
     vertex  0.000000e+00  0.000000e+00  2.000000e+01
     vertex  1.000000e+02  0.000000e+00  2.000000e+01
   endloop
 endfacet
 facet normal  0.000000e+00  0.000000e+00  1.000000e+00
   outer loop
     vertex  7.500000e+01  3.000000e+01  2.000000e+01
     vertex  2.500000e+01  3.000000e+01  2.000000e+01
     vertex  0.000000e+00  0.000000e+00  2.000000e+01
   endloop
 endfacet
 facet normal  0.000000e+00  0.000000e+00  1.000000e+00
   outer loop
     vertex  7.586824e+01  3.007596e+01  2.000000e+01
     vertex  7.500000e+01  3.000000e+01  2.000000e+01
     vertex  1.000000e+02  0.000000e+00  2.000000e+01
   endloop
 endfacet
 facet normal  0.000000e+00  0.000000e+00  1.000000e+00
   outer loop
     vertex  7.671010e+01  3.030154e+01  2.000000e+01
     vertex  7.586824e+01  3.007596e+01  2.000000e+01
     vertex  1.000000e+02  0.000000e+00  2.000000e+01
   endloop
 endfacet
 facet normal  0.000000e+00  0.000000e+00  1.000000e+00
   outer loop
     vertex  7.750000e+01  3.066987e+01  2.000000e+01
     vertex  7.671010e+01  3.030154e+01  2.000000e+01
     vertex  1.000000e+02  0.000000e+00  2.000000e+01
   endloop
 endfacet
 facet normal  0.000000e+00  0.000000e+00  1.000000e+00
   outer loop
     vertex  7.821394e+01  3.116978e+01  2.000000e+01
     vertex  7.750000e+01  3.066987e+01  2.000000e+01
     vertex  1.000000e+02  0.000000e+00  2.000000e+01
   endloop
 endfacet
 facet normal  0.000000e+00  0.000000e+00  1.000000e+00
   outer loop
     vertex  7.883022e+01  3.178606e+01  2.000000e+01
     vertex  7.821394e+01  3.116978e+01  2.000000e+01
     vertex  1.000000e+02  0.000000e+00  2.000000e+01
   endloop
 endfacet
 facet normal  0.000000e+00  0.000000e+00  1.000000e+00
   outer loop
     vertex  7.933013e+01  3.250000e+01  2.000000e+01
     vertex  7.883022e+01  3.178606e+01  2.000000e+01
     vertex  1.000000e+02  0.000000e+00  2.000000e+01
   endloop
 endfacet
 facet normal  0.000000e+00  0.000000e+00  1.000000e+00
   outer loop
     vertex  7.969846e+01  3.328990e+01  2.000000e+01
     vertex  7.933013e+01  3.250000e+01  2.000000e+01
     vertex  1.000000e+02  0.000000e+00  2.000000e+01
   endloop
 endfacet
 facet normal  0.000000e+00  0.000000e+00  1.000000e+00
   outer loop
     vertex  7.992404e+01  3.413176e+01  2.000000e+01
     vertex  7.969846e+01  3.328990e+01  2.000000e+01
     vertex  1.000000e+02  0.000000e+00  2.000000e+01
   endloop
 endfacet
 facet normal  0.000000e+00  0.000000e+00  1.000000e+00
   outer loop
     vertex  8.000000e+01  3.500000e+01  2.000000e+01
     vertex  7.992404e+01  3.413176e+01  2.000000e+01
     vertex  1.000000e+02  0.000000e+00  2.000000e+01
   endloop
 endfacet
 facet normal  0.000000e+00  0.000000e+00  1.000000e+00
   outer loop
     vertex  8.000000e+01  4.500000e+01  2.000000e+01
     vertex  8.000000e+01  3.500000e+01  2.000000e+01
     vertex  1.000000e+02  0.000000e+00  2.000000e+01
   endloop
 endfacet
 facet normal  0.000000e+00  0.000000e+00  1.000000e+00
   outer loop
     vertex  1.000000e+02  8.000000e+01  2.000000e+01
     vertex  8.000000e+01  4.500000e+01  2.000000e+01
     vertex  1.000000e+02  0.000000e+00  2.000000e+01
   endloop
 endfacet
 facet normal  0.000000e+00  0.000000e+00  1.000000e+00
   outer loop
     vertex  1.000000e+02  8.000000e+01  2.000000e+01
     vertex  2.500000e+01  5.000000e+01  2.000000e+01
     vertex  7.500000e+01  5.000000e+01  2.000000e+01
   endloop
 endfacet
 facet normal  0.000000e+00  0.000000e+00  1.000000e+00
   outer loop
     vertex  1.000000e+02  8.000000e+01  2.000000e+01
     vertex  7.500000e+01  5.000000e+01  2.000000e+01
     vertex  7.586824e+01  4.992404e+01  2.000000e+01
   endloop
 endfacet
 facet normal  0.000000e+00  0.000000e+00  1.000000e+00
   outer loop
     vertex  1.000000e+02  8.000000e+01  2.000000e+01
     vertex  7.586824e+01  4.992404e+01  2.000000e+01
     vertex  7.671010e+01  4.969846e+01  2.000000e+01
   endloop
 endfacet
 facet normal  0.000000e+00  0.000000e+00  1.000000e+00
   outer loop
     vertex  1.000000e+02  8.000000e+01  2.000000e+01
     vertex  7.671010e+01  4.969846e+01  2.000000e+01
     vertex  7.750000e+01  4.933013e+01  2.000000e+01
   endloop
 endfacet
 facet normal  0.000000e+00  0.000000e+00  1.000000e+00
   outer loop
     vertex  1.000000e+02  8.000000e+01  2.000000e+01
     vertex  7.750000e+01  4.933013e+01  2.000000e+01
     vertex  7.821394e+01  4.883022e+01  2.000000e+01
   endloop
 endfacet
 facet normal  0.000000e+00  0.000000e+00  1.000000e+00
   outer loop
     vertex  1.000000e+02  8.000000e+01  2.000000e+01
     vertex  7.821394e+01  4.883022e+01  2.000000e+01
     vertex  7.883022e+01  4.821394e+01  2.000000e+01
   endloop
 endfacet
 facet normal  0.000000e+00  0.000000e+00  1.000000e+00
   outer loop
     vertex  1.000000e+02  8.000000e+01  2.000000e+01
     vertex  7.883022e+01  4.821394e+01  2.000000e+01
     vertex  7.933013e+01  4.750000e+01  2.000000e+01
   endloop
 endfacet
 facet normal  0.000000e+00  0.000000e+00  1.000000e+00
   outer loop
     vertex  1.000000e+02  8.000000e+01  2.000000e+01
     vertex  7.933013e+01  4.750000e+01  2.000000e+01
     vertex  7.969846e+01  4.671010e+01  2.000000e+01
   endloop
 endfacet
 facet normal  0.000000e+00  0.000000e+00  1.000000e+00
   outer loop
     vertex  1.000000e+02  8.000000e+01  2.000000e+01
     vertex  7.969846e+01  4.671010e+01  2.000000e+01
     vertex  7.992404e+01  4.586824e+01  2.000000e+01
   endloop
 endfacet
 facet normal  0.000000e+00  0.000000e+00  1.000000e+00
   outer loop
     vertex  1.000000e+02  8.000000e+01  2.000000e+01
     vertex  7.992404e+01  4.586824e+01  2.000000e+01
     vertex  8.000000e+01  4.500000e+01  2.000000e+01
   endloop
 endfacet
 facet normal  0.000000e+00  0.000000e+00  1.000000e+00
   outer loop
     vertex  1.000000e+02  8.000000e+01  2.000000e+01
     vertex  0.000000e+00  8.000000e+01  2.000000e+01
     vertex  2.500000e+01  5.000000e+01  2.000000e+01
   endloop
 endfacet
 facet normal  0.000000e+00  1.000000e+00  0.000000e+00
   outer loop
     vertex  1.000000e+02  8.000000e+01  2.000000e+01
     vertex  1.000000e+02  8.000000e+01  0.000000e+00
     vertex  0.000000e+00  8.000000e+01  0.000000e+00
   endloop
 endfacet
 facet normal  0.000000e+00  1.000000e+00  0.000000e+00
   outer loop
     vertex  1.000000e+02  8.000000e+01  2.000000e+01
     vertex  0.000000e+00  8.000000e+01  0.000000e+00
     vertex  0.000000e+00  8.000000e+01  2.000000e+01
   endloop
 endfacet
 facet normal -0.000000e+00  0.000000e+00 -1.000000e+00
   outer loop
     vertex  1.000000e+02  8.000000e+01  0.000000e+00
     vertex  0.000000e+00  0.000000e+00  0.000000e+00
     vertex  0.000000e+00  8.000000e+01  0.000000e+00
   endloop
 endfacet
 facet normal  0.000000e+00 -0.000000e+00 -1.000000e+00
   outer loop
     vertex  1.000000e+02  8.000000e+01  0.000000e+00
     vertex  1.000000e+02  0.000000e+00  0.000000e+00
     vertex  0.000000e+00  0.000000e+00  0.000000e+00
   endloop
 endfacet
 facet normal  1.000000e+00  0.000000e+00  0.000000e+00
   outer loop
     vertex  1.000000e+02  0.000000e+00  2.000000e+01
     vertex  1.000000e+02  0.000000e+00  0.000000e+00
     vertex  1.000000e+02  8.000000e+01  0.000000e+00
   endloop
 endfacet
 facet normal  1.000000e+00 -0.000000e+00  0.000000e+00
   outer loop
     vertex  1.000000e+02  0.000000e+00  2.000000e+01
     vertex  1.000000e+02  8.000000e+01  0.000000e+00
     vertex  1.000000e+02  8.000000e+01  2.000000e+01
   endloop
 endfacet
 facet normal  0.000000e+00  1.000000e+00  0.000000e+00
   outer loop
     vertex  7.500000e+01  3.000000e+01  2.000000e+01
     vertex  2.500000e+01  3.000000e+01  1.200000e+01
     vertex  2.500000e+01  3.000000e+01  2.000000e+01
   endloop
 endfacet
 facet normal  0.000000e+00  1.000000e+00  0.000000e+00
   outer loop
     vertex  7.500000e+01  3.000000e+01  2.000000e+01
     vertex  7.500000e+01  3.000000e+01  1.200000e+01
     vertex  2.500000e+01  3.000000e+01  1.200000e+01
   endloop
 endfacet
 facet normal -8.715574e-02  9.961947e-01  0.000000e+00
   outer loop
     vertex  7.586824e+01  3.007596e+01  2.000000e+01
     vertex  7.500000e+01  3.000000e+01  1.200000e+01
     vertex  7.500000e+01  3.000000e+01  2.000000e+01
   endloop
 endfacet
 facet normal -8.715574e-02  9.961947e-01  0.000000e+00
   outer loop
     vertex  7.586824e+01  3.007596e+01  2.000000e+01
     vertex  7.586824e+01  3.007596e+01  1.200000e+01
     vertex  7.500000e+01  3.000000e+01  1.200000e+01
   endloop
 endfacet
 facet normal -2.588190e-01  9.659258e-01  0.000000e+00
   outer loop
     vertex  7.671010e+01  3.030154e+01  2.000000e+01
     vertex  7.586824e+01  3.007596e+01  1.200000e+01
     vertex  7.586824e+01  3.007596e+01  2.000000e+01
   endloop
 endfacet
 facet normal -2.588190e-01  9.659258e-01  0.000000e+00
   outer loop
     vertex  7.671010e+01  3.030154e+01  2.000000e+01
     vertex  7.671010e+01  3.030154e+01  1.200000e+01
     vertex  7.586824e+01  3.007596e+01  1.200000e+01
   endloop
 endfacet
 facet normal -4.226183e-01  9.063078e-01  0.000000e+00
   outer loop
     vertex  7.750000e+01  3.066987e+01  2.000000e+01
     vertex  7.671010e+01  3.030154e+01  1.200000e+01
     vertex  7.671010e+01  3.030154e+01  2.000000e+01
   endloop
 endfacet
 facet normal -4.226183e-01  9.063078e-01  0.000000e+00
   outer loop
     vertex  7.750000e+01  3.066987e+01  2.000000e+01
     vertex  7.750000e+01  3.066987e+01  1.200000e+01
     vertex  7.671010e+01  3.030154e+01  1.200000e+01
   endloop
 endfacet
 facet normal -5.735764e-01  8.191520e-01  0.000000e+00
   outer loop
     vertex  7.821394e+01  3.116978e+01  2.000000e+01
     vertex  7.750000e+01  3.066987e+01  1.200000e+01
     vertex  7.750000e+01  3.066987e+01  2.000000e+01
   endloop
 endfacet
 facet normal -5.735764e-01  8.191520e-01  0.000000e+00
   outer loop
     vertex  7.821394e+01  3.116978e+01  2.000000e+01
     vertex  7.821394e+01  3.116978e+01  1.200000e+01
     vertex  7.750000e+01  3.066987e+01  1.200000e+01
   endloop
 endfacet
 facet normal -7.071068e-01  7.071068e-01  0.000000e+00
   outer loop
     vertex  7.883022e+01  3.178606e+01  2.000000e+01
     vertex  7.821394e+01  3.116978e+01  1.200000e+01
     vertex  7.821394e+01  3.116978e+01  2.000000e+01
   endloop
 endfacet
 facet normal -7.071068e-01  7.071068e-01  0.000000e+00
   outer loop
     vertex  7.883022e+01  3.178606e+01  2.000000e+01
     vertex  7.883022e+01  3.178606e+01  1.200000e+01
     vertex  7.821394e+01  3.116978e+01  1.200000e+01
   endloop
 endfacet
 facet normal -8.191520e-01  5.735764e-01  0.000000e+00
   outer loop
     vertex  7.933013e+01  3.250000e+01  2.000000e+01
     vertex  7.883022e+01  3.178606e+01  1.200000e+01
     vertex  7.883022e+01  3.178606e+01  2.000000e+01
   endloop
 endfacet
 facet normal -8.191520e-01  5.735764e-01  0.000000e+00
   outer loop
     vertex  7.933013e+01  3.250000e+01  2.000000e+01
     vertex  7.933013e+01  3.250000e+01  1.200000e+01
     vertex  7.883022e+01  3.178606e+01  1.200000e+01
   endloop
 endfacet
 facet normal -9.063078e-01  4.226183e-01  0.000000e+00
   outer loop
     vertex  7.969846e+01  3.328990e+01  2.000000e+01
     vertex  7.933013e+01  3.250000e+01  1.200000e+01
     vertex  7.933013e+01  3.250000e+01  2.000000e+01
   endloop
 endfacet
 facet normal -9.063078e-01  4.226183e-01  0.000000e+00
   outer loop
     vertex  7.969846e+01  3.328990e+01  2.000000e+01
     vertex  7.969846e+01  3.328990e+01  1.200000e+01
     vertex  7.933013e+01  3.250000e+01  1.200000e+01
   endloop
 endfacet
 facet normal -9.659258e-01  2.588190e-01  0.000000e+00
   outer loop
     vertex  7.992404e+01  3.413176e+01  2.000000e+01
     vertex  7.969846e+01  3.328990e+01  1.200000e+01
     vertex  7.969846e+01  3.328990e+01  2.000000e+01
   endloop
 endfacet
 facet normal -9.659258e-01  2.588190e-01  0.000000e+00
   outer loop
     vertex  7.992404e+01  3.413176e+01  2.000000e+01
     vertex  7.992404e+01  3.413176e+01  1.200000e+01
     vertex  7.969846e+01  3.328990e+01  1.200000e+01
   endloop
 endfacet
 facet normal -9.961947e-01  8.715574e-02  0.000000e+00
   outer loop
     vertex  8.000000e+01  3.500000e+01  2.000000e+01
     vertex  7.992404e+01  3.413176e+01  1.200000e+01
     vertex  7.992404e+01  3.413176e+01  2.000000e+01
   endloop
 endfacet
 facet normal -9.961947e-01  8.715574e-02  0.000000e+00
   outer loop
     vertex  8.000000e+01  3.500000e+01  2.000000e+01
     vertex  8.000000e+01  3.500000e+01  1.200000e+01
     vertex  7.992404e+01  3.413176e+01  1.200000e+01
   endloop
 endfacet
 facet normal -1.000000e+00 -0.000000e+00  0.000000e+00
   outer loop
     vertex  8.000000e+01  4.500000e+01  2.000000e+01
     vertex  8.000000e+01  3.500000e+01  1.200000e+01
     vertex  8.000000e+01  3.500000e+01  2.000000e+01
   endloop
 endfacet
 facet normal -1.000000e+00  0.000000e+00 -0.000000e+00
   outer loop
     vertex  8.000000e+01  4.500000e+01  2.000000e+01
     vertex  8.000000e+01  4.500000e+01  1.200000e+01
     vertex  8.000000e+01  3.500000e+01  1.200000e+01
   endloop
 endfacet
 facet normal -9.961947e-01 -8.715574e-02  0.000000e+00
   outer loop
     vertex  7.992404e+01  4.586824e+01  2.000000e+01
     vertex  8.000000e+01  4.500000e+01  1.200000e+01
     vertex  8.000000e+01  4.500000e+01  2.000000e+01
   endloop
 endfacet
 facet normal -9.961947e-01 -8.715574e-02 -0.000000e+00
   outer loop
     vertex  7.992404e+01  4.586824e+01  2.000000e+01
     vertex  7.992404e+01  4.586824e+01  1.200000e+01
     vertex  8.000000e+01  4.500000e+01  1.200000e+01
   endloop
 endfacet
 facet normal -9.659258e-01 -2.588190e-01  0.000000e+00
   outer loop
     vertex  7.969846e+01  4.671010e+01  2.000000e+01
     vertex  7.992404e+01  4.586824e+01  1.200000e+01
     vertex  7.992404e+01  4.586824e+01  2.000000e+01
   endloop
 endfacet
 facet normal -9.659258e-01 -2.588190e-01 -0.000000e+00
   outer loop
     vertex  7.969846e+01  4.671010e+01  2.000000e+01
     vertex  7.969846e+01  4.671010e+01  1.200000e+01
     vertex  7.992404e+01  4.586824e+01  1.200000e+01
   endloop
 endfacet
 facet normal -9.063078e-01 -4.226183e-01  0.000000e+00
   outer loop
     vertex  7.933013e+01  4.750000e+01  2.000000e+01
     vertex  7.969846e+01  4.671010e+01  1.200000e+01
     vertex  7.969846e+01  4.671010e+01  2.000000e+01
   endloop
 endfacet
 facet normal -9.063078e-01 -4.226183e-01 -0.000000e+00
   outer loop
     vertex  7.933013e+01  4.750000e+01  2.000000e+01
     vertex  7.933013e+01  4.750000e+01  1.200000e+01
     vertex  7.969846e+01  4.671010e+01  1.200000e+01
   endloop
 endfacet
 facet normal -8.191520e-01 -5.735764e-01  0.000000e+00
   outer loop
     vertex  7.883022e+01  4.821394e+01  2.000000e+01
     vertex  7.933013e+01  4.750000e+01  1.200000e+01
     vertex  7.933013e+01  4.750000e+01  2.000000e+01
   endloop
 endfacet
 facet normal -8.191520e-01 -5.735764e-01 -0.000000e+00
   outer loop
     vertex  7.883022e+01  4.821394e+01  2.000000e+01
     vertex  7.883022e+01  4.821394e+01  1.200000e+01
     vertex  7.933013e+01  4.750000e+01  1.200000e+01
   endloop
 endfacet
 facet normal -7.071068e-01 -7.071068e-01  0.000000e+00
   outer loop
     vertex  7.821394e+01  4.883022e+01  2.000000e+01
     vertex  7.883022e+01  4.821394e+01  1.200000e+01
     vertex  7.883022e+01  4.821394e+01  2.000000e+01
   endloop
 endfacet
 facet normal -7.071068e-01 -7.071068e-01 -0.000000e+00
   outer loop
     vertex  7.821394e+01  4.883022e+01  2.000000e+01
     vertex  7.821394e+01  4.883022e+01  1.200000e+01
     vertex  7.883022e+01  4.821394e+01  1.200000e+01
   endloop
 endfacet
 facet normal -5.735764e-01 -8.191520e-01  0.000000e+00
   outer loop
     vertex  7.750000e+01  4.933013e+01  2.000000e+01
     vertex  7.821394e+01  4.883022e+01  1.200000e+01
     vertex  7.821394e+01  4.883022e+01  2.000000e+01
   endloop
 endfacet
 facet normal -5.735764e-01 -8.191520e-01 -0.000000e+00
   outer loop
     vertex  7.750000e+01  4.933013e+01  2.000000e+01
     vertex  7.750000e+01  4.933013e+01  1.200000e+01
     vertex  7.821394e+01  4.883022e+01  1.200000e+01
   endloop
 endfacet
 facet normal -4.226183e-01 -9.063078e-01  0.000000e+00
   outer loop
     vertex  7.671010e+01  4.969846e+01  2.000000e+01
     vertex  7.750000e+01  4.933013e+01  1.200000e+01
     vertex  7.750000e+01  4.933013e+01  2.000000e+01
   endloop
 endfacet
 facet normal -4.226183e-01 -9.063078e-01 -0.000000e+00
   outer loop
     vertex  7.671010e+01  4.969846e+01  2.000000e+01
     vertex  7.671010e+01  4.969846e+01  1.200000e+01
     vertex  7.750000e+01  4.933013e+01  1.200000e+01
   endloop
 endfacet
 facet normal -2.588190e-01 -9.659258e-01  0.000000e+00
   outer loop
     vertex  7.586824e+01  4.992404e+01  2.000000e+01
     vertex  7.671010e+01  4.969846e+01  1.200000e+01
     vertex  7.671010e+01  4.969846e+01  2.000000e+01
   endloop
 endfacet
 facet normal -2.588190e-01 -9.659258e-01 -0.000000e+00
   outer loop
     vertex  7.586824e+01  4.992404e+01  2.000000e+01
     vertex  7.586824e+01  4.992404e+01  1.200000e+01
     vertex  7.671010e+01  4.969846e+01  1.200000e+01
   endloop
 endfacet
 facet normal -8.715574e-02 -9.961947e-01  0.000000e+00
   outer loop
     vertex  7.500000e+01  5.000000e+01  2.000000e+01
     vertex  7.586824e+01  4.992404e+01  1.200000e+01
     vertex  7.586824e+01  4.992404e+01  2.000000e+01
   endloop
 endfacet
 facet normal -8.715574e-02 -9.961947e-01 -0.000000e+00
   outer loop
     vertex  7.500000e+01  5.000000e+01  2.000000e+01
     vertex  7.500000e+01  5.000000e+01  1.200000e+01
     vertex  7.586824e+01  4.992404e+01  1.200000e+01
   endloop
 endfacet
 facet normal  0.000000e+00 -1.000000e+00  0.000000e+00
   outer loop
     vertex  2.500000e+01  5.000000e+01  2.000000e+01
     vertex  7.500000e+01  5.000000e+01  1.200000e+01
     vertex  7.500000e+01  5.000000e+01  2.000000e+01
   endloop
 endfacet
 facet normal  0.000000e+00 -1.000000e+00  0.000000e+00
   outer loop
     vertex  2.500000e+01  5.000000e+01  2.000000e+01
     vertex  2.500000e+01  5.000000e+01  1.200000e+01
     vertex  7.500000e+01  5.000000e+01  1.200000e+01
   endloop
 endfacet
 facet normal  8.715574e-02 -9.961947e-01  0.000000e+00
   outer loop
     vertex  2.413176e+01  4.992404e+01  2.000000e+01
     vertex  2.500000e+01  5.000000e+01  1.200000e+01
     vertex  2.500000e+01  5.000000e+01  2.000000e+01
   endloop
 endfacet
 facet normal  8.715574e-02 -9.961947e-01  0.000000e+00
   outer loop
     vertex  2.413176e+01  4.992404e+01  2.000000e+01
     vertex  2.413176e+01  4.992404e+01  1.200000e+01
     vertex  2.500000e+01  5.000000e+01  1.200000e+01
   endloop
 endfacet
 facet normal  2.588190e-01 -9.659258e-01  0.000000e+00
   outer loop
     vertex  2.328990e+01  4.969846e+01  2.000000e+01
     vertex  2.413176e+01  4.992404e+01  1.200000e+01
     vertex  2.413176e+01  4.992404e+01  2.000000e+01
   endloop
 endfacet
 facet normal  2.588190e-01 -9.659258e-01  0.000000e+00
   outer loop
     vertex  2.328990e+01  4.969846e+01  2.000000e+01
     vertex  2.328990e+01  4.969846e+01  1.200000e+01
     vertex  2.413176e+01  4.992404e+01  1.200000e+01
   endloop
 endfacet
 facet normal  4.226183e-01 -9.063078e-01  0.000000e+00
   outer loop
     vertex  2.250000e+01  4.933013e+01  2.000000e+01
     vertex  2.328990e+01  4.969846e+01  1.200000e+01
     vertex  2.328990e+01  4.969846e+01  2.000000e+01
   endloop
 endfacet
 facet normal  4.226183e-01 -9.063078e-01  0.000000e+00
   outer loop
     vertex  2.250000e+01  4.933013e+01  2.000000e+01
     vertex  2.250000e+01  4.933013e+01  1.200000e+01
     vertex  2.328990e+01  4.969846e+01  1.200000e+01
   endloop
 endfacet
 facet normal  5.735764e-01 -8.191520e-01  0.000000e+00
   outer loop
     vertex  2.178606e+01  4.883022e+01  2.000000e+01
     vertex  2.250000e+01  4.933013e+01  1.200000e+01
     vertex  2.250000e+01  4.933013e+01  2.000000e+01
   endloop
 endfacet
 facet normal  5.735764e-01 -8.191520e-01  0.000000e+00
   outer loop
     vertex  2.178606e+01  4.883022e+01  2.000000e+01
     vertex  2.178606e+01  4.883022e+01  1.200000e+01
     vertex  2.250000e+01  4.933013e+01  1.200000e+01
   endloop
 endfacet
 facet normal  7.071068e-01 -7.071068e-01  0.000000e+00
   outer loop
     vertex  2.116978e+01  4.821394e+01  2.000000e+01
     vertex  2.178606e+01  4.883022e+01  1.200000e+01
     vertex  2.178606e+01  4.883022e+01  2.000000e+01
   endloop
 endfacet
 facet normal  7.071068e-01 -7.071068e-01  0.000000e+00
   outer loop
     vertex  2.116978e+01  4.821394e+01  2.000000e+01
     vertex  2.116978e+01  4.821394e+01  1.200000e+01
     vertex  2.178606e+01  4.883022e+01  1.200000e+01
   endloop
 endfacet
 facet normal  8.191520e-01 -5.735764e-01  0.000000e+00
   outer loop
     vertex  2.066987e+01  4.750000e+01  2.000000e+01
     vertex  2.116978e+01  4.821394e+01  1.200000e+01
     vertex  2.116978e+01  4.821394e+01  2.000000e+01
   endloop
 endfacet
 facet normal  8.191520e-01 -5.735764e-01  0.000000e+00
   outer loop
     vertex  2.066987e+01  4.750000e+01  2.000000e+01
     vertex  2.066987e+01  4.750000e+01  1.200000e+01
     vertex  2.116978e+01  4.821394e+01  1.200000e+01
   endloop
 endfacet
 facet normal  9.063078e-01 -4.226183e-01  0.000000e+00
   outer loop
     vertex  2.030154e+01  4.671010e+01  2.000000e+01
     vertex  2.066987e+01  4.750000e+01  1.200000e+01
     vertex  2.066987e+01  4.750000e+01  2.000000e+01
   endloop
 endfacet
 facet normal  9.063078e-01 -4.226183e-01  0.000000e+00
   outer loop
     vertex  2.030154e+01  4.671010e+01  2.000000e+01
     vertex  2.030154e+01  4.671010e+01  1.200000e+01
     vertex  2.066987e+01  4.750000e+01  1.200000e+01
   endloop
 endfacet
 facet normal  9.659258e-01 -2.588190e-01  0.000000e+00
   outer loop
     vertex  2.007596e+01  4.586824e+01  2.000000e+01
     vertex  2.030154e+01  4.671010e+01  1.200000e+01
     vertex  2.030154e+01  4.671010e+01  2.000000e+01
   endloop
 endfacet
 facet normal  9.659258e-01 -2.588190e-01  0.000000e+00
   outer loop
     vertex  2.007596e+01  4.586824e+01  2.000000e+01
     vertex  2.007596e+01  4.586824e+01  1.200000e+01
     vertex  2.030154e+01  4.671010e+01  1.200000e+01
   endloop
 endfacet
 facet normal  9.961947e-01 -8.715574e-02  0.000000e+00
   outer loop
     vertex  2.000000e+01  4.500000e+01  2.000000e+01
     vertex  2.007596e+01  4.586824e+01  1.200000e+01
     vertex  2.007596e+01  4.586824e+01  2.000000e+01
   endloop
 endfacet
 facet normal  9.961947e-01 -8.715574e-02  0.000000e+00
   outer loop
     vertex  2.000000e+01  4.500000e+01  2.000000e+01
     vertex  2.000000e+01  4.500000e+01  1.200000e+01
     vertex  2.007596e+01  4.586824e+01  1.200000e+01
   endloop
 endfacet
 facet normal  1.000000e+00 -0.000000e+00  0.000000e+00
   outer loop
     vertex  2.000000e+01  3.500000e+01  2.000000e+01
     vertex  2.000000e+01  4.500000e+01  1.200000e+01
     vertex  2.000000e+01  4.500000e+01  2.000000e+01
   endloop
 endfacet
 facet normal  1.000000e+00  0.000000e+00  0.000000e+00
   outer loop
     vertex  2.000000e+01  3.500000e+01  2.000000e+01
     vertex  2.000000e+01  3.500000e+01  1.200000e+01
     vertex  2.000000e+01  4.500000e+01  1.200000e+01
   endloop
 endfacet
 facet normal  9.961947e-01  8.715574e-02  0.000000e+00
   outer loop
     vertex  2.007596e+01  3.413176e+01  2.000000e+01
     vertex  2.000000e+01  3.500000e+01  1.200000e+01
     vertex  2.000000e+01  3.500000e+01  2.000000e+01
   endloop
 endfacet
 facet normal  9.961947e-01  8.715574e-02  0.000000e+00
   outer loop
     vertex  2.007596e+01  3.413176e+01  2.000000e+01
     vertex  2.007596e+01  3.413176e+01  1.200000e+01
     vertex  2.000000e+01  3.500000e+01  1.200000e+01
   endloop
 endfacet
 facet normal  9.659258e-01  2.588190e-01  0.000000e+00
   outer loop
     vertex  2.030154e+01  3.328990e+01  2.000000e+01
     vertex  2.007596e+01  3.413176e+01  1.200000e+01
     vertex  2.007596e+01  3.413176e+01  2.000000e+01
   endloop
 endfacet
 facet normal  9.659258e-01  2.588190e-01  0.000000e+00
   outer loop
     vertex  2.030154e+01  3.328990e+01  2.000000e+01
     vertex  2.030154e+01  3.328990e+01  1.200000e+01
     vertex  2.007596e+01  3.413176e+01  1.200000e+01
   endloop
 endfacet
 facet normal  9.063078e-01  4.226183e-01  0.000000e+00
   outer loop
     vertex  2.066987e+01  3.250000e+01  2.000000e+01
     vertex  2.030154e+01  3.328990e+01  1.200000e+01
     vertex  2.030154e+01  3.328990e+01  2.000000e+01
   endloop
 endfacet
 facet normal  9.063078e-01  4.226183e-01  0.000000e+00
   outer loop
     vertex  2.066987e+01  3.250000e+01  2.000000e+01
     vertex  2.066987e+01  3.250000e+01  1.200000e+01
     vertex  2.030154e+01  3.328990e+01  1.200000e+01
   endloop
 endfacet
 facet normal  8.191520e-01  5.735764e-01  0.000000e+00
   outer loop
     vertex  2.116978e+01  3.178606e+01  2.000000e+01
     vertex  2.066987e+01  3.250000e+01  1.200000e+01
     vertex  2.066987e+01  3.250000e+01  2.000000e+01
   endloop
 endfacet
 facet normal  8.191520e-01  5.735764e-01  0.000000e+00
   outer loop
     vertex  2.116978e+01  3.178606e+01  2.000000e+01
     vertex  2.116978e+01  3.178606e+01  1.200000e+01
     vertex  2.066987e+01  3.250000e+01  1.200000e+01
   endloop
 endfacet
 facet normal  7.071068e-01  7.071068e-01  0.000000e+00
   outer loop
     vertex  2.178606e+01  3.116978e+01  2.000000e+01
     vertex  2.116978e+01  3.178606e+01  1.200000e+01
     vertex  2.116978e+01  3.178606e+01  2.000000e+01
   endloop
 endfacet
 facet normal  7.071068e-01  7.071068e-01  0.000000e+00
   outer loop
     vertex  2.178606e+01  3.116978e+01  2.000000e+01
     vertex  2.178606e+01  3.116978e+01  1.200000e+01
     vertex  2.116978e+01  3.178606e+01  1.200000e+01
   endloop
 endfacet
 facet normal  5.735764e-01  8.191520e-01  0.000000e+00
   outer loop
     vertex  2.250000e+01  3.066987e+01  2.000000e+01
     vertex  2.178606e+01  3.116978e+01  1.200000e+01
     vertex  2.178606e+01  3.116978e+01  2.000000e+01
   endloop
 endfacet
 facet normal  5.735764e-01  8.191520e-01  0.000000e+00
   outer loop
     vertex  2.250000e+01  3.066987e+01  2.000000e+01
     vertex  2.250000e+01  3.066987e+01  1.200000e+01
     vertex  2.178606e+01  3.116978e+01  1.200000e+01
   endloop
 endfacet
 facet normal  4.226183e-01  9.063078e-01  0.000000e+00
   outer loop
     vertex  2.328990e+01  3.030154e+01  2.000000e+01
     vertex  2.250000e+01  3.066987e+01  1.200000e+01
     vertex  2.250000e+01  3.066987e+01  2.000000e+01
   endloop
 endfacet
 facet normal  4.226183e-01  9.063078e-01  0.000000e+00
   outer loop
     vertex  2.328990e+01  3.030154e+01  2.000000e+01
     vertex  2.328990e+01  3.030154e+01  1.200000e+01
     vertex  2.250000e+01  3.066987e+01  1.200000e+01
   endloop
 endfacet
 facet normal  2.588190e-01  9.659258e-01  0.000000e+00
   outer loop
     vertex  2.413176e+01  3.007596e+01  2.000000e+01
     vertex  2.328990e+01  3.030154e+01  1.200000e+01
     vertex  2.328990e+01  3.030154e+01  2.000000e+01
   endloop
 endfacet
 facet normal  2.588190e-01  9.659258e-01  0.000000e+00
   outer loop
     vertex  2.413176e+01  3.007596e+01  2.000000e+01
     vertex  2.413176e+01  3.007596e+01  1.200000e+01
     vertex  2.328990e+01  3.030154e+01  1.200000e+01
   endloop
 endfacet
 facet normal  8.715574e-02  9.961947e-01  0.000000e+00
   outer loop
     vertex  2.500000e+01  3.000000e+01  2.000000e+01
     vertex  2.413176e+01  3.007596e+01  1.200000e+01
     vertex  2.413176e+01  3.007596e+01  2.000000e+01
   endloop
 endfacet
 facet normal  8.715574e-02  9.961947e-01  0.000000e+00
   outer loop
     vertex  2.500000e+01  3.000000e+01  2.000000e+01
     vertex  2.500000e+01  3.000000e+01  1.200000e+01
     vertex  2.413176e+01  3.007596e+01  1.200000e+01
   endloop
 endfacet
 facet normal  0.000000e+00  0.000000e+00  1.000000e+00
   outer loop
     vertex  2.066987e+01  3.250000e+01  1.200000e+01
     vertex  2.116978e+01  3.178606e+01  1.200000e+01
     vertex  2.178606e+01  3.116978e+01  1.200000e+01
   endloop
 endfacet
 facet normal  0.000000e+00  0.000000e+00  1.000000e+00
   outer loop
     vertex  2.030154e+01  3.328990e+01  1.200000e+01
     vertex  2.178606e+01  3.116978e+01  1.200000e+01
     vertex  2.250000e+01  3.066987e+01  1.200000e+01
   endloop
 endfacet
 facet normal  0.000000e+00  0.000000e+00  1.000000e+00
   outer loop
     vertex  2.030154e+01  3.328990e+01  1.200000e+01
     vertex  2.066987e+01  3.250000e+01  1.200000e+01
     vertex  2.178606e+01  3.116978e+01  1.200000e+01
   endloop
 endfacet
 facet normal  0.000000e+00  0.000000e+00  1.000000e+00
   outer loop
     vertex  2.500000e+01  3.000000e+01  1.200000e+01
     vertex  2.250000e+01  3.066987e+01  1.200000e+01
     vertex  2.328990e+01  3.030154e+01  1.200000e+01
   endloop
 endfacet
 facet normal  0.000000e+00  0.000000e+00  1.000000e+00
   outer loop
     vertex  2.500000e+01  3.000000e+01  1.200000e+01
     vertex  2.328990e+01  3.030154e+01  1.200000e+01
     vertex  2.413176e+01  3.007596e+01  1.200000e+01
   endloop
 endfacet
 facet normal  0.000000e+00  0.000000e+00  1.000000e+00
   outer loop
     vertex  2.000000e+01  3.500000e+01  1.200000e+01
     vertex  2.007596e+01  3.413176e+01  1.200000e+01
     vertex  2.030154e+01  3.328990e+01  1.200000e+01
   endloop
 endfacet
 facet normal  0.000000e+00  0.000000e+00  1.000000e+00
   outer loop
     vertex  2.000000e+01  3.500000e+01  1.200000e+01
     vertex  2.030154e+01  3.328990e+01  1.200000e+01
     vertex  2.250000e+01  3.066987e+01  1.200000e+01
   endloop
 endfacet
 facet normal  0.000000e+00  0.000000e+00  1.000000e+00
   outer loop
     vertex  2.000000e+01  3.500000e+01  1.200000e+01
     vertex  2.250000e+01  3.066987e+01  1.200000e+01
     vertex  2.500000e+01  3.000000e+01  1.200000e+01
   endloop
 endfacet
 facet normal  0.000000e+00  0.000000e+00  1.000000e+00
   outer loop
     vertex  2.066987e+01  4.750000e+01  1.200000e+01
     vertex  2.030154e+01  4.671010e+01  1.200000e+01
     vertex  2.007596e+01  4.586824e+01  1.200000e+01
   endloop
 endfacet
 facet normal  0.000000e+00  0.000000e+00  1.000000e+00
   outer loop
     vertex  2.178606e+01  4.883022e+01  1.200000e+01
     vertex  2.116978e+01  4.821394e+01  1.200000e+01
     vertex  2.066987e+01  4.750000e+01  1.200000e+01
   endloop
 endfacet
 facet normal  0.000000e+00  0.000000e+00  1.000000e+00
   outer loop
     vertex  2.178606e+01  4.883022e+01  1.200000e+01
     vertex  2.066987e+01  4.750000e+01  1.200000e+01
     vertex  2.007596e+01  4.586824e+01  1.200000e+01
   endloop
 endfacet
 facet normal  0.000000e+00  0.000000e+00  1.000000e+00
   outer loop
     vertex  2.328990e+01  4.969846e+01  1.200000e+01
     vertex  2.250000e+01  4.933013e+01  1.200000e+01
     vertex  2.178606e+01  4.883022e+01  1.200000e+01
   endloop
 endfacet
 facet normal  0.000000e+00  0.000000e+00  1.000000e+00
   outer loop
     vertex  2.328990e+01  4.969846e+01  1.200000e+01
     vertex  2.007596e+01  4.586824e+01  1.200000e+01
     vertex  2.000000e+01  4.500000e+01  1.200000e+01
   endloop
 endfacet
 facet normal  0.000000e+00  0.000000e+00  1.000000e+00
   outer loop
     vertex  2.328990e+01  4.969846e+01  1.200000e+01
     vertex  2.178606e+01  4.883022e+01  1.200000e+01
     vertex  2.007596e+01  4.586824e+01  1.200000e+01
   endloop
 endfacet
 facet normal  0.000000e+00  0.000000e+00  1.000000e+00
   outer loop
     vertex  2.500000e+01  5.000000e+01  1.200000e+01
     vertex  2.413176e+01  4.992404e+01  1.200000e+01
     vertex  2.328990e+01  4.969846e+01  1.200000e+01
   endloop
 endfacet
 facet normal  0.000000e+00  0.000000e+00  1.000000e+00
   outer loop
     vertex  2.500000e+01  5.000000e+01  1.200000e+01
     vertex  2.000000e+01  4.500000e+01  1.200000e+01
     vertex  2.000000e+01  3.500000e+01  1.200000e+01
   endloop
 endfacet
 facet normal  0.000000e+00  0.000000e+00  1.000000e+00
   outer loop
     vertex  2.500000e+01  5.000000e+01  1.200000e+01
     vertex  2.000000e+01  3.500000e+01  1.200000e+01
     vertex  2.500000e+01  3.000000e+01  1.200000e+01
   endloop
 endfacet
 facet normal  0.000000e+00  0.000000e+00  1.000000e+00
   outer loop
     vertex  2.500000e+01  5.000000e+01  1.200000e+01
     vertex  2.328990e+01  4.969846e+01  1.200000e+01
     vertex  2.000000e+01  4.500000e+01  1.200000e+01
   endloop
 endfacet
 facet normal  0.000000e+00  0.000000e+00  1.000000e+00
   outer loop
     vertex  7.883022e+01  3.178606e+01  1.200000e+01
     vertex  7.750000e+01  3.066987e+01  1.200000e+01
     vertex  7.821394e+01  3.116978e+01  1.200000e+01
   endloop
 endfacet
 facet normal  0.000000e+00  0.000000e+00  1.000000e+00
   outer loop
     vertex  7.969846e+01  3.328990e+01  1.200000e+01
     vertex  7.586824e+01  3.007596e+01  1.200000e+01
     vertex  7.671010e+01  3.030154e+01  1.200000e+01
   endloop
 endfacet
 facet normal  0.000000e+00  0.000000e+00  1.000000e+00
   outer loop
     vertex  7.969846e+01  3.328990e+01  1.200000e+01
     vertex  7.671010e+01  3.030154e+01  1.200000e+01
     vertex  7.750000e+01  3.066987e+01  1.200000e+01
   endloop
 endfacet
 facet normal  0.000000e+00  0.000000e+00  1.000000e+00
   outer loop
     vertex  7.969846e+01  3.328990e+01  1.200000e+01
     vertex  7.883022e+01  3.178606e+01  1.200000e+01
     vertex  7.933013e+01  3.250000e+01  1.200000e+01
   endloop
 endfacet
 facet normal  0.000000e+00  0.000000e+00  1.000000e+00
   outer loop
     vertex  7.969846e+01  3.328990e+01  1.200000e+01
     vertex  7.750000e+01  3.066987e+01  1.200000e+01
     vertex  7.883022e+01  3.178606e+01  1.200000e+01
   endloop
 endfacet
 facet normal  0.000000e+00  0.000000e+00  1.000000e+00
   outer loop
     vertex  8.000000e+01  3.500000e+01  1.200000e+01
     vertex  7.500000e+01  3.000000e+01  1.200000e+01
     vertex  7.586824e+01  3.007596e+01  1.200000e+01
   endloop
 endfacet
 facet normal  0.000000e+00  0.000000e+00  1.000000e+00
   outer loop
     vertex  8.000000e+01  3.500000e+01  1.200000e+01
     vertex  7.969846e+01  3.328990e+01  1.200000e+01
     vertex  7.992404e+01  3.413176e+01  1.200000e+01
   endloop
 endfacet
 facet normal  0.000000e+00  0.000000e+00  1.000000e+00
   outer loop
     vertex  8.000000e+01  3.500000e+01  1.200000e+01
     vertex  7.586824e+01  3.007596e+01  1.200000e+01
     vertex  7.969846e+01  3.328990e+01  1.200000e+01
   endloop
 endfacet
 facet normal  0.000000e+00  0.000000e+00  1.000000e+00
   outer loop
     vertex  7.500000e+01  5.000000e+01  1.200000e+01
     vertex  2.500000e+01  3.000000e+01  1.200000e+01
     vertex  7.500000e+01  3.000000e+01  1.200000e+01
   endloop
 endfacet
 facet normal  0.000000e+00  0.000000e+00  1.000000e+00
   outer loop
     vertex  7.500000e+01  5.000000e+01  1.200000e+01
     vertex  2.500000e+01  5.000000e+01  1.200000e+01
     vertex  2.500000e+01  3.000000e+01  1.200000e+01
   endloop
 endfacet
 facet normal  0.000000e+00  0.000000e+00  1.000000e+00
   outer loop
     vertex  8.000000e+01  4.500000e+01  1.200000e+01
     vertex  7.500000e+01  3.000000e+01  1.200000e+01
     vertex  8.000000e+01  3.500000e+01  1.200000e+01
   endloop
 endfacet
 facet normal  0.000000e+00  0.000000e+00  1.000000e+00
   outer loop
     vertex  8.000000e+01  4.500000e+01  1.200000e+01
     vertex  7.500000e+01  5.000000e+01  1.200000e+01
     vertex  7.500000e+01  3.000000e+01  1.200000e+01
   endloop
 endfacet
 facet normal  0.000000e+00  0.000000e+00  1.000000e+00
   outer loop
     vertex  7.750000e+01  4.933013e+01  1.200000e+01
     vertex  7.671010e+01  4.969846e+01  1.200000e+01
     vertex  7.586824e+01  4.992404e+01  1.200000e+01
   endloop
 endfacet
 facet normal  0.000000e+00  0.000000e+00  1.000000e+00
   outer loop
     vertex  7.933013e+01  4.750000e+01  1.200000e+01
     vertex  8.000000e+01  4.500000e+01  1.200000e+01
     vertex  7.992404e+01  4.586824e+01  1.200000e+01
   endloop
 endfacet
 facet normal  0.000000e+00  0.000000e+00  1.000000e+00
   outer loop
     vertex  7.933013e+01  4.750000e+01  1.200000e+01
     vertex  7.992404e+01  4.586824e+01  1.200000e+01
     vertex  7.969846e+01  4.671010e+01  1.200000e+01
   endloop
 endfacet
 facet normal  0.000000e+00  0.000000e+00  1.000000e+00
   outer loop
     vertex  7.883022e+01  4.821394e+01  1.200000e+01
     vertex  8.000000e+01  4.500000e+01  1.200000e+01
     vertex  7.933013e+01  4.750000e+01  1.200000e+01
   endloop
 endfacet
 facet normal  0.000000e+00  0.000000e+00  1.000000e+00
   outer loop
     vertex  7.821394e+01  4.883022e+01  1.200000e+01
     vertex  7.500000e+01  5.000000e+01  1.200000e+01
     vertex  8.000000e+01  4.500000e+01  1.200000e+01
   endloop
 endfacet
 facet normal  0.000000e+00  0.000000e+00  1.000000e+00
   outer loop
     vertex  7.821394e+01  4.883022e+01  1.200000e+01
     vertex  7.750000e+01  4.933013e+01  1.200000e+01
     vertex  7.586824e+01  4.992404e+01  1.200000e+01
   endloop
 endfacet
 facet normal  0.000000e+00  0.000000e+00  1.000000e+00
   outer loop
     vertex  7.821394e+01  4.883022e+01  1.200000e+01
     vertex  8.000000e+01  4.500000e+01  1.200000e+01
     vertex  7.883022e+01  4.821394e+01  1.200000e+01
   endloop
 endfacet
 facet normal  0.000000e+00  0.000000e+00  1.000000e+00
   outer loop
     vertex  7.821394e+01  4.883022e+01  1.200000e+01
     vertex  7.586824e+01  4.992404e+01  1.200000e+01
     vertex  7.500000e+01  5.000000e+01  1.200000e+01
   endloop
 endfacet
endsolid
