solid 
 facet normal -1.000000e+00  0.000000e+00  0.000000e+00
   outer loop
     vertex  0.000000e+00  0.000000e+00  2.000000e+01
     vertex  0.000000e+00  8.000000e+01  0.000000e+00
     vertex  0.000000e+00  0.000000e+00  0.000000e+00
   endloop
 endfacet
 facet normal -1.000000e+00  0.000000e+00  0.000000e+00
   outer loop
     vertex  0.000000e+00  0.000000e+00  2.000000e+01
     vertex  0.000000e+00  8.000000e+01  2.000000e+01
     vertex  0.000000e+00  8.000000e+01  0.000000e+00
   endloop
 endfacet
 facet normal  0.000000e+00 -1.000000e+00 -0.000000e+00
   outer loop
     vertex  1.000000e+02  0.000000e+00  2.000000e+01
     vertex  0.000000e+00  0.000000e+00  0.000000e+00
     vertex  1.000000e+02  0.000000e+00  0.000000e+00
   endloop
 endfacet
 facet normal -0.000000e+00 -1.000000e+00  0.000000e+00
   outer loop
     vertex  1.000000e+02  0.000000e+00  2.000000e+01
     vertex  0.000000e+00  0.000000e+00  2.000000e+01
     vertex  0.000000e+00  0.000000e+00  0.000000e+00
   endloop
 endfacet
 facet normal  0.000000e+00  0.000000e+00  1.000000e+00
   outer loop
     vertex  2.109084e+01  2.688255e+01  2.000000e+01
     vertex  0.000000e+00  0.000000e+00  2.000000e+01
     vertex  2.188255e+01  2.609084e+01  2.000000e+01
   endloop
 endfacet
 facet normal  0.000000e+00  0.000000e+00  1.000000e+00
   outer loop
     vertex  2.283058e+01  2.549516e+01  2.000000e+01
     vertex  2.188255e+01  2.609084e+01  2.000000e+01
     vertex  0.000000e+00  0.000000e+00  2.000000e+01
   endloop
 endfacet
 facet normal  0.000000e+00  0.000000e+00  1.000000e+00
   outer loop
     vertex  2.049516e+01  2.783058e+01  2.000000e+01
     vertex  0.000000e+00  0.000000e+00  2.000000e+01
     vertex  2.109084e+01  2.688255e+01  2.000000e+01
   endloop
 endfacet
 facet normal  0.000000e+00  0.000000e+00  1.000000e+00
   outer loop
     vertex  2.388740e+01  2.512536e+01  2.000000e+01
     vertex  2.283058e+01  2.549516e+01  2.000000e+01
     vertex  0.000000e+00  0.000000e+00  2.000000e+01
   endloop
 endfacet
 facet normal  0.000000e+00  0.000000e+00  1.000000e+00
   outer loop
     vertex  2.012536e+01  2.888740e+01  2.000000e+01
     vertex  0.000000e+00  0.000000e+00  2.000000e+01
     vertex  2.049516e+01  2.783058e+01  2.000000e+01
   endloop
 endfacet
 facet normal  0.000000e+00  0.000000e+00  1.000000e+00
   outer loop
     vertex  2.000000e+01  3.000000e+01  2.000000e+01
     vertex  0.000000e+00  0.000000e+00  2.000000e+01
     vertex  2.012536e+01  2.888740e+01  2.000000e+01
   endloop
 endfacet
 facet normal  0.000000e+00  0.000000e+00  1.000000e+00
   outer loop
     vertex  2.500000e+01  2.500000e+01  2.000000e+01
     vertex  2.388740e+01  2.512536e+01  2.000000e+01
     vertex  0.000000e+00  0.000000e+00  2.000000e+01
   endloop
 endfacet
 facet normal  0.000000e+00  0.000000e+00  1.000000e+00
   outer loop
     vertex  0.000000e+00  8.000000e+01  2.000000e+01
     vertex  2.000000e+01  3.000000e+01  2.000000e+01
     vertex  2.000000e+01  5.000000e+01  2.000000e+01
   endloop
 endfacet
 facet normal  0.000000e+00  0.000000e+00  1.000000e+00
   outer loop
     vertex  0.000000e+00  8.000000e+01  2.000000e+01
     vertex  2.283058e+01  5.450484e+01  2.000000e+01
     vertex  2.388740e+01  5.487464e+01  2.000000e+01
   endloop
 endfacet
 facet normal  0.000000e+00  0.000000e+00  1.000000e+00
   outer loop
     vertex  0.000000e+00  8.000000e+01  2.000000e+01
     vertex  2.188255e+01  5.390916e+01  2.000000e+01
     vertex  2.283058e+01  5.450484e+01  2.000000e+01
   endloop
 endfacet
 facet normal  0.000000e+00  0.000000e+00  1.000000e+00
   outer loop
     vertex  0.000000e+00  8.000000e+01  2.000000e+01
     vertex  2.109084e+01  5.311745e+01  2.000000e+01
     vertex  2.188255e+01  5.390916e+01  2.000000e+01
   endloop
 endfacet
 facet normal  0.000000e+00  0.000000e+00  1.000000e+00
   outer loop
     vertex  0.000000e+00  8.000000e+01  2.000000e+01
     vertex  2.049516e+01  5.216942e+01  2.000000e+01
     vertex  2.109084e+01  5.311745e+01  2.000000e+01
   endloop
 endfacet
 facet normal  0.000000e+00  0.000000e+00  1.000000e+00
   outer loop
     vertex  0.000000e+00  8.000000e+01  2.000000e+01
     vertex  2.012536e+01  5.111260e+01  2.000000e+01
     vertex  2.049516e+01  5.216942e+01  2.000000e+01
   endloop
 endfacet
 facet normal  0.000000e+00  0.000000e+00  1.000000e+00
   outer loop
     vertex  0.000000e+00  8.000000e+01  2.000000e+01
     vertex  2.000000e+01  5.000000e+01  2.000000e+01
     vertex  2.012536e+01  5.111260e+01  2.000000e+01
   endloop
 endfacet
 facet normal  0.000000e+00  0.000000e+00  1.000000e+00
   outer loop
     vertex  0.000000e+00  8.000000e+01  2.000000e+01
     vertex  0.000000e+00  0.000000e+00  2.000000e+01
     vertex  2.000000e+01  3.000000e+01  2.000000e+01
   endloop
 endfacet
 facet normal  0.000000e+00  0.000000e+00  1.000000e+00
   outer loop
     vertex  2.500000e+01  5.500000e+01  2.000000e+01
     vertex  0.000000e+00  8.000000e+01  2.000000e+01
     vertex  2.388740e+01  5.487464e+01  2.000000e+01
   endloop
 endfacet
 facet normal  0.000000e+00  0.000000e+00  1.000000e+00
   outer loop
     vertex  7.500000e+01  2.500000e+01  2.000000e+01
     vertex  0.000000e+00  0.000000e+00  2.000000e+01
     vertex  1.000000e+02  0.000000e+00  2.000000e+01
   endloop
 endfacet
 facet normal  0.000000e+00  0.000000e+00  1.000000e+00
   outer loop
     vertex  7.500000e+01  2.500000e+01  2.000000e+01
     vertex  2.500000e+01  2.500000e+01  2.000000e+01
     vertex  0.000000e+00  0.000000e+00  2.000000e+01
   endloop
 endfacet
 facet normal  0.000000e+00  0.000000e+00  1.000000e+00
   outer loop
     vertex  7.611260e+01  2.512536e+01  2.000000e+01
     vertex  7.500000e+01  2.500000e+01  2.000000e+01
     vertex  1.000000e+02  0.000000e+00  2.000000e+01
   endloop
 endfacet
 facet normal  0.000000e+00  0.000000e+00  1.000000e+00
   outer loop
     vertex  7.716942e+01  2.549516e+01  2.000000e+01
     vertex  7.611260e+01  2.512536e+01  2.000000e+01
     vertex  1.000000e+02  0.000000e+00  2.000000e+01
   endloop
 endfacet
 facet normal  0.000000e+00  0.000000e+00  1.000000e+00
   outer loop
     vertex  7.811745e+01  2.609084e+01  2.000000e+01
     vertex  7.716942e+01  2.549516e+01  2.000000e+01
     vertex  1.000000e+02  0.000000e+00  2.000000e+01
   endloop
 endfacet
 facet normal  0.000000e+00  0.000000e+00  1.000000e+00
   outer loop
     vertex  7.890916e+01  2.688255e+01  2.000000e+01
     vertex  7.811745e+01  2.609084e+01  2.000000e+01
     vertex  1.000000e+02  0.000000e+00  2.000000e+01
   endloop
 endfacet
 facet normal  0.000000e+00  0.000000e+00  1.000000e+00
   outer loop
     vertex  7.950484e+01  2.783058e+01  2.000000e+01
     vertex  7.890916e+01  2.688255e+01  2.000000e+01
     vertex  1.000000e+02  0.000000e+00  2.000000e+01
   endloop
 endfacet
 facet normal  0.000000e+00  0.000000e+00  1.000000e+00
   outer loop
     vertex  7.987464e+01  2.888740e+01  2.000000e+01
     vertex  7.950484e+01  2.783058e+01  2.000000e+01
     vertex  1.000000e+02  0.000000e+00  2.000000e+01
   endloop
 endfacet
 facet normal  0.000000e+00  0.000000e+00  1.000000e+00
   outer loop
     vertex  8.000000e+01  3.000000e+01  2.000000e+01
     vertex  7.987464e+01  2.888740e+01  2.000000e+01
     vertex  1.000000e+02  0.000000e+00  2.000000e+01
   endloop
 endfacet
 facet normal  0.000000e+00  0.000000e+00  1.000000e+00
   outer loop
     vertex  1.000000e+02  8.000000e+01  2.000000e+01
     vertex  2.500000e+01  5.500000e+01  2.000000e+01
     vertex  7.500000e+01  5.500000e+01  2.000000e+01
   endloop
 endfacet
 facet normal  0.000000e+00  0.000000e+00  1.000000e+00
   outer loop
     vertex  1.000000e+02  8.000000e+01  2.000000e+01
     vertex  7.987464e+01  5.111260e+01  2.000000e+01
     vertex  8.000000e+01  5.000000e+01  2.000000e+01
   endloop
 endfacet
 facet normal  0.000000e+00  0.000000e+00  1.000000e+00
   outer loop
     vertex  1.000000e+02  8.000000e+01  2.000000e+01
     vertex  7.950484e+01  5.216942e+01  2.000000e+01
     vertex  7.987464e+01  5.111260e+01  2.000000e+01
   endloop
 endfacet
 facet normal  0.000000e+00  0.000000e+00  1.000000e+00
   outer loop
     vertex  1.000000e+02  8.000000e+01  2.000000e+01
     vertex  7.890916e+01  5.311745e+01  2.000000e+01
     vertex  7.950484e+01  5.216942e+01  2.000000e+01
   endloop
 endfacet
 facet normal  0.000000e+00  0.000000e+00  1.000000e+00
   outer loop
     vertex  1.000000e+02  8.000000e+01  2.000000e+01
     vertex  7.811745e+01  5.390916e+01  2.000000e+01
     vertex  7.890916e+01  5.311745e+01  2.000000e+01
   endloop
 endfacet
 facet normal  0.000000e+00  0.000000e+00  1.000000e+00
   outer loop
     vertex  1.000000e+02  8.000000e+01  2.000000e+01
     vertex  7.716942e+01  5.450484e+01  2.000000e+01
     vertex  7.811745e+01  5.390916e+01  2.000000e+01
   endloop
 endfacet
 facet normal  0.000000e+00  0.000000e+00  1.000000e+00
   outer loop
     vertex  1.000000e+02  8.000000e+01  2.000000e+01
     vertex  7.611260e+01  5.487464e+01  2.000000e+01
     vertex  7.716942e+01  5.450484e+01  2.000000e+01
   endloop
 endfacet
 facet normal  0.000000e+00  0.000000e+00  1.000000e+00
   outer loop
     vertex  1.000000e+02  8.000000e+01  2.000000e+01
     vertex  7.500000e+01  5.500000e+01  2.000000e+01
     vertex  7.611260e+01  5.487464e+01  2.000000e+01
   endloop
 endfacet
 facet normal  0.000000e+00  0.000000e+00  1.000000e+00
   outer loop
     vertex  1.000000e+02  8.000000e+01  2.000000e+01
     vertex  8.000000e+01  5.000000e+01  2.000000e+01
     vertex  8.000000e+01  3.000000e+01  2.000000e+01
   endloop
 endfacet
 facet normal  0.000000e+00  0.000000e+00  1.000000e+00
   outer loop
     vertex  1.000000e+02  8.000000e+01  2.000000e+01
     vertex  0.000000e+00  8.000000e+01  2.000000e+01
     vertex  2.500000e+01  5.500000e+01  2.000000e+01
   endloop
 endfacet
 facet normal  0.000000e+00  0.000000e+00  1.000000e+00
   outer loop
     vertex  1.000000e+02  8.000000e+01  2.000000e+01
     vertex  8.000000e+01  3.000000e+01  2.000000e+01
     vertex  1.000000e+02  0.000000e+00  2.000000e+01
   endloop
 endfacet
 facet normal  0.000000e+00  1.000000e+00  0.000000e+00
   outer loop
     vertex  1.000000e+02  8.000000e+01  2.000000e+01
     vertex  1.000000e+02  8.000000e+01  0.000000e+00
     vertex  0.000000e+00  8.000000e+01  0.000000e+00
   endloop
 endfacet
 facet normal  0.000000e+00  1.000000e+00  0.000000e+00
   outer loop
     vertex  1.000000e+02  8.000000e+01  2.000000e+01
     vertex  0.000000e+00  8.000000e+01  0.000000e+00
     vertex  0.000000e+00  8.000000e+01  2.000000e+01
   endloop
 endfacet
 facet normal -0.000000e+00  0.000000e+00 -1.000000e+00
   outer loop
     vertex  1.000000e+02  8.000000e+01  0.000000e+00
     vertex  0.000000e+00  0.000000e+00  0.000000e+00
     vertex  0.000000e+00  8.000000e+01  0.000000e+00
   endloop
 endfacet
 facet normal  0.000000e+00 -0.000000e+00 -1.000000e+00
   outer loop
     vertex  1.000000e+02  8.000000e+01  0.000000e+00
     vertex  1.000000e+02  0.000000e+00  0.000000e+00
     vertex  0.000000e+00  0.000000e+00  0.000000e+00
   endloop
 endfacet
 facet normal  1.000000e+00  0.000000e+00  0.000000e+00
   outer loop
     vertex  1.000000e+02  0.000000e+00  2.000000e+01
     vertex  1.000000e+02  0.000000e+00  0.000000e+00
     vertex  1.000000e+02  8.000000e+01  0.000000e+00
   endloop
 endfacet
 facet normal  1.000000e+00 -0.000000e+00  0.000000e+00
   outer loop
     vertex  1.000000e+02  0.000000e+00  2.000000e+01
     vertex  1.000000e+02  8.000000e+01  0.000000e+00
     vertex  1.000000e+02  8.000000e+01  2.000000e+01
   endloop
 endfacet
 facet normal  0.000000e+00  1.000000e+00  0.000000e+00
   outer loop
     vertex  7.500000e+01  2.500000e+01  2.000000e+01
     vertex  2.500000e+01  2.500000e+01  1.200000e+01
     vertex  2.500000e+01  2.500000e+01  2.000000e+01
   endloop
 endfacet
 facet normal  0.000000e+00  1.000000e+00  0.000000e+00
   outer loop
     vertex  7.500000e+01  2.500000e+01  2.000000e+01
     vertex  7.500000e+01  2.500000e+01  1.200000e+01
     vertex  2.500000e+01  2.500000e+01  1.200000e+01
   endloop
 endfacet
 facet normal -1.119645e-01  9.937122e-01  0.000000e+00
   outer loop
     vertex  7.611260e+01  2.512536e+01  2.000000e+01
     vertex  7.500000e+01  2.500000e+01  1.200000e+01
     vertex  7.500000e+01  2.500000e+01  2.000000e+01
   endloop
 endfacet
 facet normal -1.119645e-01  9.937122e-01  0.000000e+00
   outer loop
     vertex  7.611260e+01  2.512536e+01  2.000000e+01
     vertex  7.611260e+01  2.512536e+01  1.200000e+01
     vertex  7.500000e+01  2.500000e+01  1.200000e+01
   endloop
 endfacet
 facet normal -3.302791e-01  9.438833e-01  0.000000e+00
   outer loop
     vertex  7.716942e+01  2.549516e+01  2.000000e+01
     vertex  7.716942e+01  2.549516e+01  1.200000e+01
     vertex  7.611260e+01  2.512536e+01  1.200000e+01
   endloop
 endfacet
 facet normal -3.302791e-01  9.438833e-01  0.000000e+00
   outer loop
     vertex  7.716942e+01  2.549516e+01  2.000000e+01
     vertex  7.611260e+01  2.512536e+01  1.200000e+01
     vertex  7.611260e+01  2.512536e+01  2.000000e+01
   endloop
 endfacet
 facet normal -5.320321e-01  8.467242e-01  0.000000e+00
   outer loop
     vertex  7.811745e+01  2.609084e+01  2.000000e+01
     vertex  7.811745e+01  2.609084e+01  1.200000e+01
     vertex  7.716942e+01  2.549516e+01  1.200000e+01
   endloop
 endfacet
 facet normal -5.320321e-01  8.467242e-01  0.000000e+00
   outer loop
     vertex  7.811745e+01  2.609084e+01  2.000000e+01
     vertex  7.716942e+01  2.549516e+01  1.200000e+01
     vertex  7.716942e+01  2.549516e+01  2.000000e+01
   endloop
 endfacet
 facet normal -7.071068e-01  7.071068e-01  0.000000e+00
   outer loop
     vertex  7.890916e+01  2.688255e+01  2.000000e+01
     vertex  7.890916e+01  2.688255e+01  1.200000e+01
     vertex  7.811745e+01  2.609084e+01  1.200000e+01
   endloop
 endfacet
 facet normal -7.071068e-01  7.071068e-01  0.000000e+00
   outer loop
     vertex  7.890916e+01  2.688255e+01  2.000000e+01
     vertex  7.811745e+01  2.609084e+01  1.200000e+01
     vertex  7.811745e+01  2.609084e+01  2.000000e+01
   endloop
 endfacet
 facet normal -8.467242e-01  5.320321e-01  0.000000e+00
   outer loop
     vertex  7.950484e+01  2.783058e+01  2.000000e+01
     vertex  7.950484e+01  2.783058e+01  1.200000e+01
     vertex  7.890916e+01  2.688255e+01  1.200000e+01
   endloop
 endfacet
 facet normal -8.467242e-01  5.320321e-01  0.000000e+00
   outer loop
     vertex  7.950484e+01  2.783058e+01  2.000000e+01
     vertex  7.890916e+01  2.688255e+01  1.200000e+01
     vertex  7.890916e+01  2.688255e+01  2.000000e+01
   endloop
 endfacet
 facet normal -9.438833e-01  3.302791e-01  0.000000e+00
   outer loop
     vertex  7.987464e+01  2.888740e+01  2.000000e+01
     vertex  7.987464e+01  2.888740e+01  1.200000e+01
     vertex  7.950484e+01  2.783058e+01  1.200000e+01
   endloop
 endfacet
 facet normal -9.438833e-01  3.302791e-01  0.000000e+00
   outer loop
     vertex  7.987464e+01  2.888740e+01  2.000000e+01
     vertex  7.950484e+01  2.783058e+01  1.200000e+01
     vertex  7.950484e+01  2.783058e+01  2.000000e+01
   endloop
 endfacet
 facet normal -9.937122e-01  1.119645e-01  0.000000e+00
   outer loop
     vertex  8.000000e+01  3.000000e+01  2.000000e+01
     vertex  8.000000e+01  3.000000e+01  1.200000e+01
     vertex  7.987464e+01  2.888740e+01  1.200000e+01
   endloop
 endfacet
 facet normal -9.937122e-01  1.119645e-01  0.000000e+00
   outer loop
     vertex  8.000000e+01  3.000000e+01  2.000000e+01
     vertex  7.987464e+01  2.888740e+01  1.200000e+01
     vertex  7.987464e+01  2.888740e+01  2.000000e+01
   endloop
 endfacet
 facet normal -1.000000e+00 -0.000000e+00  0.000000e+00
   outer loop
     vertex  8.000000e+01  5.000000e+01  2.000000e+01
     vertex  8.000000e+01  3.000000e+01  1.200000e+01
     vertex  8.000000e+01  3.000000e+01  2.000000e+01
   endloop
 endfacet
 facet normal -1.000000e+00  0.000000e+00 -0.000000e+00
   outer loop
     vertex  8.000000e+01  5.000000e+01  2.000000e+01
     vertex  8.000000e+01  5.000000e+01  1.200000e+01
     vertex  8.000000e+01  3.000000e+01  1.200000e+01
   endloop
 endfacet
 facet normal -9.937122e-01 -1.119645e-01  0.000000e+00
   outer loop
     vertex  7.987464e+01  5.111260e+01  2.000000e+01
     vertex  8.000000e+01  5.000000e+01  1.200000e+01
     vertex  8.000000e+01  5.000000e+01  2.000000e+01
   endloop
 endfacet
 facet normal -9.937122e-01 -1.119645e-01 -0.000000e+00
   outer loop
     vertex  7.987464e+01  5.111260e+01  2.000000e+01
     vertex  7.987464e+01  5.111260e+01  1.200000e+01
     vertex  8.000000e+01  5.000000e+01  1.200000e+01
   endloop
 endfacet
 facet normal -9.438833e-01 -3.302791e-01 -0.000000e+00
   outer loop
     vertex  7.950484e+01  5.216942e+01  2.000000e+01
     vertex  7.950484e+01  5.216942e+01  1.200000e+01
     vertex  7.987464e+01  5.111260e+01  1.200000e+01
   endloop
 endfacet
 facet normal -9.438833e-01 -3.302791e-01  0.000000e+00
   outer loop
     vertex  7.950484e+01  5.216942e+01  2.000000e+01
     vertex  7.987464e+01  5.111260e+01  1.200000e+01
     vertex  7.987464e+01  5.111260e+01  2.000000e+01
   endloop
 endfacet
 facet normal -8.467242e-01 -5.320321e-01 -0.000000e+00
   outer loop
     vertex  7.890916e+01  5.311745e+01  2.000000e+01
     vertex  7.890916e+01  5.311745e+01  1.200000e+01
     vertex  7.950484e+01  5.216942e+01  1.200000e+01
   endloop
 endfacet
 facet normal -8.467242e-01 -5.320321e-01  0.000000e+00
   outer loop
     vertex  7.890916e+01  5.311745e+01  2.000000e+01
     vertex  7.950484e+01  5.216942e+01  1.200000e+01
     vertex  7.950484e+01  5.216942e+01  2.000000e+01
   endloop
 endfacet
 facet normal -7.071068e-01 -7.071068e-01 -0.000000e+00
   outer loop
     vertex  7.811745e+01  5.390916e+01  2.000000e+01
     vertex  7.811745e+01  5.390916e+01  1.200000e+01
     vertex  7.890916e+01  5.311745e+01  1.200000e+01
   endloop
 endfacet
 facet normal -7.071068e-01 -7.071068e-01  0.000000e+00
   outer loop
     vertex  7.811745e+01  5.390916e+01  2.000000e+01
     vertex  7.890916e+01  5.311745e+01  1.200000e+01
     vertex  7.890916e+01  5.311745e+01  2.000000e+01
   endloop
 endfacet
 facet normal -5.320321e-01 -8.467242e-01 -0.000000e+00
   outer loop
     vertex  7.716942e+01  5.450484e+01  2.000000e+01
     vertex  7.716942e+01  5.450484e+01  1.200000e+01
     vertex  7.811745e+01  5.390916e+01  1.200000e+01
   endloop
 endfacet
 facet normal -5.320321e-01 -8.467242e-01  0.000000e+00
   outer loop
     vertex  7.716942e+01  5.450484e+01  2.000000e+01
     vertex  7.811745e+01  5.390916e+01  1.200000e+01
     vertex  7.811745e+01  5.390916e+01  2.000000e+01
   endloop
 endfacet
 facet normal -3.302791e-01 -9.438833e-01 -0.000000e+00
   outer loop
     vertex  7.611260e+01  5.487464e+01  2.000000e+01
     vertex  7.611260e+01  5.487464e+01  1.200000e+01
     vertex  7.716942e+01  5.450484e+01  1.200000e+01
   endloop
 endfacet
 facet normal -3.302791e-01 -9.438833e-01  0.000000e+00
   outer loop
     vertex  7.611260e+01  5.487464e+01  2.000000e+01
     vertex  7.716942e+01  5.450484e+01  1.200000e+01
     vertex  7.716942e+01  5.450484e+01  2.000000e+01
   endloop
 endfacet
 facet normal -1.119645e-01 -9.937122e-01 -0.000000e+00
   outer loop
     vertex  7.500000e+01  5.500000e+01  2.000000e+01
     vertex  7.500000e+01  5.500000e+01  1.200000e+01
     vertex  7.611260e+01  5.487464e+01  1.200000e+01
   endloop
 endfacet
 facet normal -1.119645e-01 -9.937122e-01  0.000000e+00
   outer loop
     vertex  7.500000e+01  5.500000e+01  2.000000e+01
     vertex  7.611260e+01  5.487464e+01  1.200000e+01
     vertex  7.611260e+01  5.487464e+01  2.000000e+01
   endloop
 endfacet
 facet normal  0.000000e+00 -1.000000e+00  0.000000e+00
   outer loop
     vertex  2.500000e+01  5.500000e+01  2.000000e+01
     vertex  7.500000e+01  5.500000e+01  1.200000e+01
     vertex  7.500000e+01  5.500000e+01  2.000000e+01
   endloop
 endfacet
 facet normal  0.000000e+00 -1.000000e+00  0.000000e+00
   outer loop
     vertex  2.500000e+01  5.500000e+01  2.000000e+01
     vertex  2.500000e+01  5.500000e+01  1.200000e+01
     vertex  7.500000e+01  5.500000e+01  1.200000e+01
   endloop
 endfacet
 facet normal  1.119645e-01 -9.937122e-01  0.000000e+00
   outer loop
     vertex  2.388740e+01  5.487464e+01  2.000000e+01
     vertex  2.500000e+01  5.500000e+01  1.200000e+01
     vertex  2.500000e+01  5.500000e+01  2.000000e+01
   endloop
 endfacet
 facet normal  1.119645e-01 -9.937122e-01  0.000000e+00
   outer loop
     vertex  2.388740e+01  5.487464e+01  2.000000e+01
     vertex  2.388740e+01  5.487464e+01  1.200000e+01
     vertex  2.500000e+01  5.500000e+01  1.200000e+01
   endloop
 endfacet
 facet normal  3.302791e-01 -9.438833e-01  0.000000e+00
   outer loop
     vertex  2.283058e+01  5.450484e+01  2.000000e+01
     vertex  2.283058e+01  5.450484e+01  1.200000e+01
     vertex  2.388740e+01  5.487464e+01  1.200000e+01
   endloop
 endfacet
 facet normal  3.302791e-01 -9.438833e-01  0.000000e+00
   outer loop
     vertex  2.283058e+01  5.450484e+01  2.000000e+01
     vertex  2.388740e+01  5.487464e+01  1.200000e+01
     vertex  2.388740e+01  5.487464e+01  2.000000e+01
   endloop
 endfacet
 facet normal  5.320321e-01 -8.467242e-01  0.000000e+00
   outer loop
     vertex  2.188255e+01  5.390916e+01  2.000000e+01
     vertex  2.188255e+01  5.390916e+01  1.200000e+01
     vertex  2.283058e+01  5.450484e+01  1.200000e+01
   endloop
 endfacet
 facet normal  5.320321e-01 -8.467242e-01  0.000000e+00
   outer loop
     vertex  2.188255e+01  5.390916e+01  2.000000e+01
     vertex  2.283058e+01  5.450484e+01  1.200000e+01
     vertex  2.283058e+01  5.450484e+01  2.000000e+01
   endloop
 endfacet
 facet normal  7.071068e-01 -7.071068e-01  0.000000e+00
   outer loop
     vertex  2.109084e+01  5.311745e+01  2.000000e+01
     vertex  2.109084e+01  5.311745e+01  1.200000e+01
     vertex  2.188255e+01  5.390916e+01  1.200000e+01
   endloop
 endfacet
 facet normal  7.071068e-01 -7.071068e-01  0.000000e+00
   outer loop
     vertex  2.109084e+01  5.311745e+01  2.000000e+01
     vertex  2.188255e+01  5.390916e+01  1.200000e+01
     vertex  2.188255e+01  5.390916e+01  2.000000e+01
   endloop
 endfacet
 facet normal  8.467242e-01 -5.320321e-01  0.000000e+00
   outer loop
     vertex  2.049516e+01  5.216942e+01  2.000000e+01
     vertex  2.049516e+01  5.216942e+01  1.200000e+01
     vertex  2.109084e+01  5.311745e+01  1.200000e+01
   endloop
 endfacet
 facet normal  8.467242e-01 -5.320321e-01  0.000000e+00
   outer loop
     vertex  2.049516e+01  5.216942e+01  2.000000e+01
     vertex  2.109084e+01  5.311745e+01  1.200000e+01
     vertex  2.109084e+01  5.311745e+01  2.000000e+01
   endloop
 endfacet
 facet normal  9.438833e-01 -3.302791e-01  0.000000e+00
   outer loop
     vertex  2.012536e+01  5.111260e+01  2.000000e+01
     vertex  2.012536e+01  5.111260e+01  1.200000e+01
     vertex  2.049516e+01  5.216942e+01  1.200000e+01
   endloop
 endfacet
 facet normal  9.438833e-01 -3.302791e-01  0.000000e+00
   outer loop
     vertex  2.012536e+01  5.111260e+01  2.000000e+01
     vertex  2.049516e+01  5.216942e+01  1.200000e+01
     vertex  2.049516e+01  5.216942e+01  2.000000e+01
   endloop
 endfacet
 facet normal  9.937122e-01 -1.119645e-01  0.000000e+00
   outer loop
     vertex  2.000000e+01  5.000000e+01  2.000000e+01
     vertex  2.000000e+01  5.000000e+01  1.200000e+01
     vertex  2.012536e+01  5.111260e+01  1.200000e+01
   endloop
 endfacet
 facet normal  9.937122e-01 -1.119645e-01  0.000000e+00
   outer loop
     vertex  2.000000e+01  5.000000e+01  2.000000e+01
     vertex  2.012536e+01  5.111260e+01  1.200000e+01
     vertex  2.012536e+01  5.111260e+01  2.000000e+01
   endloop
 endfacet
 facet normal  1.000000e+00 -0.000000e+00  0.000000e+00
   outer loop
     vertex  2.000000e+01  3.000000e+01  2.000000e+01
     vertex  2.000000e+01  5.000000e+01  1.200000e+01
     vertex  2.000000e+01  5.000000e+01  2.000000e+01
   endloop
 endfacet
 facet normal  1.000000e+00  0.000000e+00  0.000000e+00
   outer loop
     vertex  2.000000e+01  3.000000e+01  2.000000e+01
     vertex  2.000000e+01  3.000000e+01  1.200000e+01
     vertex  2.000000e+01  5.000000e+01  1.200000e+01
   endloop
 endfacet
 facet normal  9.937122e-01  1.119645e-01  0.000000e+00
   outer loop
     vertex  2.012536e+01  2.888740e+01  2.000000e+01
     vertex  2.000000e+01  3.000000e+01  1.200000e+01
     vertex  2.000000e+01  3.000000e+01  2.000000e+01
   endloop
 endfacet
 facet normal  9.937122e-01  1.119645e-01  0.000000e+00
   outer loop
     vertex  2.012536e+01  2.888740e+01  2.000000e+01
     vertex  2.012536e+01  2.888740e+01  1.200000e+01
     vertex  2.000000e+01  3.000000e+01  1.200000e+01
   endloop
 endfacet
 facet normal  9.438833e-01  3.302791e-01  0.000000e+00
   outer loop
     vertex  2.049516e+01  2.783058e+01  2.000000e+01
     vertex  2.049516e+01  2.783058e+01  1.200000e+01
     vertex  2.012536e+01  2.888740e+01  1.200000e+01
   endloop
 endfacet
 facet normal  9.438833e-01  3.302791e-01  0.000000e+00
   outer loop
     vertex  2.049516e+01  2.783058e+01  2.000000e+01
     vertex  2.012536e+01  2.888740e+01  1.200000e+01
     vertex  2.012536e+01  2.888740e+01  2.000000e+01
   endloop
 endfacet
 facet normal  8.467242e-01  5.320321e-01  0.000000e+00
   outer loop
     vertex  2.109084e+01  2.688255e+01  2.000000e+01
     vertex  2.109084e+01  2.688255e+01  1.200000e+01
     vertex  2.049516e+01  2.783058e+01  1.200000e+01
   endloop
 endfacet
 facet normal  8.467242e-01  5.320321e-01  0.000000e+00
   outer loop
     vertex  2.109084e+01  2.688255e+01  2.000000e+01
     vertex  2.049516e+01  2.783058e+01  1.200000e+01
     vertex  2.049516e+01  2.783058e+01  2.000000e+01
   endloop
 endfacet
 facet normal  7.071068e-01  7.071068e-01  0.000000e+00
   outer loop
     vertex  2.188255e+01  2.609084e+01  2.000000e+01
     vertex  2.188255e+01  2.609084e+01  1.200000e+01
     vertex  2.109084e+01  2.688255e+01  1.200000e+01
   endloop
 endfacet
 facet normal  7.071068e-01  7.071068e-01  0.000000e+00
   outer loop
     vertex  2.188255e+01  2.609084e+01  2.000000e+01
     vertex  2.109084e+01  2.688255e+01  1.200000e+01
     vertex  2.109084e+01  2.688255e+01  2.000000e+01
   endloop
 endfacet
 facet normal  5.320321e-01  8.467242e-01  0.000000e+00
   outer loop
     vertex  2.283058e+01  2.549516e+01  2.000000e+01
     vertex  2.283058e+01  2.549516e+01  1.200000e+01
     vertex  2.188255e+01  2.609084e+01  1.200000e+01
   endloop
 endfacet
 facet normal  5.320321e-01  8.467242e-01  0.000000e+00
   outer loop
     vertex  2.283058e+01  2.549516e+01  2.000000e+01
     vertex  2.188255e+01  2.609084e+01  1.200000e+01
     vertex  2.188255e+01  2.609084e+01  2.000000e+01
   endloop
 endfacet
 facet normal  3.302791e-01  9.438833e-01  0.000000e+00
   outer loop
     vertex  2.388740e+01  2.512536e+01  2.000000e+01
     vertex  2.388740e+01  2.512536e+01  1.200000e+01
     vertex  2.283058e+01  2.549516e+01  1.200000e+01
   endloop
 endfacet
 facet normal  3.302791e-01  9.438833e-01  0.000000e+00
   outer loop
     vertex  2.388740e+01  2.512536e+01  2.000000e+01
     vertex  2.283058e+01  2.549516e+01  1.200000e+01
     vertex  2.283058e+01  2.549516e+01  2.000000e+01
   endloop
 endfacet
 facet normal  1.119645e-01  9.937122e-01  0.000000e+00
   outer loop
     vertex  2.500000e+01  2.500000e+01  2.000000e+01
     vertex  2.500000e+01  2.500000e+01  1.200000e+01
     vertex  2.388740e+01  2.512536e+01  1.200000e+01
   endloop
 endfacet
 facet normal  1.119645e-01  9.937122e-01  0.000000e+00
   outer loop
     vertex  2.500000e+01  2.500000e+01  2.000000e+01
     vertex  2.388740e+01  2.512536e+01  1.200000e+01
     vertex  2.388740e+01  2.512536e+01  2.000000e+01
   endloop
 endfacet
 facet normal  0.000000e+00  0.000000e+00  1.000000e+00
   outer loop
     vertex  2.388740e+01  2.512536e+01  1.200000e+01
     vertex  2.109084e+01  2.688255e+01  1.200000e+01
     vertex  2.188255e+01  2.609084e+01  1.200000e+01
   endloop
 endfacet
 facet normal  0.000000e+00  0.000000e+00  1.000000e+00
   outer loop
     vertex  2.388740e+01  2.512536e+01  1.200000e+01
     vertex  2.188255e+01  2.609084e+01  1.200000e+01
     vertex  2.283058e+01  2.549516e+01  1.200000e+01
   endloop
 endfacet
 facet normal  0.000000e+00  0.000000e+00  1.000000e+00
   outer loop
     vertex  2.012536e+01  2.888740e+01  1.200000e+01
     vertex  2.049516e+01  2.783058e+01  1.200000e+01
     vertex  2.109084e+01  2.688255e+01  1.200000e+01
   endloop
 endfacet
 facet normal  0.000000e+00  0.000000e+00  1.000000e+00
   outer loop
     vertex  2.500000e+01  2.500000e+01  1.200000e+01
     vertex  2.000000e+01  3.000000e+01  1.200000e+01
     vertex  2.012536e+01  2.888740e+01  1.200000e+01
   endloop
 endfacet
 facet normal  0.000000e+00  0.000000e+00  1.000000e+00
   outer loop
     vertex  2.500000e+01  2.500000e+01  1.200000e+01
     vertex  2.012536e+01  2.888740e+01  1.200000e+01
     vertex  2.109084e+01  2.688255e+01  1.200000e+01
   endloop
 endfacet
 facet normal  0.000000e+00  0.000000e+00  1.000000e+00
   outer loop
     vertex  2.500000e+01  2.500000e+01  1.200000e+01
     vertex  2.109084e+01  2.688255e+01  1.200000e+01
     vertex  2.388740e+01  2.512536e+01  1.200000e+01
   endloop
 endfacet
 facet normal  0.000000e+00  0.000000e+00  1.000000e+00
   outer loop
     vertex  2.188255e+01  5.390916e+01  1.200000e+01
     vertex  2.109084e+01  5.311745e+01  1.200000e+01
     vertex  2.049516e+01  5.216942e+01  1.200000e+01
   endloop
 endfacet
 facet normal  0.000000e+00  0.000000e+00  1.000000e+00
   outer loop
     vertex  2.188255e+01  5.390916e+01  1.200000e+01
     vertex  2.049516e+01  5.216942e+01  1.200000e+01
     vertex  2.012536e+01  5.111260e+01  1.200000e+01
   endloop
 endfacet
 facet normal  0.000000e+00  0.000000e+00  1.000000e+00
   outer loop
     vertex  2.188255e+01  5.390916e+01  1.200000e+01
     vertex  2.012536e+01  5.111260e+01  1.200000e+01
     vertex  2.000000e+01  5.000000e+01  1.200000e+01
   endloop
 endfacet
 facet normal  0.000000e+00  0.000000e+00  1.000000e+00
   outer loop
     vertex  2.283058e+01  5.450484e+01  1.200000e+01
     vertex  2.188255e+01  5.390916e+01  1.200000e+01
     vertex  2.000000e+01  5.000000e+01  1.200000e+01
   endloop
 endfacet
 facet normal  0.000000e+00  0.000000e+00  1.000000e+00
   outer loop
     vertex  2.500000e+01  5.500000e+01  1.200000e+01
     vertex  2.388740e+01  5.487464e+01  1.200000e+01
     vertex  2.283058e+01  5.450484e+01  1.200000e+01
   endloop
 endfacet
 facet normal  0.000000e+00  0.000000e+00  1.000000e+00
   outer loop
     vertex  2.500000e+01  5.500000e+01  1.200000e+01
     vertex  2.000000e+01  5.000000e+01  1.200000e+01
     vertex  2.000000e+01  3.000000e+01  1.200000e+01
   endloop
 endfacet
 facet normal  0.000000e+00  0.000000e+00  1.000000e+00
   outer loop
     vertex  2.500000e+01  5.500000e+01  1.200000e+01
     vertex  2.000000e+01  3.000000e+01  1.200000e+01
     vertex  2.500000e+01  2.500000e+01  1.200000e+01
   endloop
 endfacet
 facet normal  0.000000e+00  0.000000e+00  1.000000e+00
   outer loop
     vertex  2.500000e+01  5.500000e+01  1.200000e+01
     vertex  2.283058e+01  5.450484e+01  1.200000e+01
     vertex  2.000000e+01  5.000000e+01  1.200000e+01
   endloop
 endfacet
 facet normal  0.000000e+00  0.000000e+00  1.000000e+00
   outer loop
     vertex  7.811745e+01  2.609084e+01  1.200000e+01
     vertex  7.500000e+01  2.500000e+01  1.200000e+01
     vertex  7.611260e+01  2.512536e+01  1.200000e+01
   endloop
 endfacet
 facet normal  0.000000e+00  0.000000e+00  1.000000e+00
   outer loop
     vertex  7.811745e+01  2.609084e+01  1.200000e+01
     vertex  7.611260e+01  2.512536e+01  1.200000e+01
     vertex  7.716942e+01  2.549516e+01  1.200000e+01
   endloop
 endfacet
 facet normal  0.000000e+00  0.000000e+00  1.000000e+00
   outer loop
     vertex  7.890916e+01  2.688255e+01  1.200000e+01
     vertex  7.500000e+01  2.500000e+01  1.200000e+01
     vertex  7.811745e+01  2.609084e+01  1.200000e+01
   endloop
 endfacet
 facet normal  0.000000e+00  0.000000e+00  1.000000e+00
   outer loop
     vertex  7.987464e+01  2.888740e+01  1.200000e+01
     vertex  7.890916e+01  2.688255e+01  1.200000e+01
     vertex  7.950484e+01  2.783058e+01  1.200000e+01
   endloop
 endfacet
 facet normal  0.000000e+00  0.000000e+00  1.000000e+00
   outer loop
     vertex  8.000000e+01  3.000000e+01  1.200000e+01
     vertex  7.890916e+01  2.688255e+01  1.200000e+01
     vertex  7.987464e+01  2.888740e+01  1.200000e+01
   endloop
 endfacet
 facet normal  0.000000e+00  0.000000e+00  1.000000e+00
   outer loop
     vertex  8.000000e+01  3.000000e+01  1.200000e+01
     vertex  7.500000e+01  2.500000e+01  1.200000e+01
     vertex  7.890916e+01  2.688255e+01  1.200000e+01
   endloop
 endfacet
 facet normal  0.000000e+00  0.000000e+00  1.000000e+00
   outer loop
     vertex  7.500000e+01  5.500000e+01  1.200000e+01
     vertex  2.500000e+01  2.500000e+01  1.200000e+01
     vertex  7.500000e+01  2.500000e+01  1.200000e+01
   endloop
 endfacet
 facet normal  0.000000e+00  0.000000e+00  1.000000e+00
   outer loop
     vertex  7.500000e+01  5.500000e+01  1.200000e+01
     vertex  2.500000e+01  5.500000e+01  1.200000e+01
     vertex  2.500000e+01  2.500000e+01  1.200000e+01
   endloop
 endfacet
 facet normal  0.000000e+00  0.000000e+00  1.000000e+00
   outer loop
     vertex  8.000000e+01  5.000000e+01  1.200000e+01
     vertex  7.500000e+01  5.500000e+01  1.200000e+01
     vertex  7.500000e+01  2.500000e+01  1.200000e+01
   endloop
 endfacet
 facet normal  0.000000e+00  0.000000e+00  1.000000e+00
   outer loop
     vertex  8.000000e+01  5.000000e+01  1.200000e+01
     vertex  7.500000e+01  2.500000e+01  1.200000e+01
     vertex  8.000000e+01  3.000000e+01  1.200000e+01
   endloop
 endfacet
 facet normal  0.000000e+00  0.000000e+00  1.000000e+00
   outer loop
     vertex  7.716942e+01  5.450484e+01  1.200000e+01
     vertex  8.000000e+01  5.000000e+01  1.200000e+01
     vertex  7.987464e+01  5.111260e+01  1.200000e+01
   endloop
 endfacet
 facet normal  0.000000e+00  0.000000e+00  1.000000e+00
   outer loop
     vertex  7.716942e+01  5.450484e+01  1.200000e+01
     vertex  7.611260e+01  5.487464e+01  1.200000e+01
     vertex  7.500000e+01  5.500000e+01  1.200000e+01
   endloop
 endfacet
 facet normal  0.000000e+00  0.000000e+00  1.000000e+00
   outer loop
     vertex  7.716942e+01  5.450484e+01  1.200000e+01
     vertex  7.500000e+01  5.500000e+01  1.200000e+01
     vertex  8.000000e+01  5.000000e+01  1.200000e+01
   endloop
 endfacet
 facet normal  0.000000e+00  0.000000e+00  1.000000e+00
   outer loop
     vertex  7.890916e+01  5.311745e+01  1.200000e+01
     vertex  7.987464e+01  5.111260e+01  1.200000e+01
     vertex  7.950484e+01  5.216942e+01  1.200000e+01
   endloop
 endfacet
 facet normal  0.000000e+00  0.000000e+00  1.000000e+00
   outer loop
     vertex  7.811745e+01  5.390916e+01  1.200000e+01
     vertex  7.987464e+01  5.111260e+01  1.200000e+01
     vertex  7.890916e+01  5.311745e+01  1.200000e+01
   endloop
 endfacet
 facet normal  0.000000e+00  0.000000e+00  1.000000e+00
   outer loop
     vertex  7.811745e+01  5.390916e+01  1.200000e+01
     vertex  7.716942e+01  5.450484e+01  1.200000e+01
     vertex  7.987464e+01  5.111260e+01  1.200000e+01
   endloop
 endfacet
endsolid
