solid 
 facet normal  9.927089e-01  1.205367e-01  0.000000e+00
   outer loop
     vertex  1.941884e+01  4.786313e+00  2.500000e+01
     vertex  2.000000e+01 -4.898587e-15  2.500000e+01
     vertex  2.000000e+01 -4.898587e-15  0.000000e+00
   endloop
 endfacet
 facet normal  9.927089e-01  1.205367e-01  0.000000e+00
   outer loop
     vertex  1.941884e+01  4.786313e+00  2.500000e+01
     vertex  2.000000e+01 -4.898587e-15  0.000000e+00
     vertex  1.941884e+01  4.786313e+00  0.000000e+00
   endloop
 endfacet
 facet normal  9.350162e-01  3.546049e-01  0.000000e+00
   outer loop
     vertex  1.770912e+01  9.294463e+00  2.500000e+01
     vertex  1.941884e+01  4.786313e+00  0.000000e+00
     vertex  1.770912e+01  9.294463e+00  0.000000e+00
   endloop
 endfacet
 facet normal  9.350162e-01  3.546049e-01  0.000000e+00
   outer loop
     vertex  1.770912e+01  9.294463e+00  2.500000e+01
     vertex  1.941884e+01  4.786313e+00  2.500000e+01
     vertex  1.941884e+01  4.786313e+00  0.000000e+00
   endloop
 endfacet
 facet normal  8.229839e-01  5.680647e-01  0.000000e+00
   outer loop
     vertex  1.497021e+01  1.326245e+01  2.500000e+01
     vertex  1.770912e+01  9.294463e+00  0.000000e+00
     vertex  1.497021e+01  1.326245e+01  0.000000e+00
   endloop
 endfacet
 facet normal  8.229839e-01  5.680647e-01  0.000000e+00
   outer loop
     vertex  1.497021e+01  1.326245e+01  2.500000e+01
     vertex  1.770912e+01  9.294463e+00  2.500000e+01
     vertex  1.770912e+01  9.294463e+00  0.000000e+00
   endloop
 endfacet
 facet normal  6.631227e-01  7.485107e-01  0.000000e+00
   outer loop
     vertex  1.136129e+01  1.645968e+01  2.500000e+01
     vertex  1.497021e+01  1.326245e+01  0.000000e+00
     vertex  1.136129e+01  1.645968e+01  0.000000e+00
   endloop
 endfacet
 facet normal  6.631227e-01  7.485107e-01  0.000000e+00
   outer loop
     vertex  1.136129e+01  1.645968e+01  2.500000e+01
     vertex  1.497021e+01  1.326245e+01  2.500000e+01
     vertex  1.497021e+01  1.326245e+01  0.000000e+00
   endloop
 endfacet
 facet normal  4.647232e-01  8.854560e-01  0.000000e+00
   outer loop
     vertex  7.092098e+00  1.870032e+01  2.500000e+01
     vertex  1.136129e+01  1.645968e+01  0.000000e+00
     vertex  7.092098e+00  1.870032e+01  0.000000e+00
   endloop
 endfacet
 facet normal  4.647232e-01  8.854560e-01  0.000000e+00
   outer loop
     vertex  7.092098e+00  1.870032e+01  2.500000e+01
     vertex  1.136129e+01  1.645968e+01  2.500000e+01
     vertex  1.136129e+01  1.645968e+01  0.000000e+00
   endloop
 endfacet
 facet normal  2.393157e-01  9.709418e-01  0.000000e+00
   outer loop
     vertex  2.410734e+00  1.985418e+01  2.500000e+01
     vertex  7.092098e+00  1.870032e+01  0.000000e+00
     vertex  2.410734e+00  1.985418e+01  0.000000e+00
   endloop
 endfacet
 facet normal  2.393157e-01  9.709418e-01  0.000000e+00
   outer loop
     vertex  2.410734e+00  1.985418e+01  2.500000e+01
     vertex  7.092098e+00  1.870032e+01  2.500000e+01
     vertex  7.092098e+00  1.870032e+01  0.000000e+00
   endloop
 endfacet
 facet normal  0.000000e+00  1.000000e+00  0.000000e+00
   outer loop
     vertex -2.410734e+00  1.985418e+01  2.500000e+01
     vertex  2.410734e+00  1.985418e+01  0.000000e+00
     vertex -2.410734e+00  1.985418e+01  0.000000e+00
   endloop
 endfacet
 facet normal -2.393157e-01  9.709418e-01  0.000000e+00
   outer loop
     vertex -2.410734e+00  1.985418e+01  2.500000e+01
     vertex -2.410734e+00  1.985418e+01  0.000000e+00
     vertex -7.092098e+00  1.870032e+01  0.000000e+00
   endloop
 endfacet
 facet normal -0.000000e+00  1.000000e+00  0.000000e+00
   outer loop
     vertex -2.410734e+00  1.985418e+01  2.500000e+01
     vertex  2.410734e+00  1.985418e+01  2.500000e+01
     vertex  2.410734e+00  1.985418e+01  0.000000e+00
   endloop
 endfacet
 facet normal -2.393157e-01  9.709418e-01  0.000000e+00
   outer loop
     vertex -7.092098e+00  1.870032e+01  2.500000e+01
     vertex -2.410734e+00  1.985418e+01  2.500000e+01
     vertex -7.092098e+00  1.870032e+01  0.000000e+00
   endloop
 endfacet
 facet normal -4.647232e-01  8.854560e-01  0.000000e+00
   outer loop
     vertex -1.136129e+01  1.645968e+01  2.500000e+01
     vertex -7.092098e+00  1.870032e+01  0.000000e+00
     vertex -1.136129e+01  1.645968e+01  0.000000e+00
   endloop
 endfacet
 facet normal -4.647232e-01  8.854560e-01  0.000000e+00
   outer loop
     vertex -1.136129e+01  1.645968e+01  2.500000e+01
     vertex -7.092098e+00  1.870032e+01  2.500000e+01
     vertex -7.092098e+00  1.870032e+01  0.000000e+00
   endloop
 endfacet
 facet normal -6.631227e-01  7.485107e-01  0.000000e+00
   outer loop
     vertex -1.497021e+01  1.326245e+01  2.500000e+01
     vertex -1.136129e+01  1.645968e+01  0.000000e+00
     vertex -1.497021e+01  1.326245e+01  0.000000e+00
   endloop
 endfacet
 facet normal -6.631227e-01  7.485107e-01  0.000000e+00
   outer loop
     vertex -1.497021e+01  1.326245e+01  2.500000e+01
     vertex -1.136129e+01  1.645968e+01  2.500000e+01
     vertex -1.136129e+01  1.645968e+01  0.000000e+00
   endloop
 endfacet
 facet normal -8.229839e-01  5.680647e-01  0.000000e+00
   outer loop
     vertex -1.770912e+01  9.294463e+00  2.500000e+01
     vertex -1.497021e+01  1.326245e+01  0.000000e+00
     vertex -1.770912e+01  9.294463e+00  0.000000e+00
   endloop
 endfacet
 facet normal -8.229839e-01  5.680647e-01  0.000000e+00
   outer loop
     vertex -1.770912e+01  9.294463e+00  2.500000e+01
     vertex -1.497021e+01  1.326245e+01  2.500000e+01
     vertex -1.497021e+01  1.326245e+01  0.000000e+00
   endloop
 endfacet
 facet normal -9.350162e-01  3.546049e-01  0.000000e+00
   outer loop
     vertex -1.941884e+01  4.786313e+00  2.500000e+01
     vertex -1.770912e+01  9.294463e+00  2.500000e+01
     vertex -1.770912e+01  9.294463e+00  0.000000e+00
   endloop
 endfacet
 facet normal -9.350162e-01  3.546049e-01  0.000000e+00
   outer loop
     vertex -1.941884e+01  4.786313e+00  2.500000e+01
     vertex -1.770912e+01  9.294463e+00  0.000000e+00
     vertex -1.941884e+01  4.786313e+00  0.000000e+00
   endloop
 endfacet
 facet normal -9.927089e-01  1.205367e-01  0.000000e+00
   outer loop
     vertex -2.000000e+01  2.021286e-14  2.500000e+01
     vertex -1.941884e+01  4.786313e+00  2.500000e+01
     vertex -1.941884e+01  4.786313e+00  0.000000e+00
   endloop
 endfacet
 facet normal -9.927089e-01  1.205367e-01  0.000000e+00
   outer loop
     vertex -2.000000e+01  2.021286e-14  2.500000e+01
     vertex -1.941884e+01  4.786313e+00  0.000000e+00
     vertex -2.000000e+01  2.021286e-14  0.000000e+00
   endloop
 endfacet
 facet normal -9.927089e-01 -1.205367e-01  0.000000e+00
   outer loop
     vertex -1.941884e+01 -4.786313e+00  2.500000e+01
     vertex -2.000000e+01  2.021286e-14  2.500000e+01
     vertex -2.000000e+01  2.021286e-14  0.000000e+00
   endloop
 endfacet
 facet normal -9.927089e-01 -1.205367e-01 -0.000000e+00
   outer loop
     vertex -1.941884e+01 -4.786313e+00  2.500000e+01
     vertex -2.000000e+01  2.021286e-14  0.000000e+00
     vertex -1.941884e+01 -4.786313e+00  0.000000e+00
   endloop
 endfacet
 facet normal -9.350162e-01 -3.546049e-01  0.000000e+00
   outer loop
     vertex -1.770912e+01 -9.294463e+00  2.500000e+01
     vertex -1.941884e+01 -4.786313e+00  2.500000e+01
     vertex -1.941884e+01 -4.786313e+00  0.000000e+00
   endloop
 endfacet
 facet normal -9.350162e-01 -3.546049e-01 -0.000000e+00
   outer loop
     vertex -1.770912e+01 -9.294463e+00  2.500000e+01
     vertex -1.941884e+01 -4.786313e+00  0.000000e+00
     vertex -1.770912e+01 -9.294463e+00  0.000000e+00
   endloop
 endfacet
 facet normal -8.229839e-01 -5.680647e-01  0.000000e+00
   outer loop
     vertex -1.497021e+01 -1.326245e+01  2.500000e+01
     vertex -1.770912e+01 -9.294463e+00  2.500000e+01
     vertex -1.770912e+01 -9.294463e+00  0.000000e+00
   endloop
 endfacet
 facet normal -8.229839e-01 -5.680647e-01 -0.000000e+00
   outer loop
     vertex -1.497021e+01 -1.326245e+01  2.500000e+01
     vertex -1.770912e+01 -9.294463e+00  0.000000e+00
     vertex -1.497021e+01 -1.326245e+01  0.000000e+00
   endloop
 endfacet
 facet normal -6.631227e-01 -7.485107e-01  0.000000e+00
   outer loop
     vertex -1.136129e+01 -1.645968e+01  2.500000e+01
     vertex -1.497021e+01 -1.326245e+01  2.500000e+01
     vertex -1.497021e+01 -1.326245e+01  0.000000e+00
   endloop
 endfacet
 facet normal -6.631227e-01 -7.485107e-01 -0.000000e+00
   outer loop
     vertex -1.136129e+01 -1.645968e+01  2.500000e+01
     vertex -1.497021e+01 -1.326245e+01  0.000000e+00
     vertex -1.136129e+01 -1.645968e+01  0.000000e+00
   endloop
 endfacet
 facet normal -4.647232e-01 -8.854560e-01  0.000000e+00
   outer loop
     vertex -7.092098e+00 -1.870032e+01  2.500000e+01
     vertex -1.136129e+01 -1.645968e+01  2.500000e+01
     vertex -1.136129e+01 -1.645968e+01  0.000000e+00
   endloop
 endfacet
 facet normal -4.647232e-01 -8.854560e-01 -0.000000e+00
   outer loop
     vertex -7.092098e+00 -1.870032e+01  2.500000e+01
     vertex -1.136129e+01 -1.645968e+01  0.000000e+00
     vertex -7.092098e+00 -1.870032e+01  0.000000e+00
   endloop
 endfacet
 facet normal -2.393157e-01 -9.709418e-01  0.000000e+00
   outer loop
     vertex -2.410734e+00 -1.985418e+01  2.500000e+01
     vertex -7.092098e+00 -1.870032e+01  2.500000e+01
     vertex -7.092098e+00 -1.870032e+01  0.000000e+00
   endloop
 endfacet
 facet normal -2.393157e-01 -9.709418e-01 -0.000000e+00
   outer loop
     vertex -2.410734e+00 -1.985418e+01  2.500000e+01
     vertex -7.092098e+00 -1.870032e+01  0.000000e+00
     vertex -2.410734e+00 -1.985418e+01  0.000000e+00
   endloop
 endfacet
 facet normal -2.947413e-15 -1.000000e+00  0.000000e+00
   outer loop
     vertex  2.410734e+00 -1.985418e+01  2.500000e+01
     vertex -2.410734e+00 -1.985418e+01  2.500000e+01
     vertex -2.410734e+00 -1.985418e+01  0.000000e+00
   endloop
 endfacet
 facet normal -2.947413e-15 -1.000000e+00 -0.000000e+00
   outer loop
     vertex  2.410734e+00 -1.985418e+01  2.500000e+01
     vertex -2.410734e+00 -1.985418e+01  0.000000e+00
     vertex  2.410734e+00 -1.985418e+01  0.000000e+00
   endloop
 endfacet
 facet normal  2.393157e-01 -9.709418e-01  0.000000e+00
   outer loop
     vertex  7.092098e+00 -1.870032e+01  2.500000e+01
     vertex  2.410734e+00 -1.985418e+01  2.500000e+01
     vertex  2.410734e+00 -1.985418e+01  0.000000e+00
   endloop
 endfacet
 facet normal  2.393157e-01 -9.709418e-01  0.000000e+00
   outer loop
     vertex  7.092098e+00 -1.870032e+01  2.500000e+01
     vertex  2.410734e+00 -1.985418e+01  0.000000e+00
     vertex  7.092098e+00 -1.870032e+01  0.000000e+00
   endloop
 endfacet
 facet normal  4.647232e-01 -8.854560e-01  0.000000e+00
   outer loop
     vertex  1.136129e+01 -1.645968e+01  2.500000e+01
     vertex  7.092098e+00 -1.870032e+01  2.500000e+01
     vertex  7.092098e+00 -1.870032e+01  0.000000e+00
   endloop
 endfacet
 facet normal  4.647232e-01 -8.854560e-01  0.000000e+00
   outer loop
     vertex  1.136129e+01 -1.645968e+01  2.500000e+01
     vertex  7.092098e+00 -1.870032e+01  0.000000e+00
     vertex  1.136129e+01 -1.645968e+01  0.000000e+00
   endloop
 endfacet
 facet normal  6.631227e-01 -7.485107e-01  0.000000e+00
   outer loop
     vertex  1.497021e+01 -1.326245e+01  2.500000e+01
     vertex  1.136129e+01 -1.645968e+01  2.500000e+01
     vertex  1.136129e+01 -1.645968e+01  0.000000e+00
   endloop
 endfacet
 facet normal  6.631227e-01 -7.485107e-01  0.000000e+00
   outer loop
     vertex  1.497021e+01 -1.326245e+01  2.500000e+01
     vertex  1.136129e+01 -1.645968e+01  0.000000e+00
     vertex  1.497021e+01 -1.326245e+01  0.000000e+00
   endloop
 endfacet
 facet normal  8.229839e-01 -5.680647e-01  0.000000e+00
   outer loop
     vertex  1.497021e+01 -1.326245e+01  2.500000e+01
     vertex  1.497021e+01 -1.326245e+01  0.000000e+00
     vertex  1.770912e+01 -9.294463e+00  0.000000e+00
   endloop
 endfacet
 facet normal  8.229839e-01 -5.680647e-01  0.000000e+00
   outer loop
     vertex  1.770912e+01 -9.294463e+00  2.500000e+01
     vertex  1.497021e+01 -1.326245e+01  2.500000e+01
     vertex  1.770912e+01 -9.294463e+00  0.000000e+00
   endloop
 endfacet
 facet normal  9.350162e-01 -3.546049e-01  0.000000e+00
   outer loop
     vertex  1.941884e+01 -4.786313e+00  2.500000e+01
     vertex  1.770912e+01 -9.294463e+00  0.000000e+00
     vertex  1.941884e+01 -4.786313e+00  0.000000e+00
   endloop
 endfacet
 facet normal  9.350162e-01 -3.546049e-01  0.000000e+00
   outer loop
     vertex  1.941884e+01 -4.786313e+00  2.500000e+01
     vertex  1.770912e+01 -9.294463e+00  2.500000e+01
     vertex  1.770912e+01 -9.294463e+00  0.000000e+00
   endloop
 endfacet
 facet normal  9.927089e-01 -1.205367e-01  0.000000e+00
   outer loop
     vertex  2.000000e+01 -4.898587e-15  2.500000e+01
     vertex  1.941884e+01 -4.786313e+00  0.000000e+00
     vertex  2.000000e+01 -4.898587e-15  0.000000e+00
   endloop
 endfacet
 facet normal  9.927089e-01 -1.205367e-01  0.000000e+00
   outer loop
     vertex  2.000000e+01 -4.898587e-15  2.500000e+01
     vertex  1.941884e+01 -4.786313e+00  2.500000e+01
     vertex  1.941884e+01 -4.786313e+00  0.000000e+00
   endloop
 endfacet
 facet normal  0.000000e+00  0.000000e+00  1.000000e+00
   outer loop
     vertex -8.520971e+00 -1.234476e+01  2.500000e+01
     vertex -1.497021e+01 -1.326245e+01  2.500000e+01
     vertex -1.136129e+01 -1.645968e+01  2.500000e+01
   endloop
 endfacet
 facet normal  0.000000e+00  0.000000e+00  1.000000e+00
   outer loop
     vertex -8.520971e+00 -1.234476e+01  2.500000e+01
     vertex -1.122766e+01 -9.946840e+00  2.500000e+01
     vertex -1.497021e+01 -1.326245e+01  2.500000e+01
   endloop
 endfacet
 facet normal  0.000000e+00  0.000000e+00  1.000000e+00
   outer loop
     vertex -1.328184e+01 -6.970848e+00  2.500000e+01
     vertex -1.770912e+01 -9.294463e+00  2.500000e+01
     vertex -1.497021e+01 -1.326245e+01  2.500000e+01
   endloop
 endfacet
 facet normal  0.000000e+00  0.000000e+00  1.000000e+00
   outer loop
     vertex -1.328184e+01 -6.970848e+00  2.500000e+01
     vertex -1.497021e+01 -1.326245e+01  2.500000e+01
     vertex -1.122766e+01 -9.946840e+00  2.500000e+01
   endloop
 endfacet
 facet normal  0.000000e+00  0.000000e+00  1.000000e+00
   outer loop
     vertex -5.319073e+00 -1.402524e+01  2.500000e+01
     vertex -1.136129e+01 -1.645968e+01  2.500000e+01
     vertex -7.092098e+00 -1.870032e+01  2.500000e+01
   endloop
 endfacet
 facet normal  0.000000e+00  0.000000e+00  1.000000e+00
   outer loop
     vertex -5.319073e+00 -1.402524e+01  2.500000e+01
     vertex -8.520971e+00 -1.234476e+01  2.500000e+01
     vertex -1.136129e+01 -1.645968e+01  2.500000e+01
   endloop
 endfacet
 facet normal  0.000000e+00  0.000000e+00  1.000000e+00
   outer loop
     vertex -1.456413e+01 -3.589735e+00  2.500000e+01
     vertex -1.941884e+01 -4.786313e+00  2.500000e+01
     vertex -1.770912e+01 -9.294463e+00  2.500000e+01
   endloop
 endfacet
 facet normal  0.000000e+00  0.000000e+00  1.000000e+00
   outer loop
     vertex -1.456413e+01 -3.589735e+00  2.500000e+01
     vertex -1.770912e+01 -9.294463e+00  2.500000e+01
     vertex -1.328184e+01 -6.970848e+00  2.500000e+01
   endloop
 endfacet
 facet normal  0.000000e+00  0.000000e+00  1.000000e+00
   outer loop
     vertex -1.808050e+00 -1.489063e+01  2.500000e+01
     vertex -7.092098e+00 -1.870032e+01  2.500000e+01
     vertex -2.410734e+00 -1.985418e+01  2.500000e+01
   endloop
 endfacet
 facet normal  0.000000e+00  0.000000e+00  1.000000e+00
   outer loop
     vertex -1.808050e+00 -1.489063e+01  2.500000e+01
     vertex -5.319073e+00 -1.402524e+01  2.500000e+01
     vertex -7.092098e+00 -1.870032e+01  2.500000e+01
   endloop
 endfacet
 facet normal  0.000000e+00  0.000000e+00  1.000000e+00
   outer loop
     vertex -1.500000e+01  1.515965e-14  2.500000e+01
     vertex -2.000000e+01  2.021286e-14  2.500000e+01
     vertex -1.941884e+01 -4.786313e+00  2.500000e+01
   endloop
 endfacet
 facet normal  0.000000e+00  0.000000e+00  1.000000e+00
   outer loop
     vertex -1.500000e+01  1.515965e-14  2.500000e+01
     vertex -1.941884e+01 -4.786313e+00  2.500000e+01
     vertex -1.456413e+01 -3.589735e+00  2.500000e+01
   endloop
 endfacet
 facet normal  0.000000e+00  0.000000e+00  1.000000e+00
   outer loop
     vertex  1.808050e+00 -1.489063e+01  2.500000e+01
     vertex -2.410734e+00 -1.985418e+01  2.500000e+01
     vertex  2.410734e+00 -1.985418e+01  2.500000e+01
   endloop
 endfacet
 facet normal  0.000000e+00  0.000000e+00  1.000000e+00
   outer loop
     vertex  1.808050e+00 -1.489063e+01  2.500000e+01
     vertex -1.808050e+00 -1.489063e+01  2.500000e+01
     vertex -2.410734e+00 -1.985418e+01  2.500000e+01
   endloop
 endfacet
 facet normal  0.000000e+00  0.000000e+00  1.000000e+00
   outer loop
     vertex -1.456413e+01  3.589735e+00  2.500000e+01
     vertex -1.941884e+01  4.786313e+00  2.500000e+01
     vertex -2.000000e+01  2.021286e-14  2.500000e+01
   endloop
 endfacet
 facet normal  0.000000e+00  0.000000e+00  1.000000e+00
   outer loop
     vertex -1.456413e+01  3.589735e+00  2.500000e+01
     vertex -2.000000e+01  2.021286e-14  2.500000e+01
     vertex -1.500000e+01  1.515965e-14  2.500000e+01
   endloop
 endfacet
 facet normal  0.000000e+00  0.000000e+00  1.000000e+00
   outer loop
     vertex  5.319073e+00 -1.402524e+01  2.500000e+01
     vertex  2.410734e+00 -1.985418e+01  2.500000e+01
     vertex  7.092098e+00 -1.870032e+01  2.500000e+01
   endloop
 endfacet
 facet normal  0.000000e+00  0.000000e+00  1.000000e+00
   outer loop
     vertex  5.319073e+00 -1.402524e+01  2.500000e+01
     vertex  1.808050e+00 -1.489063e+01  2.500000e+01
     vertex  2.410734e+00 -1.985418e+01  2.500000e+01
   endloop
 endfacet
 facet normal  0.000000e+00  0.000000e+00  1.000000e+00
   outer loop
     vertex -1.328184e+01  6.970848e+00  2.500000e+01
     vertex -1.770912e+01  9.294463e+00  2.500000e+01
     vertex -1.941884e+01  4.786313e+00  2.500000e+01
   endloop
 endfacet
 facet normal  0.000000e+00  0.000000e+00  1.000000e+00
   outer loop
     vertex -1.328184e+01  6.970848e+00  2.500000e+01
     vertex -1.941884e+01  4.786313e+00  2.500000e+01
     vertex -1.456413e+01  3.589735e+00  2.500000e+01
   endloop
 endfacet
 facet normal  0.000000e+00  0.000000e+00  1.000000e+00
   outer loop
     vertex  8.520971e+00 -1.234476e+01  2.500000e+01
     vertex  7.092098e+00 -1.870032e+01  2.500000e+01
     vertex  1.136129e+01 -1.645968e+01  2.500000e+01
   endloop
 endfacet
 facet normal  0.000000e+00  0.000000e+00  1.000000e+00
   outer loop
     vertex  8.520971e+00 -1.234476e+01  2.500000e+01
     vertex  5.319073e+00 -1.402524e+01  2.500000e+01
     vertex  7.092098e+00 -1.870032e+01  2.500000e+01
   endloop
 endfacet
 facet normal  0.000000e+00  0.000000e+00  1.000000e+00
   outer loop
     vertex -1.122766e+01  9.946840e+00  2.500000e+01
     vertex -1.497021e+01  1.326245e+01  2.500000e+01
     vertex -1.770912e+01  9.294463e+00  2.500000e+01
   endloop
 endfacet
 facet normal  0.000000e+00  0.000000e+00  1.000000e+00
   outer loop
     vertex -1.122766e+01  9.946840e+00  2.500000e+01
     vertex -1.770912e+01  9.294463e+00  2.500000e+01
     vertex -1.328184e+01  6.970848e+00  2.500000e+01
   endloop
 endfacet
 facet normal  0.000000e+00  0.000000e+00  1.000000e+00
   outer loop
     vertex  1.497021e+01 -1.326245e+01  2.500000e+01
     vertex  1.122766e+01 -9.946840e+00  2.500000e+01
     vertex  8.520971e+00 -1.234476e+01  2.500000e+01
   endloop
 endfacet
 facet normal  0.000000e+00  0.000000e+00  1.000000e+00
   outer loop
     vertex  1.497021e+01 -1.326245e+01  2.500000e+01
     vertex  8.520971e+00 -1.234476e+01  2.500000e+01
     vertex  1.136129e+01 -1.645968e+01  2.500000e+01
   endloop
 endfacet
 facet normal  0.000000e+00  0.000000e+00  1.000000e+00
   outer loop
     vertex -1.136129e+01  1.645968e+01  2.500000e+01
     vertex -1.497021e+01  1.326245e+01  2.500000e+01
     vertex -1.122766e+01  9.946840e+00  2.500000e+01
   endloop
 endfacet
 facet normal  0.000000e+00  0.000000e+00  1.000000e+00
   outer loop
     vertex -1.136129e+01  1.645968e+01  2.500000e+01
     vertex -1.122766e+01  9.946840e+00  2.500000e+01
     vertex -8.520971e+00  1.234476e+01  2.500000e+01
   endloop
 endfacet
 facet normal  0.000000e+00  0.000000e+00  1.000000e+00
   outer loop
     vertex  1.770912e+01 -9.294463e+00  2.500000e+01
     vertex  1.122766e+01 -9.946840e+00  2.500000e+01
     vertex  1.497021e+01 -1.326245e+01  2.500000e+01
   endloop
 endfacet
 facet normal  0.000000e+00  0.000000e+00  1.000000e+00
   outer loop
     vertex  1.770912e+01 -9.294463e+00  2.500000e+01
     vertex  1.328184e+01 -6.970848e+00  2.500000e+01
     vertex  1.122766e+01 -9.946840e+00  2.500000e+01
   endloop
 endfacet
 facet normal  0.000000e+00  0.000000e+00  1.000000e+00
   outer loop
     vertex  1.456413e+01 -3.589735e+00  2.500000e+01
     vertex  1.328184e+01 -6.970848e+00  2.500000e+01
     vertex  1.770912e+01 -9.294463e+00  2.500000e+01
   endloop
 endfacet
 facet normal  0.000000e+00  0.000000e+00  1.000000e+00
   outer loop
     vertex -7.092098e+00  1.870032e+01  2.500000e+01
     vertex -1.136129e+01  1.645968e+01  2.500000e+01
     vertex -8.520971e+00  1.234476e+01  2.500000e+01
   endloop
 endfacet
 facet normal  0.000000e+00  0.000000e+00  1.000000e+00
   outer loop
     vertex -7.092098e+00  1.870032e+01  2.500000e+01
     vertex -8.520971e+00  1.234476e+01  2.500000e+01
     vertex -5.319073e+00  1.402524e+01  2.500000e+01
   endloop
 endfacet
 facet normal  0.000000e+00  0.000000e+00  1.000000e+00
   outer loop
     vertex  1.941884e+01 -4.786313e+00  2.500000e+01
     vertex  1.456413e+01 -3.589735e+00  2.500000e+01
     vertex  1.770912e+01 -9.294463e+00  2.500000e+01
   endloop
 endfacet
 facet normal  0.000000e+00  0.000000e+00  1.000000e+00
   outer loop
     vertex -2.410734e+00  1.985418e+01  2.500000e+01
     vertex -1.808050e+00  1.489063e+01  2.500000e+01
     vertex  1.808050e+00  1.489063e+01  2.500000e+01
   endloop
 endfacet
 facet normal  0.000000e+00  0.000000e+00  1.000000e+00
   outer loop
     vertex -2.410734e+00  1.985418e+01  2.500000e+01
     vertex -5.319073e+00  1.402524e+01  2.500000e+01
     vertex -1.808050e+00  1.489063e+01  2.500000e+01
   endloop
 endfacet
 facet normal  0.000000e+00  0.000000e+00  1.000000e+00
   outer loop
     vertex -2.410734e+00  1.985418e+01  2.500000e+01
     vertex -7.092098e+00  1.870032e+01  2.500000e+01
     vertex -5.319073e+00  1.402524e+01  2.500000e+01
   endloop
 endfacet
 facet normal  0.000000e+00  0.000000e+00  1.000000e+00
   outer loop
     vertex  2.000000e+01 -4.898587e-15  2.500000e+01
     vertex  1.456413e+01 -3.589735e+00  2.500000e+01
     vertex  1.941884e+01 -4.786313e+00  2.500000e+01
   endloop
 endfacet
 facet normal  0.000000e+00  0.000000e+00  1.000000e+00
   outer loop
     vertex  2.000000e+01 -4.898587e-15  2.500000e+01
     vertex  1.500000e+01 -3.673940e-15  2.500000e+01
     vertex  1.456413e+01 -3.589735e+00  2.500000e+01
   endloop
 endfacet
 facet normal  0.000000e+00  0.000000e+00  1.000000e+00
   outer loop
     vertex  2.410734e+00  1.985418e+01  2.500000e+01
     vertex -2.410734e+00  1.985418e+01  2.500000e+01
     vertex  1.808050e+00  1.489063e+01  2.500000e+01
   endloop
 endfacet
 facet normal  0.000000e+00  0.000000e+00  1.000000e+00
   outer loop
     vertex  2.410734e+00  1.985418e+01  2.500000e+01
     vertex  1.808050e+00  1.489063e+01  2.500000e+01
     vertex  5.319073e+00  1.402524e+01  2.500000e+01
   endloop
 endfacet
 facet normal  0.000000e+00  0.000000e+00  1.000000e+00
   outer loop
     vertex  1.941884e+01  4.786313e+00  2.500000e+01
     vertex  1.456413e+01  3.589735e+00  2.500000e+01
     vertex  1.500000e+01 -3.673940e-15  2.500000e+01
   endloop
 endfacet
 facet normal  0.000000e+00  0.000000e+00  1.000000e+00
   outer loop
     vertex  1.941884e+01  4.786313e+00  2.500000e+01
     vertex  1.500000e+01 -3.673940e-15  2.500000e+01
     vertex  2.000000e+01 -4.898587e-15  2.500000e+01
   endloop
 endfacet
 facet normal  0.000000e+00  0.000000e+00  1.000000e+00
   outer loop
     vertex  7.092098e+00  1.870032e+01  2.500000e+01
     vertex  2.410734e+00  1.985418e+01  2.500000e+01
     vertex  5.319073e+00  1.402524e+01  2.500000e+01
   endloop
 endfacet
 facet normal  0.000000e+00  0.000000e+00  1.000000e+00
   outer loop
     vertex  1.770912e+01  9.294463e+00  2.500000e+01
     vertex  1.328184e+01  6.970848e+00  2.500000e+01
     vertex  1.456413e+01  3.589735e+00  2.500000e+01
   endloop
 endfacet
 facet normal  0.000000e+00  0.000000e+00  1.000000e+00
   outer loop
     vertex  1.770912e+01  9.294463e+00  2.500000e+01
     vertex  1.456413e+01  3.589735e+00  2.500000e+01
     vertex  1.941884e+01  4.786313e+00  2.500000e+01
   endloop
 endfacet
 facet normal  0.000000e+00  0.000000e+00  1.000000e+00
   outer loop
     vertex  1.136129e+01  1.645968e+01  2.500000e+01
     vertex  5.319073e+00  1.402524e+01  2.500000e+01
     vertex  8.520971e+00  1.234476e+01  2.500000e+01
   endloop
 endfacet
 facet normal  0.000000e+00  0.000000e+00  1.000000e+00
   outer loop
     vertex  1.136129e+01  1.645968e+01  2.500000e+01
     vertex  7.092098e+00  1.870032e+01  2.500000e+01
     vertex  5.319073e+00  1.402524e+01  2.500000e+01
   endloop
 endfacet
 facet normal  0.000000e+00  0.000000e+00  1.000000e+00
   outer loop
     vertex  1.497021e+01  1.326245e+01  2.500000e+01
     vertex  1.122766e+01  9.946840e+00  2.500000e+01
     vertex  1.328184e+01  6.970848e+00  2.500000e+01
   endloop
 endfacet
 facet normal  0.000000e+00  0.000000e+00  1.000000e+00
   outer loop
     vertex  1.497021e+01  1.326245e+01  2.500000e+01
     vertex  8.520971e+00  1.234476e+01  2.500000e+01
     vertex  1.122766e+01  9.946840e+00  2.500000e+01
   endloop
 endfacet
 facet normal  0.000000e+00  0.000000e+00  1.000000e+00
   outer loop
     vertex  1.497021e+01  1.326245e+01  2.500000e+01
     vertex  1.328184e+01  6.970848e+00  2.500000e+01
     vertex  1.770912e+01  9.294463e+00  2.500000e+01
   endloop
 endfacet
 facet normal  0.000000e+00  0.000000e+00  1.000000e+00
   outer loop
     vertex  1.497021e+01  1.326245e+01  2.500000e+01
     vertex  1.136129e+01  1.645968e+01  2.500000e+01
     vertex  8.520971e+00  1.234476e+01  2.500000e+01
   endloop
 endfacet
 facet normal  0.000000e+00  0.000000e+00 -1.000000e+00
   outer loop
     vertex -7.092098e+00 -1.870032e+01  0.000000e+00
     vertex -1.136129e+01 -1.645968e+01  0.000000e+00
     vertex -1.497021e+01 -1.326245e+01  0.000000e+00
   endloop
 endfacet
 facet normal  0.000000e+00  0.000000e+00 -1.000000e+00
   outer loop
     vertex -2.410734e+00 -1.985418e+01  0.000000e+00
     vertex -1.497021e+01 -1.326245e+01  0.000000e+00
     vertex -1.770912e+01 -9.294463e+00  0.000000e+00
   endloop
 endfacet
 facet normal  0.000000e+00  0.000000e+00 -1.000000e+00
   outer loop
     vertex -2.410734e+00 -1.985418e+01  0.000000e+00
     vertex -7.092098e+00 -1.870032e+01  0.000000e+00
     vertex -1.497021e+01 -1.326245e+01  0.000000e+00
   endloop
 endfacet
 facet normal  0.000000e+00  0.000000e+00 -1.000000e+00
   outer loop
     vertex -2.000000e+01  2.021286e-14  0.000000e+00
     vertex -1.770912e+01 -9.294463e+00  0.000000e+00
     vertex -1.941884e+01 -4.786313e+00  0.000000e+00
   endloop
 endfacet
 facet normal  0.000000e+00  0.000000e+00 -1.000000e+00
   outer loop
     vertex  7.092098e+00 -1.870032e+01  0.000000e+00
     vertex  2.410734e+00 -1.985418e+01  0.000000e+00
     vertex -2.410734e+00 -1.985418e+01  0.000000e+00
   endloop
 endfacet
 facet normal -0.000000e+00  0.000000e+00 -1.000000e+00
   outer loop
     vertex  7.092098e+00 -1.870032e+01  0.000000e+00
     vertex -2.410734e+00 -1.985418e+01  0.000000e+00
     vertex -1.770912e+01 -9.294463e+00  0.000000e+00
   endloop
 endfacet
 facet normal  0.000000e+00  0.000000e+00 -1.000000e+00
   outer loop
     vertex -7.092098e+00  1.870032e+01  0.000000e+00
     vertex -1.497021e+01  1.326245e+01  0.000000e+00
     vertex -1.136129e+01  1.645968e+01  0.000000e+00
   endloop
 endfacet
 facet normal  0.000000e+00  0.000000e+00 -1.000000e+00
   outer loop
     vertex -7.092098e+00  1.870032e+01  0.000000e+00
     vertex -1.770912e+01  9.294463e+00  0.000000e+00
     vertex -1.497021e+01  1.326245e+01  0.000000e+00
   endloop
 endfacet
 facet normal  0.000000e+00  0.000000e+00 -1.000000e+00
   outer loop
     vertex -7.092098e+00  1.870032e+01  0.000000e+00
     vertex -1.941884e+01  4.786313e+00  0.000000e+00
     vertex -1.770912e+01  9.294463e+00  0.000000e+00
   endloop
 endfacet
 facet normal  0.000000e+00  0.000000e+00 -1.000000e+00
   outer loop
     vertex -7.092098e+00  1.870032e+01  0.000000e+00
     vertex -2.000000e+01  2.021286e-14  0.000000e+00
     vertex -1.941884e+01  4.786313e+00  0.000000e+00
   endloop
 endfacet
 facet normal  0.000000e+00  0.000000e+00 -1.000000e+00
   outer loop
     vertex  1.941884e+01 -4.786313e+00  0.000000e+00
     vertex  1.770912e+01 -9.294463e+00  0.000000e+00
     vertex  1.497021e+01 -1.326245e+01  0.000000e+00
   endloop
 endfacet
 facet normal  0.000000e+00  0.000000e+00 -1.000000e+00
   outer loop
     vertex  2.000000e+01 -4.898587e-15  0.000000e+00
     vertex  1.136129e+01 -1.645968e+01  0.000000e+00
     vertex  7.092098e+00 -1.870032e+01  0.000000e+00
   endloop
 endfacet
 facet normal  0.000000e+00  0.000000e+00 -1.000000e+00
   outer loop
     vertex  2.000000e+01 -4.898587e-15  0.000000e+00
     vertex  1.497021e+01 -1.326245e+01  0.000000e+00
     vertex  1.136129e+01 -1.645968e+01  0.000000e+00
   endloop
 endfacet
 facet normal -0.000000e+00  0.000000e+00 -1.000000e+00
   outer loop
     vertex  2.000000e+01 -4.898587e-15  0.000000e+00
     vertex -1.770912e+01 -9.294463e+00  0.000000e+00
     vertex -2.000000e+01  2.021286e-14  0.000000e+00
   endloop
 endfacet
 facet normal  0.000000e+00  0.000000e+00 -1.000000e+00
   outer loop
     vertex  2.000000e+01 -4.898587e-15  0.000000e+00
     vertex  7.092098e+00 -1.870032e+01  0.000000e+00
     vertex -1.770912e+01 -9.294463e+00  0.000000e+00
   endloop
 endfacet
 facet normal  0.000000e+00  0.000000e+00 -1.000000e+00
   outer loop
     vertex  2.000000e+01 -4.898587e-15  0.000000e+00
     vertex -2.000000e+01  2.021286e-14  0.000000e+00
     vertex -7.092098e+00  1.870032e+01  0.000000e+00
   endloop
 endfacet
 facet normal  0.000000e+00  0.000000e+00 -1.000000e+00
   outer loop
     vertex  2.000000e+01 -4.898587e-15  0.000000e+00
     vertex  1.941884e+01 -4.786313e+00  0.000000e+00
     vertex  1.497021e+01 -1.326245e+01  0.000000e+00
   endloop
 endfacet
 facet normal  0.000000e+00  0.000000e+00 -1.000000e+00
   outer loop
     vertex  7.092098e+00  1.870032e+01  0.000000e+00
     vertex -2.410734e+00  1.985418e+01  0.000000e+00
     vertex  2.410734e+00  1.985418e+01  0.000000e+00
   endloop
 endfacet
 facet normal  0.000000e+00  0.000000e+00 -1.000000e+00
   outer loop
     vertex  7.092098e+00  1.870032e+01  0.000000e+00
     vertex -7.092098e+00  1.870032e+01  0.000000e+00
     vertex -2.410734e+00  1.985418e+01  0.000000e+00
   endloop
 endfacet
 facet normal  0.000000e+00  0.000000e+00 -1.000000e+00
   outer loop
     vertex  1.136129e+01  1.645968e+01  0.000000e+00
     vertex -7.092098e+00  1.870032e+01  0.000000e+00
     vertex  7.092098e+00  1.870032e+01  0.000000e+00
   endloop
 endfacet
 facet normal  0.000000e+00  0.000000e+00 -1.000000e+00
   outer loop
     vertex  1.497021e+01  1.326245e+01  0.000000e+00
     vertex  1.941884e+01  4.786313e+00  0.000000e+00
     vertex  2.000000e+01 -4.898587e-15  0.000000e+00
   endloop
 endfacet
 facet normal  0.000000e+00  0.000000e+00 -1.000000e+00
   outer loop
     vertex  1.497021e+01  1.326245e+01  0.000000e+00
     vertex  1.770912e+01  9.294463e+00  0.000000e+00
     vertex  1.941884e+01  4.786313e+00  0.000000e+00
   endloop
 endfacet
 facet normal -0.000000e+00 -0.000000e+00 -1.000000e+00
   outer loop
     vertex  1.497021e+01  1.326245e+01  0.000000e+00
     vertex  2.000000e+01 -4.898587e-15  0.000000e+00
     vertex -7.092098e+00  1.870032e+01  0.000000e+00
   endloop
 endfacet
 facet normal  0.000000e+00  0.000000e+00 -1.000000e+00
   outer loop
     vertex  1.497021e+01  1.326245e+01  0.000000e+00
     vertex -7.092098e+00  1.870032e+01  0.000000e+00
     vertex  1.136129e+01  1.645968e+01  0.000000e+00
   endloop
 endfacet
 facet normal  9.927089e-01  1.205367e-01  0.000000e+00
   outer loop
     vertex  1.456413e+01  3.589735e+00  6.000000e+01
     vertex  1.500000e+01 -3.673940e-15  6.000000e+01
     vertex  1.500000e+01 -3.673940e-15  2.500000e+01
   endloop
 endfacet
 facet normal  9.927089e-01  1.205367e-01  0.000000e+00
   outer loop
     vertex  1.456413e+01  3.589735e+00  6.000000e+01
     vertex  1.500000e+01 -3.673940e-15  2.500000e+01
     vertex  1.456413e+01  3.589735e+00  2.500000e+01
   endloop
 endfacet
 facet normal  9.350162e-01  3.546049e-01  0.000000e+00
   outer loop
     vertex  1.328184e+01  6.970848e+00  6.000000e+01
     vertex  1.456413e+01  3.589735e+00  2.500000e+01
     vertex  1.328184e+01  6.970848e+00  2.500000e+01
   endloop
 endfacet
 facet normal  9.350162e-01  3.546049e-01  0.000000e+00
   outer loop
     vertex  1.328184e+01  6.970848e+00  6.000000e+01
     vertex  1.456413e+01  3.589735e+00  6.000000e+01
     vertex  1.456413e+01  3.589735e+00  2.500000e+01
   endloop
 endfacet
 facet normal  8.229839e-01  5.680647e-01  0.000000e+00
   outer loop
     vertex  1.122766e+01  9.946840e+00  6.000000e+01
     vertex  1.328184e+01  6.970848e+00  2.500000e+01
     vertex  1.122766e+01  9.946840e+00  2.500000e+01
   endloop
 endfacet
 facet normal  8.229839e-01  5.680647e-01  0.000000e+00
   outer loop
     vertex  1.122766e+01  9.946840e+00  6.000000e+01
     vertex  1.328184e+01  6.970848e+00  6.000000e+01
     vertex  1.328184e+01  6.970848e+00  2.500000e+01
   endloop
 endfacet
 facet normal  6.631227e-01  7.485107e-01  0.000000e+00
   outer loop
     vertex  8.520971e+00  1.234476e+01  6.000000e+01
     vertex  1.122766e+01  9.946840e+00  2.500000e+01
     vertex  8.520971e+00  1.234476e+01  2.500000e+01
   endloop
 endfacet
 facet normal  6.631227e-01  7.485107e-01  0.000000e+00
   outer loop
     vertex  8.520971e+00  1.234476e+01  6.000000e+01
     vertex  1.122766e+01  9.946840e+00  6.000000e+01
     vertex  1.122766e+01  9.946840e+00  2.500000e+01
   endloop
 endfacet
 facet normal  4.647232e-01  8.854560e-01  0.000000e+00
   outer loop
     vertex  5.319073e+00  1.402524e+01  6.000000e+01
     vertex  8.520971e+00  1.234476e+01  2.500000e+01
     vertex  5.319073e+00  1.402524e+01  2.500000e+01
   endloop
 endfacet
 facet normal  2.393157e-01  9.709418e-01  0.000000e+00
   outer loop
     vertex  5.319073e+00  1.402524e+01  6.000000e+01
     vertex  5.319073e+00  1.402524e+01  2.500000e+01
     vertex  1.808050e+00  1.489063e+01  2.500000e+01
   endloop
 endfacet
 facet normal  4.647232e-01  8.854560e-01  0.000000e+00
   outer loop
     vertex  5.319073e+00  1.402524e+01  6.000000e+01
     vertex  8.520971e+00  1.234476e+01  6.000000e+01
     vertex  8.520971e+00  1.234476e+01  2.500000e+01
   endloop
 endfacet
 facet normal  2.393157e-01  9.709418e-01  0.000000e+00
   outer loop
     vertex  1.808050e+00  1.489063e+01  6.000000e+01
     vertex  5.319073e+00  1.402524e+01  6.000000e+01
     vertex  1.808050e+00  1.489063e+01  2.500000e+01
   endloop
 endfacet
 facet normal  0.000000e+00  1.000000e+00  0.000000e+00
   outer loop
     vertex -1.808050e+00  1.489063e+01  6.000000e+01
     vertex  1.808050e+00  1.489063e+01  2.500000e+01
     vertex -1.808050e+00  1.489063e+01  2.500000e+01
   endloop
 endfacet
 facet normal -0.000000e+00  1.000000e+00  0.000000e+00
   outer loop
     vertex -1.808050e+00  1.489063e+01  6.000000e+01
     vertex  1.808050e+00  1.489063e+01  6.000000e+01
     vertex  1.808050e+00  1.489063e+01  2.500000e+01
   endloop
 endfacet
 facet normal -2.393157e-01  9.709418e-01  0.000000e+00
   outer loop
     vertex -5.319073e+00  1.402524e+01  6.000000e+01
     vertex -1.808050e+00  1.489063e+01  2.500000e+01
     vertex -5.319073e+00  1.402524e+01  2.500000e+01
   endloop
 endfacet
 facet normal -2.393157e-01  9.709418e-01  0.000000e+00
   outer loop
     vertex -5.319073e+00  1.402524e+01  6.000000e+01
     vertex -1.808050e+00  1.489063e+01  6.000000e+01
     vertex -1.808050e+00  1.489063e+01  2.500000e+01
   endloop
 endfacet
 facet normal -4.647232e-01  8.854560e-01  0.000000e+00
   outer loop
     vertex -8.520971e+00  1.234476e+01  6.000000e+01
     vertex -5.319073e+00  1.402524e+01  2.500000e+01
     vertex -8.520971e+00  1.234476e+01  2.500000e+01
   endloop
 endfacet
 facet normal -4.647232e-01  8.854560e-01  0.000000e+00
   outer loop
     vertex -8.520971e+00  1.234476e+01  6.000000e+01
     vertex -5.319073e+00  1.402524e+01  6.000000e+01
     vertex -5.319073e+00  1.402524e+01  2.500000e+01
   endloop
 endfacet
 facet normal -6.631227e-01  7.485107e-01  0.000000e+00
   outer loop
     vertex -1.122766e+01  9.946840e+00  6.000000e+01
     vertex -8.520971e+00  1.234476e+01  2.500000e+01
     vertex -1.122766e+01  9.946840e+00  2.500000e+01
   endloop
 endfacet
 facet normal -6.631227e-01  7.485107e-01  0.000000e+00
   outer loop
     vertex -1.122766e+01  9.946840e+00  6.000000e+01
     vertex -8.520971e+00  1.234476e+01  6.000000e+01
     vertex -8.520971e+00  1.234476e+01  2.500000e+01
   endloop
 endfacet
 facet normal -8.229839e-01  5.680647e-01  0.000000e+00
   outer loop
     vertex -1.328184e+01  6.970848e+00  6.000000e+01
     vertex -1.122766e+01  9.946840e+00  2.500000e+01
     vertex -1.328184e+01  6.970848e+00  2.500000e+01
   endloop
 endfacet
 facet normal -8.229839e-01  5.680647e-01  0.000000e+00
   outer loop
     vertex -1.328184e+01  6.970848e+00  6.000000e+01
     vertex -1.122766e+01  9.946840e+00  6.000000e+01
     vertex -1.122766e+01  9.946840e+00  2.500000e+01
   endloop
 endfacet
 facet normal -9.350162e-01  3.546049e-01  0.000000e+00
   outer loop
     vertex -1.456413e+01  3.589735e+00  6.000000e+01
     vertex -1.328184e+01  6.970848e+00  6.000000e+01
     vertex -1.328184e+01  6.970848e+00  2.500000e+01
   endloop
 endfacet
 facet normal -9.350162e-01  3.546049e-01  0.000000e+00
   outer loop
     vertex -1.456413e+01  3.589735e+00  6.000000e+01
     vertex -1.328184e+01  6.970848e+00  2.500000e+01
     vertex -1.456413e+01  3.589735e+00  2.500000e+01
   endloop
 endfacet
 facet normal -9.927089e-01  1.205367e-01  0.000000e+00
   outer loop
     vertex -1.500000e+01  1.515965e-14  6.000000e+01
     vertex -1.456413e+01  3.589735e+00  6.000000e+01
     vertex -1.456413e+01  3.589735e+00  2.500000e+01
   endloop
 endfacet
 facet normal -9.927089e-01  1.205367e-01  0.000000e+00
   outer loop
     vertex -1.500000e+01  1.515965e-14  6.000000e+01
     vertex -1.456413e+01  3.589735e+00  2.500000e+01
     vertex -1.500000e+01  1.515965e-14  2.500000e+01
   endloop
 endfacet
 facet normal -9.927089e-01 -1.205367e-01 -0.000000e+00
   outer loop
     vertex -1.500000e+01  1.515965e-14  6.000000e+01
     vertex -1.500000e+01  1.515965e-14  2.500000e+01
     vertex -1.456413e+01 -3.589735e+00  2.500000e+01
   endloop
 endfacet
 facet normal -9.927089e-01 -1.205367e-01 -0.000000e+00
   outer loop
     vertex -1.456413e+01 -3.589735e+00  6.000000e+01
     vertex -1.500000e+01  1.515965e-14  6.000000e+01
     vertex -1.456413e+01 -3.589735e+00  2.500000e+01
   endloop
 endfacet
 facet normal -9.350162e-01 -3.546049e-01  0.000000e+00
   outer loop
     vertex -1.328184e+01 -6.970848e+00  6.000000e+01
     vertex -1.456413e+01 -3.589735e+00  6.000000e+01
     vertex -1.456413e+01 -3.589735e+00  2.500000e+01
   endloop
 endfacet
 facet normal -9.350162e-01 -3.546049e-01 -0.000000e+00
   outer loop
     vertex -1.328184e+01 -6.970848e+00  6.000000e+01
     vertex -1.456413e+01 -3.589735e+00  2.500000e+01
     vertex -1.328184e+01 -6.970848e+00  2.500000e+01
   endloop
 endfacet
 facet normal -8.229839e-01 -5.680647e-01 -0.000000e+00
   outer loop
     vertex -1.328184e+01 -6.970848e+00  6.000000e+01
     vertex -1.328184e+01 -6.970848e+00  2.500000e+01
     vertex -1.122766e+01 -9.946840e+00  2.500000e+01
   endloop
 endfacet
 facet normal -8.229839e-01 -5.680647e-01 -0.000000e+00
   outer loop
     vertex -1.122766e+01 -9.946840e+00  6.000000e+01
     vertex -1.328184e+01 -6.970848e+00  6.000000e+01
     vertex -1.122766e+01 -9.946840e+00  2.500000e+01
   endloop
 endfacet
 facet normal -6.631227e-01 -7.485107e-01  0.000000e+00
   outer loop
     vertex -8.520971e+00 -1.234476e+01  6.000000e+01
     vertex -1.122766e+01 -9.946840e+00  6.000000e+01
     vertex -1.122766e+01 -9.946840e+00  2.500000e+01
   endloop
 endfacet
 facet normal -6.631227e-01 -7.485107e-01 -0.000000e+00
   outer loop
     vertex -8.520971e+00 -1.234476e+01  6.000000e+01
     vertex -1.122766e+01 -9.946840e+00  2.500000e+01
     vertex -8.520971e+00 -1.234476e+01  2.500000e+01
   endloop
 endfacet
 facet normal -4.647232e-01 -8.854560e-01 -0.000000e+00
   outer loop
     vertex -8.520971e+00 -1.234476e+01  6.000000e+01
     vertex -8.520971e+00 -1.234476e+01  2.500000e+01
     vertex -5.319073e+00 -1.402524e+01  2.500000e+01
   endloop
 endfacet
 facet normal -4.647232e-01 -8.854560e-01 -0.000000e+00
   outer loop
     vertex -5.319073e+00 -1.402524e+01  6.000000e+01
     vertex -8.520971e+00 -1.234476e+01  6.000000e+01
     vertex -5.319073e+00 -1.402524e+01  2.500000e+01
   endloop
 endfacet
 facet normal -2.393157e-01 -9.709418e-01  0.000000e+00
   outer loop
     vertex -1.808050e+00 -1.489063e+01  6.000000e+01
     vertex -5.319073e+00 -1.402524e+01  6.000000e+01
     vertex -5.319073e+00 -1.402524e+01  2.500000e+01
   endloop
 endfacet
 facet normal -2.393157e-01 -9.709418e-01 -0.000000e+00
   outer loop
     vertex -1.808050e+00 -1.489063e+01  6.000000e+01
     vertex -5.319073e+00 -1.402524e+01  2.500000e+01
     vertex -1.808050e+00 -1.489063e+01  2.500000e+01
   endloop
 endfacet
 facet normal -1.964942e-15 -1.000000e+00 -0.000000e+00
   outer loop
     vertex -1.808050e+00 -1.489063e+01  6.000000e+01
     vertex -1.808050e+00 -1.489063e+01  2.500000e+01
     vertex  1.808050e+00 -1.489063e+01  2.500000e+01
   endloop
 endfacet
 facet normal -1.964942e-15 -1.000000e+00 -0.000000e+00
   outer loop
     vertex  1.808050e+00 -1.489063e+01  6.000000e+01
     vertex -1.808050e+00 -1.489063e+01  6.000000e+01
     vertex  1.808050e+00 -1.489063e+01  2.500000e+01
   endloop
 endfacet
 facet normal  2.393157e-01 -9.709418e-01  0.000000e+00
   outer loop
     vertex  5.319073e+00 -1.402524e+01  6.000000e+01
     vertex  1.808050e+00 -1.489063e+01  6.000000e+01
     vertex  1.808050e+00 -1.489063e+01  2.500000e+01
   endloop
 endfacet
 facet normal  2.393157e-01 -9.709418e-01  0.000000e+00
   outer loop
     vertex  5.319073e+00 -1.402524e+01  6.000000e+01
     vertex  1.808050e+00 -1.489063e+01  2.500000e+01
     vertex  5.319073e+00 -1.402524e+01  2.500000e+01
   endloop
 endfacet
 facet normal  4.647232e-01 -8.854560e-01  0.000000e+00
   outer loop
     vertex  8.520971e+00 -1.234476e+01  6.000000e+01
     vertex  5.319073e+00 -1.402524e+01  6.000000e+01
     vertex  5.319073e+00 -1.402524e+01  2.500000e+01
   endloop
 endfacet
 facet normal  4.647232e-01 -8.854560e-01  0.000000e+00
   outer loop
     vertex  8.520971e+00 -1.234476e+01  6.000000e+01
     vertex  5.319073e+00 -1.402524e+01  2.500000e+01
     vertex  8.520971e+00 -1.234476e+01  2.500000e+01
   endloop
 endfacet
 facet normal  6.631227e-01 -7.485107e-01  0.000000e+00
   outer loop
     vertex  1.122766e+01 -9.946840e+00  6.000000e+01
     vertex  8.520971e+00 -1.234476e+01  6.000000e+01
     vertex  8.520971e+00 -1.234476e+01  2.500000e+01
   endloop
 endfacet
 facet normal  6.631227e-01 -7.485107e-01  0.000000e+00
   outer loop
     vertex  1.122766e+01 -9.946840e+00  6.000000e+01
     vertex  8.520971e+00 -1.234476e+01  2.500000e+01
     vertex  1.122766e+01 -9.946840e+00  2.500000e+01
   endloop
 endfacet
 facet normal  8.229839e-01 -5.680647e-01  0.000000e+00
   outer loop
     vertex  1.328184e+01 -6.970848e+00  6.000000e+01
     vertex  1.122766e+01 -9.946840e+00  2.500000e+01
     vertex  1.328184e+01 -6.970848e+00  2.500000e+01
   endloop
 endfacet
 facet normal  8.229839e-01 -5.680647e-01  0.000000e+00
   outer loop
     vertex  1.328184e+01 -6.970848e+00  6.000000e+01
     vertex  1.122766e+01 -9.946840e+00  6.000000e+01
     vertex  1.122766e+01 -9.946840e+00  2.500000e+01
   endloop
 endfacet
 facet normal  9.350162e-01 -3.546049e-01  0.000000e+00
   outer loop
     vertex  1.456413e+01 -3.589735e+00  6.000000e+01
     vertex  1.328184e+01 -6.970848e+00  2.500000e+01
     vertex  1.456413e+01 -3.589735e+00  2.500000e+01
   endloop
 endfacet
 facet normal  9.350162e-01 -3.546049e-01  0.000000e+00
   outer loop
     vertex  1.456413e+01 -3.589735e+00  6.000000e+01
     vertex  1.328184e+01 -6.970848e+00  6.000000e+01
     vertex  1.328184e+01 -6.970848e+00  2.500000e+01
   endloop
 endfacet
 facet normal  9.927089e-01 -1.205367e-01  0.000000e+00
   outer loop
     vertex  1.500000e+01 -3.673940e-15  6.000000e+01
     vertex  1.456413e+01 -3.589735e+00  2.500000e+01
     vertex  1.500000e+01 -3.673940e-15  2.500000e+01
   endloop
 endfacet
 facet normal  9.927089e-01 -1.205367e-01  0.000000e+00
   outer loop
     vertex  1.500000e+01 -3.673940e-15  6.000000e+01
     vertex  1.456413e+01 -3.589735e+00  6.000000e+01
     vertex  1.456413e+01 -3.589735e+00  2.500000e+01
   endloop
 endfacet
 facet normal  0.000000e+00  0.000000e+00  1.000000e+00
   outer loop
     vertex -7.485107e+00 -6.631227e+00  6.000000e+01
     vertex -1.328184e+01 -6.970848e+00  6.000000e+01
     vertex -1.122766e+01 -9.946840e+00  6.000000e+01
   endloop
 endfacet
 facet normal  0.000000e+00  0.000000e+00  1.000000e+00
   outer loop
     vertex -5.680647e+00 -8.229839e+00  6.000000e+01
     vertex -1.122766e+01 -9.946840e+00  6.000000e+01
     vertex -8.520971e+00 -1.234476e+01  6.000000e+01
   endloop
 endfacet
 facet normal  0.000000e+00  0.000000e+00  1.000000e+00
   outer loop
     vertex -5.680647e+00 -8.229839e+00  6.000000e+01
     vertex -8.520971e+00 -1.234476e+01  6.000000e+01
     vertex -5.319073e+00 -1.402524e+01  6.000000e+01
   endloop
 endfacet
 facet normal  0.000000e+00  0.000000e+00  1.000000e+00
   outer loop
     vertex -5.680647e+00 -8.229839e+00  6.000000e+01
     vertex -7.485107e+00 -6.631227e+00  6.000000e+01
     vertex -1.122766e+01 -9.946840e+00  6.000000e+01
   endloop
 endfacet
 facet normal  0.000000e+00  0.000000e+00  1.000000e+00
   outer loop
     vertex -8.854560e+00 -4.647232e+00  6.000000e+01
     vertex -1.328184e+01 -6.970848e+00  6.000000e+01
     vertex -7.485107e+00 -6.631227e+00  6.000000e+01
   endloop
 endfacet
 facet normal  0.000000e+00  0.000000e+00  1.000000e+00
   outer loop
     vertex -3.546049e+00 -9.350162e+00  6.000000e+01
     vertex -5.680647e+00 -8.229839e+00  6.000000e+01
     vertex -5.319073e+00 -1.402524e+01  6.000000e+01
   endloop
 endfacet
 facet normal  0.000000e+00  0.000000e+00  1.000000e+00
   outer loop
     vertex -9.709418e+00 -2.393157e+00  6.000000e+01
     vertex -1.500000e+01  1.515965e-14  6.000000e+01
     vertex -1.456413e+01 -3.589735e+00  6.000000e+01
   endloop
 endfacet
 facet normal  0.000000e+00  0.000000e+00  1.000000e+00
   outer loop
     vertex -9.709418e+00 -2.393157e+00  6.000000e+01
     vertex -1.456413e+01 -3.589735e+00  6.000000e+01
     vertex -1.328184e+01 -6.970848e+00  6.000000e+01
   endloop
 endfacet
 facet normal  0.000000e+00  0.000000e+00  1.000000e+00
   outer loop
     vertex -9.709418e+00 -2.393157e+00  6.000000e+01
     vertex -1.328184e+01 -6.970848e+00  6.000000e+01
     vertex -8.854560e+00 -4.647232e+00  6.000000e+01
   endloop
 endfacet
 facet normal  0.000000e+00  0.000000e+00  1.000000e+00
   outer loop
     vertex -1.205367e+00 -9.927089e+00  6.000000e+01
     vertex -5.319073e+00 -1.402524e+01  6.000000e+01
     vertex -1.808050e+00 -1.489063e+01  6.000000e+01
   endloop
 endfacet
 facet normal  0.000000e+00  0.000000e+00  1.000000e+00
   outer loop
     vertex -1.205367e+00 -9.927089e+00  6.000000e+01
     vertex -3.546049e+00 -9.350162e+00  6.000000e+01
     vertex -5.319073e+00 -1.402524e+01  6.000000e+01
   endloop
 endfacet
 facet normal  0.000000e+00  0.000000e+00  1.000000e+00
   outer loop
     vertex -1.000000e+01  1.010643e-14  6.000000e+01
     vertex -1.500000e+01  1.515965e-14  6.000000e+01
     vertex -9.709418e+00 -2.393157e+00  6.000000e+01
   endloop
 endfacet
 facet normal  0.000000e+00  0.000000e+00  1.000000e+00
   outer loop
     vertex  1.205367e+00 -9.927089e+00  6.000000e+01
     vertex -1.808050e+00 -1.489063e+01  6.000000e+01
     vertex  1.808050e+00 -1.489063e+01  6.000000e+01
   endloop
 endfacet
 facet normal  0.000000e+00  0.000000e+00  1.000000e+00
   outer loop
     vertex  1.205367e+00 -9.927089e+00  6.000000e+01
     vertex -1.205367e+00 -9.927089e+00  6.000000e+01
     vertex -1.808050e+00 -1.489063e+01  6.000000e+01
   endloop
 endfacet
 facet normal  0.000000e+00  0.000000e+00  1.000000e+00
   outer loop
     vertex -9.709418e+00  2.393157e+00  6.000000e+01
     vertex -1.456413e+01  3.589735e+00  6.000000e+01
     vertex -1.500000e+01  1.515965e-14  6.000000e+01
   endloop
 endfacet
 facet normal  0.000000e+00  0.000000e+00  1.000000e+00
   outer loop
     vertex -9.709418e+00  2.393157e+00  6.000000e+01
     vertex -1.500000e+01  1.515965e-14  6.000000e+01
     vertex -1.000000e+01  1.010643e-14  6.000000e+01
   endloop
 endfacet
 facet normal  0.000000e+00  0.000000e+00  1.000000e+00
   outer loop
     vertex  3.546049e+00 -9.350162e+00  6.000000e+01
     vertex  1.808050e+00 -1.489063e+01  6.000000e+01
     vertex  5.319073e+00 -1.402524e+01  6.000000e+01
   endloop
 endfacet
 facet normal  0.000000e+00  0.000000e+00  1.000000e+00
   outer loop
     vertex  3.546049e+00 -9.350162e+00  6.000000e+01
     vertex  1.205367e+00 -9.927089e+00  6.000000e+01
     vertex  1.808050e+00 -1.489063e+01  6.000000e+01
   endloop
 endfacet
 facet normal  0.000000e+00  0.000000e+00  1.000000e+00
   outer loop
     vertex -8.854560e+00  4.647232e+00  6.000000e+01
     vertex -1.328184e+01  6.970848e+00  6.000000e+01
     vertex -1.456413e+01  3.589735e+00  6.000000e+01
   endloop
 endfacet
 facet normal  0.000000e+00  0.000000e+00  1.000000e+00
   outer loop
     vertex -8.854560e+00  4.647232e+00  6.000000e+01
     vertex -1.456413e+01  3.589735e+00  6.000000e+01
     vertex -9.709418e+00  2.393157e+00  6.000000e+01
   endloop
 endfacet
 facet normal  0.000000e+00  0.000000e+00  1.000000e+00
   outer loop
     vertex  5.680647e+00 -8.229839e+00  6.000000e+01
     vertex  5.319073e+00 -1.402524e+01  6.000000e+01
     vertex  8.520971e+00 -1.234476e+01  6.000000e+01
   endloop
 endfacet
 facet normal  0.000000e+00  0.000000e+00  1.000000e+00
   outer loop
     vertex  5.680647e+00 -8.229839e+00  6.000000e+01
     vertex  3.546049e+00 -9.350162e+00  6.000000e+01
     vertex  5.319073e+00 -1.402524e+01  6.000000e+01
   endloop
 endfacet
 facet normal  0.000000e+00  0.000000e+00  1.000000e+00
   outer loop
     vertex -7.485107e+00  6.631227e+00  6.000000e+01
     vertex -1.122766e+01  9.946840e+00  6.000000e+01
     vertex -1.328184e+01  6.970848e+00  6.000000e+01
   endloop
 endfacet
 facet normal  0.000000e+00  0.000000e+00  1.000000e+00
   outer loop
     vertex -7.485107e+00  6.631227e+00  6.000000e+01
     vertex -1.328184e+01  6.970848e+00  6.000000e+01
     vertex -8.854560e+00  4.647232e+00  6.000000e+01
   endloop
 endfacet
 facet normal  0.000000e+00  0.000000e+00  1.000000e+00
   outer loop
     vertex  1.122766e+01 -9.946840e+00  6.000000e+01
     vertex  7.485107e+00 -6.631227e+00  6.000000e+01
     vertex  5.680647e+00 -8.229839e+00  6.000000e+01
   endloop
 endfacet
 facet normal  0.000000e+00  0.000000e+00  1.000000e+00
   outer loop
     vertex  1.122766e+01 -9.946840e+00  6.000000e+01
     vertex  5.680647e+00 -8.229839e+00  6.000000e+01
     vertex  8.520971e+00 -1.234476e+01  6.000000e+01
   endloop
 endfacet
 facet normal  0.000000e+00  0.000000e+00  1.000000e+00
   outer loop
     vertex -8.520971e+00  1.234476e+01  6.000000e+01
     vertex -1.122766e+01  9.946840e+00  6.000000e+01
     vertex -7.485107e+00  6.631227e+00  6.000000e+01
   endloop
 endfacet
 facet normal  0.000000e+00  0.000000e+00  1.000000e+00
   outer loop
     vertex -8.520971e+00  1.234476e+01  6.000000e+01
     vertex -7.485107e+00  6.631227e+00  6.000000e+01
     vertex -5.680647e+00  8.229839e+00  6.000000e+01
   endloop
 endfacet
 facet normal  0.000000e+00  0.000000e+00  1.000000e+00
   outer loop
     vertex  1.328184e+01 -6.970848e+00  6.000000e+01
     vertex  7.485107e+00 -6.631227e+00  6.000000e+01
     vertex  1.122766e+01 -9.946840e+00  6.000000e+01
   endloop
 endfacet
 facet normal  0.000000e+00  0.000000e+00  1.000000e+00
   outer loop
     vertex  1.328184e+01 -6.970848e+00  6.000000e+01
     vertex  8.854560e+00 -4.647232e+00  6.000000e+01
     vertex  7.485107e+00 -6.631227e+00  6.000000e+01
   endloop
 endfacet
 facet normal  0.000000e+00  0.000000e+00  1.000000e+00
   outer loop
     vertex  9.709418e+00 -2.393157e+00  6.000000e+01
     vertex  8.854560e+00 -4.647232e+00  6.000000e+01
     vertex  1.328184e+01 -6.970848e+00  6.000000e+01
   endloop
 endfacet
 facet normal  0.000000e+00  0.000000e+00  1.000000e+00
   outer loop
     vertex -5.319073e+00  1.402524e+01  6.000000e+01
     vertex -8.520971e+00  1.234476e+01  6.000000e+01
     vertex -5.680647e+00  8.229839e+00  6.000000e+01
   endloop
 endfacet
 facet normal  0.000000e+00  0.000000e+00  1.000000e+00
   outer loop
     vertex -5.319073e+00  1.402524e+01  6.000000e+01
     vertex -5.680647e+00  8.229839e+00  6.000000e+01
     vertex -3.546049e+00  9.350162e+00  6.000000e+01
   endloop
 endfacet
 facet normal  0.000000e+00  0.000000e+00  1.000000e+00
   outer loop
     vertex  1.456413e+01 -3.589735e+00  6.000000e+01
     vertex  9.709418e+00 -2.393157e+00  6.000000e+01
     vertex  1.328184e+01 -6.970848e+00  6.000000e+01
   endloop
 endfacet
 facet normal  0.000000e+00  0.000000e+00  1.000000e+00
   outer loop
     vertex -1.808050e+00  1.489063e+01  6.000000e+01
     vertex -5.319073e+00  1.402524e+01  6.000000e+01
     vertex -3.546049e+00  9.350162e+00  6.000000e+01
   endloop
 endfacet
 facet normal  0.000000e+00  0.000000e+00  1.000000e+00
   outer loop
     vertex -1.808050e+00  1.489063e+01  6.000000e+01
     vertex -3.546049e+00  9.350162e+00  6.000000e+01
     vertex -1.205367e+00  9.927089e+00  6.000000e+01
   endloop
 endfacet
 facet normal  0.000000e+00  0.000000e+00  1.000000e+00
   outer loop
     vertex  1.500000e+01 -3.673940e-15  6.000000e+01
     vertex  9.709418e+00 -2.393157e+00  6.000000e+01
     vertex  1.456413e+01 -3.589735e+00  6.000000e+01
   endloop
 endfacet
 facet normal  0.000000e+00  0.000000e+00  1.000000e+00
   outer loop
     vertex  1.500000e+01 -3.673940e-15  6.000000e+01
     vertex  1.000000e+01 -2.449294e-15  6.000000e+01
     vertex  9.709418e+00 -2.393157e+00  6.000000e+01
   endloop
 endfacet
 facet normal  0.000000e+00  0.000000e+00  1.000000e+00
   outer loop
     vertex  1.808050e+00  1.489063e+01  6.000000e+01
     vertex -1.205367e+00  9.927089e+00  6.000000e+01
     vertex  1.205367e+00  9.927089e+00  6.000000e+01
   endloop
 endfacet
 facet normal  0.000000e+00  0.000000e+00  1.000000e+00
   outer loop
     vertex  1.808050e+00  1.489063e+01  6.000000e+01
     vertex -1.808050e+00  1.489063e+01  6.000000e+01
     vertex -1.205367e+00  9.927089e+00  6.000000e+01
   endloop
 endfacet
 facet normal  0.000000e+00  0.000000e+00  1.000000e+00
   outer loop
     vertex  1.456413e+01  3.589735e+00  6.000000e+01
     vertex  1.000000e+01 -2.449294e-15  6.000000e+01
     vertex  1.500000e+01 -3.673940e-15  6.000000e+01
   endloop
 endfacet
 facet normal  0.000000e+00  0.000000e+00  1.000000e+00
   outer loop
     vertex  1.456413e+01  3.589735e+00  6.000000e+01
     vertex  9.709418e+00  2.393157e+00  6.000000e+01
     vertex  1.000000e+01 -2.449294e-15  6.000000e+01
   endloop
 endfacet
 facet normal  0.000000e+00  0.000000e+00  1.000000e+00
   outer loop
     vertex  1.456413e+01  3.589735e+00  6.000000e+01
     vertex  8.854560e+00  4.647232e+00  6.000000e+01
     vertex  9.709418e+00  2.393157e+00  6.000000e+01
   endloop
 endfacet
 facet normal  0.000000e+00  0.000000e+00  1.000000e+00
   outer loop
     vertex  5.319073e+00  1.402524e+01  6.000000e+01
     vertex  1.205367e+00  9.927089e+00  6.000000e+01
     vertex  3.546049e+00  9.350162e+00  6.000000e+01
   endloop
 endfacet
 facet normal  0.000000e+00  0.000000e+00  1.000000e+00
   outer loop
     vertex  5.319073e+00  1.402524e+01  6.000000e+01
     vertex  1.808050e+00  1.489063e+01  6.000000e+01
     vertex  1.205367e+00  9.927089e+00  6.000000e+01
   endloop
 endfacet
 facet normal  0.000000e+00  0.000000e+00  1.000000e+00
   outer loop
     vertex  1.328184e+01  6.970848e+00  6.000000e+01
     vertex  8.854560e+00  4.647232e+00  6.000000e+01
     vertex  1.456413e+01  3.589735e+00  6.000000e+01
   endloop
 endfacet
 facet normal  0.000000e+00  0.000000e+00  1.000000e+00
   outer loop
     vertex  8.520971e+00  1.234476e+01  6.000000e+01
     vertex  3.546049e+00  9.350162e+00  6.000000e+01
     vertex  5.680647e+00  8.229839e+00  6.000000e+01
   endloop
 endfacet
 facet normal  0.000000e+00  0.000000e+00  1.000000e+00
   outer loop
     vertex  8.520971e+00  1.234476e+01  6.000000e+01
     vertex  5.319073e+00  1.402524e+01  6.000000e+01
     vertex  3.546049e+00  9.350162e+00  6.000000e+01
   endloop
 endfacet
 facet normal  0.000000e+00  0.000000e+00  1.000000e+00
   outer loop
     vertex  1.122766e+01  9.946840e+00  6.000000e+01
     vertex  8.520971e+00  1.234476e+01  6.000000e+01
     vertex  5.680647e+00  8.229839e+00  6.000000e+01
   endloop
 endfacet
 facet normal  0.000000e+00  0.000000e+00  1.000000e+00
   outer loop
     vertex  1.122766e+01  9.946840e+00  6.000000e+01
     vertex  7.485107e+00  6.631227e+00  6.000000e+01
     vertex  8.854560e+00  4.647232e+00  6.000000e+01
   endloop
 endfacet
 facet normal  0.000000e+00  0.000000e+00  1.000000e+00
   outer loop
     vertex  1.122766e+01  9.946840e+00  6.000000e+01
     vertex  5.680647e+00  8.229839e+00  6.000000e+01
     vertex  7.485107e+00  6.631227e+00  6.000000e+01
   endloop
 endfacet
 facet normal  0.000000e+00  0.000000e+00  1.000000e+00
   outer loop
     vertex  1.122766e+01  9.946840e+00  6.000000e+01
     vertex  8.854560e+00  4.647232e+00  6.000000e+01
     vertex  1.328184e+01  6.970848e+00  6.000000e+01
   endloop
 endfacet
 facet normal  9.927089e-01  1.205367e-01  0.000000e+00
   outer loop
     vertex  9.709418e+00  2.393157e+00  9.000000e+01
     vertex  1.000000e+01 -2.449294e-15  9.000000e+01
     vertex  1.000000e+01 -2.449294e-15  6.000000e+01
   endloop
 endfacet
 facet normal  9.927089e-01  1.205367e-01  0.000000e+00
   outer loop
     vertex  9.709418e+00  2.393157e+00  9.000000e+01
     vertex  1.000000e+01 -2.449294e-15  6.000000e+01
     vertex  9.709418e+00  2.393157e+00  6.000000e+01
   endloop
 endfacet
 facet normal  9.350162e-01  3.546049e-01  0.000000e+00
   outer loop
     vertex  8.854560e+00  4.647232e+00  9.000000e+01
     vertex  9.709418e+00  2.393157e+00  6.000000e+01
     vertex  8.854560e+00  4.647232e+00  6.000000e+01
   endloop
 endfacet
 facet normal  9.350162e-01  3.546049e-01  0.000000e+00
   outer loop
     vertex  8.854560e+00  4.647232e+00  9.000000e+01
     vertex  9.709418e+00  2.393157e+00  9.000000e+01
     vertex  9.709418e+00  2.393157e+00  6.000000e+01
   endloop
 endfacet
 facet normal  8.229839e-01  5.680647e-01  0.000000e+00
   outer loop
     vertex  7.485107e+00  6.631227e+00  9.000000e+01
     vertex  8.854560e+00  4.647232e+00  6.000000e+01
     vertex  7.485107e+00  6.631227e+00  6.000000e+01
   endloop
 endfacet
 facet normal  8.229839e-01  5.680647e-01  0.000000e+00
   outer loop
     vertex  7.485107e+00  6.631227e+00  9.000000e+01
     vertex  8.854560e+00  4.647232e+00  9.000000e+01
     vertex  8.854560e+00  4.647232e+00  6.000000e+01
   endloop
 endfacet
 facet normal  6.631227e-01  7.485107e-01  0.000000e+00
   outer loop
     vertex  5.680647e+00  8.229839e+00  9.000000e+01
     vertex  7.485107e+00  6.631227e+00  6.000000e+01
     vertex  5.680647e+00  8.229839e+00  6.000000e+01
   endloop
 endfacet
 facet normal  6.631227e-01  7.485107e-01  0.000000e+00
   outer loop
     vertex  5.680647e+00  8.229839e+00  9.000000e+01
     vertex  7.485107e+00  6.631227e+00  9.000000e+01
     vertex  7.485107e+00  6.631227e+00  6.000000e+01
   endloop
 endfacet
 facet normal  4.647232e-01  8.854560e-01  0.000000e+00
   outer loop
     vertex  3.546049e+00  9.350162e+00  9.000000e+01
     vertex  5.680647e+00  8.229839e+00  6.000000e+01
     vertex  3.546049e+00  9.350162e+00  6.000000e+01
   endloop
 endfacet
 facet normal  4.647232e-01  8.854560e-01  0.000000e+00
   outer loop
     vertex  3.546049e+00  9.350162e+00  9.000000e+01
     vertex  5.680647e+00  8.229839e+00  9.000000e+01
     vertex  5.680647e+00  8.229839e+00  6.000000e+01
   endloop
 endfacet
 facet normal  2.393157e-01  9.709418e-01  0.000000e+00
   outer loop
     vertex  1.205367e+00  9.927089e+00  9.000000e+01
     vertex  3.546049e+00  9.350162e+00  6.000000e+01
     vertex  1.205367e+00  9.927089e+00  6.000000e+01
   endloop
 endfacet
 facet normal  2.393157e-01  9.709418e-01  0.000000e+00
   outer loop
     vertex  1.205367e+00  9.927089e+00  9.000000e+01
     vertex  3.546049e+00  9.350162e+00  9.000000e+01
     vertex  3.546049e+00  9.350162e+00  6.000000e+01
   endloop
 endfacet
 facet normal  0.000000e+00  1.000000e+00  0.000000e+00
   outer loop
     vertex -1.205367e+00  9.927089e+00  9.000000e+01
     vertex  1.205367e+00  9.927089e+00  6.000000e+01
     vertex -1.205367e+00  9.927089e+00  6.000000e+01
   endloop
 endfacet
 facet normal -0.000000e+00  1.000000e+00  0.000000e+00
   outer loop
     vertex -1.205367e+00  9.927089e+00  9.000000e+01
     vertex  1.205367e+00  9.927089e+00  9.000000e+01
     vertex  1.205367e+00  9.927089e+00  6.000000e+01
   endloop
 endfacet
 facet normal -2.393157e-01  9.709418e-01  0.000000e+00
   outer loop
     vertex -3.546049e+00  9.350162e+00  9.000000e+01
     vertex -1.205367e+00  9.927089e+00  6.000000e+01
     vertex -3.546049e+00  9.350162e+00  6.000000e+01
   endloop
 endfacet
 facet normal -2.393157e-01  9.709418e-01  0.000000e+00
   outer loop
     vertex -3.546049e+00  9.350162e+00  9.000000e+01
     vertex -1.205367e+00  9.927089e+00  9.000000e+01
     vertex -1.205367e+00  9.927089e+00  6.000000e+01
   endloop
 endfacet
 facet normal -4.647232e-01  8.854560e-01  0.000000e+00
   outer loop
     vertex -5.680647e+00  8.229839e+00  9.000000e+01
     vertex -3.546049e+00  9.350162e+00  6.000000e+01
     vertex -5.680647e+00  8.229839e+00  6.000000e+01
   endloop
 endfacet
 facet normal -6.631227e-01  7.485107e-01  0.000000e+00
   outer loop
     vertex -5.680647e+00  8.229839e+00  9.000000e+01
     vertex -5.680647e+00  8.229839e+00  6.000000e+01
     vertex -7.485107e+00  6.631227e+00  6.000000e+01
   endloop
 endfacet
 facet normal -4.647232e-01  8.854560e-01  0.000000e+00
   outer loop
     vertex -5.680647e+00  8.229839e+00  9.000000e+01
     vertex -3.546049e+00  9.350162e+00  9.000000e+01
     vertex -3.546049e+00  9.350162e+00  6.000000e+01
   endloop
 endfacet
 facet normal -6.631227e-01  7.485107e-01  0.000000e+00
   outer loop
     vertex -7.485107e+00  6.631227e+00  9.000000e+01
     vertex -5.680647e+00  8.229839e+00  9.000000e+01
     vertex -7.485107e+00  6.631227e+00  6.000000e+01
   endloop
 endfacet
 facet normal -8.229839e-01  5.680647e-01  0.000000e+00
   outer loop
     vertex -8.854560e+00  4.647232e+00  9.000000e+01
     vertex -7.485107e+00  6.631227e+00  9.000000e+01
     vertex -7.485107e+00  6.631227e+00  6.000000e+01
   endloop
 endfacet
 facet normal -8.229839e-01  5.680647e-01  0.000000e+00
   outer loop
     vertex -8.854560e+00  4.647232e+00  9.000000e+01
     vertex -7.485107e+00  6.631227e+00  6.000000e+01
     vertex -8.854560e+00  4.647232e+00  6.000000e+01
   endloop
 endfacet
 facet normal -9.350162e-01  3.546049e-01  0.000000e+00
   outer loop
     vertex -9.709418e+00  2.393157e+00  9.000000e+01
     vertex -8.854560e+00  4.647232e+00  9.000000e+01
     vertex -8.854560e+00  4.647232e+00  6.000000e+01
   endloop
 endfacet
 facet normal -9.350162e-01  3.546049e-01  0.000000e+00
   outer loop
     vertex -9.709418e+00  2.393157e+00  9.000000e+01
     vertex -8.854560e+00  4.647232e+00  6.000000e+01
     vertex -9.709418e+00  2.393157e+00  6.000000e+01
   endloop
 endfacet
 facet normal -9.927089e-01  1.205367e-01  0.000000e+00
   outer loop
     vertex -9.709418e+00  2.393157e+00  9.000000e+01
     vertex -9.709418e+00  2.393157e+00  6.000000e+01
     vertex -1.000000e+01  1.010643e-14  6.000000e+01
   endloop
 endfacet
 facet normal -9.927089e-01  1.205367e-01  0.000000e+00
   outer loop
     vertex -1.000000e+01  1.010643e-14  9.000000e+01
     vertex -9.709418e+00  2.393157e+00  9.000000e+01
     vertex -1.000000e+01  1.010643e-14  6.000000e+01
   endloop
 endfacet
 facet normal -9.927089e-01 -1.205367e-01  0.000000e+00
   outer loop
     vertex -9.709418e+00 -2.393157e+00  9.000000e+01
     vertex -1.000000e+01  1.010643e-14  9.000000e+01
     vertex -1.000000e+01  1.010643e-14  6.000000e+01
   endloop
 endfacet
 facet normal -9.927089e-01 -1.205367e-01 -0.000000e+00
   outer loop
     vertex -9.709418e+00 -2.393157e+00  9.000000e+01
     vertex -1.000000e+01  1.010643e-14  6.000000e+01
     vertex -9.709418e+00 -2.393157e+00  6.000000e+01
   endloop
 endfacet
 facet normal -9.350162e-01 -3.546049e-01  0.000000e+00
   outer loop
     vertex -8.854560e+00 -4.647232e+00  9.000000e+01
     vertex -9.709418e+00 -2.393157e+00  9.000000e+01
     vertex -9.709418e+00 -2.393157e+00  6.000000e+01
   endloop
 endfacet
 facet normal -9.350162e-01 -3.546049e-01 -0.000000e+00
   outer loop
     vertex -8.854560e+00 -4.647232e+00  9.000000e+01
     vertex -9.709418e+00 -2.393157e+00  6.000000e+01
     vertex -8.854560e+00 -4.647232e+00  6.000000e+01
   endloop
 endfacet
 facet normal -8.229839e-01 -5.680647e-01  0.000000e+00
   outer loop
     vertex -7.485107e+00 -6.631227e+00  9.000000e+01
     vertex -8.854560e+00 -4.647232e+00  9.000000e+01
     vertex -8.854560e+00 -4.647232e+00  6.000000e+01
   endloop
 endfacet
 facet normal -8.229839e-01 -5.680647e-01 -0.000000e+00
   outer loop
     vertex -7.485107e+00 -6.631227e+00  9.000000e+01
     vertex -8.854560e+00 -4.647232e+00  6.000000e+01
     vertex -7.485107e+00 -6.631227e+00  6.000000e+01
   endloop
 endfacet
 facet normal -6.631227e-01 -7.485107e-01 -0.000000e+00
   outer loop
     vertex -7.485107e+00 -6.631227e+00  9.000000e+01
     vertex -7.485107e+00 -6.631227e+00  6.000000e+01
     vertex -5.680647e+00 -8.229839e+00  6.000000e+01
   endloop
 endfacet
 facet normal -6.631227e-01 -7.485107e-01 -0.000000e+00
   outer loop
     vertex -5.680647e+00 -8.229839e+00  9.000000e+01
     vertex -7.485107e+00 -6.631227e+00  9.000000e+01
     vertex -5.680647e+00 -8.229839e+00  6.000000e+01
   endloop
 endfacet
 facet normal -4.647232e-01 -8.854560e-01  0.000000e+00
   outer loop
     vertex -3.546049e+00 -9.350162e+00  9.000000e+01
     vertex -5.680647e+00 -8.229839e+00  9.000000e+01
     vertex -5.680647e+00 -8.229839e+00  6.000000e+01
   endloop
 endfacet
 facet normal -4.647232e-01 -8.854560e-01 -0.000000e+00
   outer loop
     vertex -3.546049e+00 -9.350162e+00  9.000000e+01
     vertex -5.680647e+00 -8.229839e+00  6.000000e+01
     vertex -3.546049e+00 -9.350162e+00  6.000000e+01
   endloop
 endfacet
 facet normal -2.393157e-01 -9.709418e-01 -0.000000e+00
   outer loop
     vertex -3.546049e+00 -9.350162e+00  9.000000e+01
     vertex -3.546049e+00 -9.350162e+00  6.000000e+01
     vertex -1.205367e+00 -9.927089e+00  6.000000e+01
   endloop
 endfacet
 facet normal -2.393157e-01 -9.709418e-01 -0.000000e+00
   outer loop
     vertex -1.205367e+00 -9.927089e+00  9.000000e+01
     vertex -3.546049e+00 -9.350162e+00  9.000000e+01
     vertex -1.205367e+00 -9.927089e+00  6.000000e+01
   endloop
 endfacet
 facet normal -2.947413e-15 -1.000000e+00  0.000000e+00
   outer loop
     vertex  1.205367e+00 -9.927089e+00  9.000000e+01
     vertex -1.205367e+00 -9.927089e+00  9.000000e+01
     vertex -1.205367e+00 -9.927089e+00  6.000000e+01
   endloop
 endfacet
 facet normal -2.947413e-15 -1.000000e+00 -0.000000e+00
   outer loop
     vertex  1.205367e+00 -9.927089e+00  9.000000e+01
     vertex -1.205367e+00 -9.927089e+00  6.000000e+01
     vertex  1.205367e+00 -9.927089e+00  6.000000e+01
   endloop
 endfacet
 facet normal  2.393157e-01 -9.709418e-01  0.000000e+00
   outer loop
     vertex  3.546049e+00 -9.350162e+00  9.000000e+01
     vertex  1.205367e+00 -9.927089e+00  9.000000e+01
     vertex  1.205367e+00 -9.927089e+00  6.000000e+01
   endloop
 endfacet
 facet normal  2.393157e-01 -9.709418e-01  0.000000e+00
   outer loop
     vertex  3.546049e+00 -9.350162e+00  9.000000e+01
     vertex  1.205367e+00 -9.927089e+00  6.000000e+01
     vertex  3.546049e+00 -9.350162e+00  6.000000e+01
   endloop
 endfacet
 facet normal  4.647232e-01 -8.854560e-01  0.000000e+00
   outer loop
     vertex  5.680647e+00 -8.229839e+00  9.000000e+01
     vertex  3.546049e+00 -9.350162e+00  9.000000e+01
     vertex  3.546049e+00 -9.350162e+00  6.000000e+01
   endloop
 endfacet
 facet normal  4.647232e-01 -8.854560e-01  0.000000e+00
   outer loop
     vertex  5.680647e+00 -8.229839e+00  9.000000e+01
     vertex  3.546049e+00 -9.350162e+00  6.000000e+01
     vertex  5.680647e+00 -8.229839e+00  6.000000e+01
   endloop
 endfacet
 facet normal  6.631227e-01 -7.485107e-01  0.000000e+00
   outer loop
     vertex  7.485107e+00 -6.631227e+00  9.000000e+01
     vertex  5.680647e+00 -8.229839e+00  9.000000e+01
     vertex  5.680647e+00 -8.229839e+00  6.000000e+01
   endloop
 endfacet
 facet normal  6.631227e-01 -7.485107e-01  0.000000e+00
   outer loop
     vertex  7.485107e+00 -6.631227e+00  9.000000e+01
     vertex  5.680647e+00 -8.229839e+00  6.000000e+01
     vertex  7.485107e+00 -6.631227e+00  6.000000e+01
   endloop
 endfacet
 facet normal  8.229839e-01 -5.680647e-01  0.000000e+00
   outer loop
     vertex  8.854560e+00 -4.647232e+00  9.000000e+01
     vertex  7.485107e+00 -6.631227e+00  6.000000e+01
     vertex  8.854560e+00 -4.647232e+00  6.000000e+01
   endloop
 endfacet
 facet normal  8.229839e-01 -5.680647e-01  0.000000e+00
   outer loop
     vertex  8.854560e+00 -4.647232e+00  9.000000e+01
     vertex  7.485107e+00 -6.631227e+00  9.000000e+01
     vertex  7.485107e+00 -6.631227e+00  6.000000e+01
   endloop
 endfacet
 facet normal  9.350162e-01 -3.546049e-01  0.000000e+00
   outer loop
     vertex  9.709418e+00 -2.393157e+00  9.000000e+01
     vertex  8.854560e+00 -4.647232e+00  6.000000e+01
     vertex  9.709418e+00 -2.393157e+00  6.000000e+01
   endloop
 endfacet
 facet normal  9.350162e-01 -3.546049e-01  0.000000e+00
   outer loop
     vertex  9.709418e+00 -2.393157e+00  9.000000e+01
     vertex  8.854560e+00 -4.647232e+00  9.000000e+01
     vertex  8.854560e+00 -4.647232e+00  6.000000e+01
   endloop
 endfacet
 facet normal  9.927089e-01 -1.205367e-01  0.000000e+00
   outer loop
     vertex  1.000000e+01 -2.449294e-15  9.000000e+01
     vertex  9.709418e+00 -2.393157e+00  6.000000e+01
     vertex  1.000000e+01 -2.449294e-15  6.000000e+01
   endloop
 endfacet
 facet normal  9.927089e-01 -1.205367e-01  0.000000e+00
   outer loop
     vertex  1.000000e+01 -2.449294e-15  9.000000e+01
     vertex  9.709418e+00 -2.393157e+00  9.000000e+01
     vertex  9.709418e+00 -2.393157e+00  6.000000e+01
   endloop
 endfacet
 facet normal  0.000000e+00  0.000000e+00  1.000000e+00
   outer loop
     vertex -3.546049e+00 -9.350162e+00  9.000000e+01
     vertex -7.485107e+00 -6.631227e+00  9.000000e+01
     vertex -5.680647e+00 -8.229839e+00  9.000000e+01
   endloop
 endfacet
 facet normal  0.000000e+00  0.000000e+00  1.000000e+00
   outer loop
     vertex -1.205367e+00 -9.927089e+00  9.000000e+01
     vertex -8.854560e+00 -4.647232e+00  9.000000e+01
     vertex -7.485107e+00 -6.631227e+00  9.000000e+01
   endloop
 endfacet
 facet normal  0.000000e+00  0.000000e+00  1.000000e+00
   outer loop
     vertex -1.205367e+00 -9.927089e+00  9.000000e+01
     vertex -7.485107e+00 -6.631227e+00  9.000000e+01
     vertex -3.546049e+00 -9.350162e+00  9.000000e+01
   endloop
 endfacet
 facet normal  0.000000e+00  0.000000e+00  1.000000e+00
   outer loop
     vertex -1.000000e+01  1.010643e-14  9.000000e+01
     vertex -9.709418e+00 -2.393157e+00  9.000000e+01
     vertex -8.854560e+00 -4.647232e+00  9.000000e+01
   endloop
 endfacet
 facet normal  0.000000e+00  0.000000e+00  1.000000e+00
   outer loop
     vertex  3.546049e+00 -9.350162e+00  9.000000e+01
     vertex -1.205367e+00 -9.927089e+00  9.000000e+01
     vertex  1.205367e+00 -9.927089e+00  9.000000e+01
   endloop
 endfacet
 facet normal  0.000000e+00  0.000000e+00  1.000000e+00
   outer loop
     vertex  3.546049e+00 -9.350162e+00  9.000000e+01
     vertex -8.854560e+00 -4.647232e+00  9.000000e+01
     vertex -1.205367e+00 -9.927089e+00  9.000000e+01
   endloop
 endfacet
 facet normal  0.000000e+00  0.000000e+00  1.000000e+00
   outer loop
     vertex -3.546049e+00  9.350162e+00  9.000000e+01
     vertex -5.680647e+00  8.229839e+00  9.000000e+01
     vertex -7.485107e+00  6.631227e+00  9.000000e+01
   endloop
 endfacet
 facet normal  0.000000e+00  0.000000e+00  1.000000e+00
   outer loop
     vertex -3.546049e+00  9.350162e+00  9.000000e+01
     vertex -7.485107e+00  6.631227e+00  9.000000e+01
     vertex -8.854560e+00  4.647232e+00  9.000000e+01
   endloop
 endfacet
 facet normal  0.000000e+00  0.000000e+00  1.000000e+00
   outer loop
     vertex -3.546049e+00  9.350162e+00  9.000000e+01
     vertex -8.854560e+00  4.647232e+00  9.000000e+01
     vertex -9.709418e+00  2.393157e+00  9.000000e+01
   endloop
 endfacet
 facet normal  0.000000e+00  0.000000e+00  1.000000e+00
   outer loop
     vertex -3.546049e+00  9.350162e+00  9.000000e+01
     vertex -9.709418e+00  2.393157e+00  9.000000e+01
     vertex -1.000000e+01  1.010643e-14  9.000000e+01
   endloop
 endfacet
 facet normal  0.000000e+00  0.000000e+00  1.000000e+00
   outer loop
     vertex  9.709418e+00 -2.393157e+00  9.000000e+01
     vertex  7.485107e+00 -6.631227e+00  9.000000e+01
     vertex  8.854560e+00 -4.647232e+00  9.000000e+01
   endloop
 endfacet
 facet normal  0.000000e+00  0.000000e+00  1.000000e+00
   outer loop
     vertex  1.000000e+01 -2.449294e-15  9.000000e+01
     vertex  3.546049e+00 -9.350162e+00  9.000000e+01
     vertex  5.680647e+00 -8.229839e+00  9.000000e+01
   endloop
 endfacet
 facet normal  0.000000e+00  0.000000e+00  1.000000e+00
   outer loop
     vertex  1.000000e+01 -2.449294e-15  9.000000e+01
     vertex  5.680647e+00 -8.229839e+00  9.000000e+01
     vertex  7.485107e+00 -6.631227e+00  9.000000e+01
   endloop
 endfacet
 facet normal  0.000000e+00  0.000000e+00  1.000000e+00
   outer loop
     vertex  1.000000e+01 -2.449294e-15  9.000000e+01
     vertex -1.000000e+01  1.010643e-14  9.000000e+01
     vertex -8.854560e+00 -4.647232e+00  9.000000e+01
   endloop
 endfacet
 facet normal  0.000000e+00  0.000000e+00  1.000000e+00
   outer loop
     vertex  1.000000e+01 -2.449294e-15  9.000000e+01
     vertex -8.854560e+00 -4.647232e+00  9.000000e+01
     vertex  3.546049e+00 -9.350162e+00  9.000000e+01
   endloop
 endfacet
 facet normal  0.000000e+00  0.000000e+00  1.000000e+00
   outer loop
     vertex  1.000000e+01 -2.449294e-15  9.000000e+01
     vertex -3.546049e+00  9.350162e+00  9.000000e+01
     vertex -1.000000e+01  1.010643e-14  9.000000e+01
   endloop
 endfacet
 facet normal  0.000000e+00  0.000000e+00  1.000000e+00
   outer loop
     vertex  1.000000e+01 -2.449294e-15  9.000000e+01
     vertex  7.485107e+00 -6.631227e+00  9.000000e+01
     vertex  9.709418e+00 -2.393157e+00  9.000000e+01
   endloop
 endfacet
 facet normal  0.000000e+00  0.000000e+00  1.000000e+00
   outer loop
     vertex  3.546049e+00  9.350162e+00  9.000000e+01
     vertex  1.205367e+00  9.927089e+00  9.000000e+01
     vertex -1.205367e+00  9.927089e+00  9.000000e+01
   endloop
 endfacet
 facet normal  0.000000e+00  0.000000e+00  1.000000e+00
   outer loop
     vertex  3.546049e+00  9.350162e+00  9.000000e+01
     vertex -1.205367e+00  9.927089e+00  9.000000e+01
     vertex -3.546049e+00  9.350162e+00  9.000000e+01
   endloop
 endfacet
 facet normal  0.000000e+00  0.000000e+00  1.000000e+00
   outer loop
     vertex  5.680647e+00  8.229839e+00  9.000000e+01
     vertex  3.546049e+00  9.350162e+00  9.000000e+01
     vertex -3.546049e+00  9.350162e+00  9.000000e+01
   endloop
 endfacet
 facet normal  0.000000e+00  0.000000e+00  1.000000e+00
   outer loop
     vertex  7.485107e+00  6.631227e+00  9.000000e+01
     vertex  1.000000e+01 -2.449294e-15  9.000000e+01
     vertex  9.709418e+00  2.393157e+00  9.000000e+01
   endloop
 endfacet
 facet normal  0.000000e+00  0.000000e+00  1.000000e+00
   outer loop
     vertex  7.485107e+00  6.631227e+00  9.000000e+01
     vertex  9.709418e+00  2.393157e+00  9.000000e+01
     vertex  8.854560e+00  4.647232e+00  9.000000e+01
   endloop
 endfacet
 facet normal  0.000000e+00  0.000000e+00  1.000000e+00
   outer loop
     vertex  7.485107e+00  6.631227e+00  9.000000e+01
     vertex -3.546049e+00  9.350162e+00  9.000000e+01
     vertex  1.000000e+01 -2.449294e-15  9.000000e+01
   endloop
 endfacet
 facet normal  0.000000e+00  0.000000e+00  1.000000e+00
   outer loop
     vertex  7.485107e+00  6.631227e+00  9.000000e+01
     vertex  5.680647e+00  8.229839e+00  9.000000e+01
     vertex -3.546049e+00  9.350162e+00  9.000000e+01
   endloop
 endfacet
endsolid
